<?xml version="1.0" standalone="no"?>
<!DOCTYPE svg PUBLIC "-//W3C//DTD SVG 1.1//EN" "http://www.w3.org/Graphics/SVG/1.1/DTD/svg11.dtd" >
<svg>
<metadata>
Created by FontForge 20090914 at Fri Mar  4 18:21:42 2022
 By www-data
Copyright 2017 The Playfair Display Project Authors (https://github.com/clauseggers/Playfair-Display), with Reserved Font Name "Playfair Display".
</metadata>
<defs>
<font id="PlayfairDisplay-Bold" horiz-adv-x="0" >
  <font-face 
    font-family="Playfair Display"
    font-weight="700"
    font-stretch="normal"
    units-per-em="1000"
    panose-1="0 0 0 0 0 0 0 0 0 0"
    ascent="800"
    descent="-200"
    x-height="517"
    cap-height="708"
    bbox="-270 -243.004 1269 1162.23"
    underline-thickness="20"
    underline-position="-90"
    unicode-range="U+000D-U+FB02"
  />
<missing-glyph horiz-adv-x="562" 
d="M502 772v-772h-442v772h442zM466 742h-370v-712h370v712z" />
    <glyph glyph-name="IJ" unicode="IJ" horiz-adv-x="738" 
d="M343 708l-0.00195312 -20c-21.333 -0.666992 -37.5 -3.16699 -48.5 -7.5s-18.167 -12.333 -21.5 -24s-5 -29.834 -5 -54.501v-496c0 -24 1.83301 -42 5.5 -54s10.834 -20 21.501 -24s26.667 -6.66699 48 -8v-20c-18 1.33301 -40.667 2.16602 -68 2.49902s-55 0.5 -83 0.5
c-32.667 0 -62.834 -0.166992 -90.501 -0.5s-50.167 -1.16602 -67.5 -2.49902v20c21.333 1.33301 37.333 4 48 8s17.834 12 21.501 24s5.5 30 5.5 54v496c0 24.667 -1.83301 42.834 -5.5 54.501s-11 19.667 -22 24s-26.833 6.83301 -47.5 7.5v20
c17.333 -0.666992 39.833 -1.33398 67.5 -2.00098s57.834 -1 90.501 -1c28 0 55.667 0.333008 83 1s50 1.33398 68 2.00098zM349.998 -188l-0.000976562 20c26.667 2.66699 49.334 10.5 68.001 23.5s33 35.167 43 66.5s15 75.333 15 132v548
c0 24.667 -1.83301 42.834 -5.5 54.501s-10.834 19.667 -21.501 24s-26.667 6.83301 -48 7.5v20c16.667 -0.666992 38.5 -1.33398 65.5 -2.00098s55.5 -1 85.5 -1s59.167 0.333008 87.5 1s51.833 1.33398 70.5 2.00098v-20c-20.667 -0.666992 -36.5 -3.16699 -47.5 -7.5
s-18.333 -12.333 -22 -24s-5.5 -29.834 -5.5 -54.501v-366v-88.5c0 -31.667 -1.16699 -62.5 -3.5 -92.5s-6.83301 -56.667 -13.5 -80c-13.333 -46 -42.166 -84.667 -86.499 -116s-104.833 -47 -181.5 -47z" />
    <glyph glyph-name="ij" unicode="ij" horiz-adv-x="591" 
d="M271 -188l-0.00195312 17.999c32.667 0.666992 58.667 13.5 78 38.5s29 62.833 29 113.5v100c-14.667 -31.333 -35.667 -55.166 -63 -71.499s-60 -24.5 -98 -24.5c-28 0 -50.667 3.66699 -68 11s-31 16.666 -41 27.999c-11.333 12.667 -19.333 29.334 -24 50.001
s-7 47.334 -7 80.001v253c0 30 -4.5 52.167 -13.5 66.5s-25.833 21.5 -50.5 21.5v21c21.333 -2 42 -3 62 -3c28 0 54.167 1.16699 78.5 3.5s46.833 5.83301 67.5 10.5v-414c0 -16.667 1.5 -31.334 4.5 -44.001s8.83301 -22.5 17.5 -29.5s21.334 -10.5 38.001 -10.5
c18.667 0 35.167 5 49.5 15s25.833 23.833 34.5 41.5s13 37.5 13 59.5v262c0 30 -4.5 52.167 -13.5 66.5s-25.833 21.5 -50.5 21.5v21c21.333 -2 42 -3 62 -3c28 0 54.167 1.16699 78.5 3.5s46.833 5.83301 67.5 10.5v-434c0 -36.667 -2.33301 -69 -7 -97
s-12.167 -52.667 -22.5 -74s-24.166 -40.333 -41.499 -57c-16.667 -16 -39.5 -29 -68.5 -39s-66.167 -15 -111.5 -15zM139.998 774.999c27.333 0 49.333 -6.83301 66 -20.5s25 -32.5 25 -56.5s-8.33301 -42.833 -25 -56.5s-38.667 -20.5 -66 -20.5
c-28 0 -50.167 6.83301 -66.5 20.5s-24.5 32.5 -24.5 56.5s8.16699 42.833 24.5 56.5s38.5 20.5 66.5 20.5zM442.998 774.999c27.333 0 49.333 -6.83301 66 -20.5s25 -32.5 25 -56.5s-8.33301 -42.833 -25 -56.5s-38.667 -20.5 -66 -20.5c-28 0 -50.167 6.83301 -66.5 20.5
s-24.5 32.5 -24.5 56.5s8.16699 42.833 24.5 56.5s38.5 20.5 66.5 20.5z" />
    <glyph glyph-name="fi" unicode="fi" horiz-adv-x="660" 
d="M379 782c28 0 51.8301 -1.50098 71.4971 -4.50098s36.5 -7.16699 50.5 -12.5s26.667 -11.666 38 -18.999c11.333 -6.66699 21 -16 29 -28s12 -25.333 12 -40c0 -23.333 -8 -42 -24 -56s-39.333 -21 -70 -21c-29.333 0 -52.333 6.83301 -69 20.5s-25 32.167 -25 55.5
c0 17.333 5.83301 32.5 17.5 45.5s27.834 22.5 48.501 28.5c-6.66699 4 -15.834 7.16699 -27.501 9.5s-24.167 3.5 -37.5 3.5c-30.667 0 -56.5 -6.66699 -77.5 -20s-37.833 -31.333 -50.5 -54c-9.33301 -16.667 -16.166 -37.667 -20.499 -63s-6.5 -62.333 -6.5 -111h119
c34.667 0 64.334 0.333008 89.001 1s46.834 1.83398 66.501 3.50098s39.167 4.16699 58.5 7.5v-435c0 -28 5.33301 -47 16 -57s28.667 -15 54 -15v-21c-13.333 0.666992 -33.166 1.5 -59.499 2.5s-52.833 1.5 -79.5 1.5c-26 0 -52.333 -0.5 -79 -1.5
s-46.667 -1.83301 -60 -2.5v21c23.333 0 39.833 5 49.5 15s14.5 29 14.5 57v315c0 30 -5 52.167 -15 66.5s-28.333 21.5 -55 21.5h-119v-403c0 -28.667 7 -47.834 21 -57.501s33.667 -14.5 59 -14.5v-21c-15.333 0.666992 -36.833 1.5 -64.5 2.5s-55.834 1.5 -84.501 1.5
c-29.333 0 -57.333 -0.5 -84 -1.5s-47 -1.83301 -61 -2.5v21c25.333 0 43.333 5 54 15s16 29 16 57v403h-74v20h74c0 42 6.66699 79.5 20 112.5s33 61.833 59 86.5c24 22 54.167 38.667 90.5 50s74.833 17 115.5 17z" />
    <glyph glyph-name="fl" unicode="fl" horiz-adv-x="661" 
d="M571 784v-690.998c0 -28 5.33301 -47 16 -57s28.667 -15 54 -15v-21c-13.333 0.666992 -33.166 1.5 -59.499 2.5s-52.833 1.5 -79.5 1.5c-26 0 -52.333 -0.5 -79 -1.5s-46.667 -1.83301 -60 -2.5v21c23.333 0 39.833 5 49.5 15s14.5 29 14.5 57v583
c0 17.333 -1.66699 31 -5 41s-8 18 -14 24c-6.66699 7.33301 -15.667 13 -27 17s-22.666 6 -33.999 6c-18.667 0 -34.167 -3 -46.5 -9s-22.833 -14.333 -31.5 -25c-14 -15.333 -22.667 -35.333 -26 -60s-5 -57.667 -5 -99v-55h105v-20h-105v-403
c0 -28.667 7 -47.834 21 -57.501s33.667 -14.5 59 -14.5v-21c-15.333 0.666992 -36.833 1.5 -64.5 2.5s-55.834 1.5 -84.501 1.5c-29.333 0 -57.333 -0.5 -84 -1.5s-47 -1.83301 -61 -2.5v21c25.333 0 43.333 5 54 15s16 29 16 57v403h-74v20h74c0 50.667 5.66699 93 17 127
s29.666 62.333 54.999 85c23.333 19.333 49.5 33.166 78.5 41.499s57.833 12.5 86.5 12.5c22 0 44 -1.33301 66 -4s46 -4 72 -4c14 0 30.5 1 49.5 3s36.5 4.33301 52.5 7z" />
    <glyph glyph-name="f_f" unicode="ff" horiz-adv-x="682" 
d="M321 742c36.667 0 69.3311 -8.33301 97.998 -25s48 -41 58 -73l-18 -9c-7.33301 24.667 -21.833 45 -43.5 61s-47.834 24 -78.501 24c-34 0 -59 -10.5 -75 -31.5s-24 -54.5 -24 -100.5v-72h133v-20h-133v-403c0 -28 4.83301 -47 14.5 -57s26.167 -15 49.5 -15v-21
c-13.333 0.666992 -32.166 1.5 -56.499 2.5s-49.5 1.5 -75.5 1.5c-27.333 0 -55 -0.5 -83 -1.5s-49 -1.83301 -63 -2.5v21c25.333 0 43.333 5 54 15s16 29 16 57v403h-74v20h74c0 36 5.5 68.5 16.5 97.5s26.833 53.167 47.5 72.5c18.667 16.667 41.834 30.167 69.501 40.5
s58.834 15.5 93.501 15.5zM618.997 782c23.333 0 43.668 -2.99805 61.001 -8.99805s32.333 -14 45 -24c10 -7.33301 18.333 -17.5 25 -30.5s10 -27.833 10 -44.5c0 -18 -6.66699 -34 -20 -48s-30.333 -21 -51 -21c-22 0 -40.167 6.33301 -54.5 19s-21.5 30 -21.5 52
c0 17.333 5 32.666 15 45.999s24.333 22.666 43 27.999c-2 4 -6 7.33301 -12 10s-14 4 -24 4c-12.667 0 -23.334 -2.33301 -32.001 -7s-16 -11 -22 -19c-6.66699 -10 -11.334 -24.5 -14.001 -43.5s-4 -48.167 -4 -87.5v-91h107v-20h-107v-393
c0 -32.667 8.33301 -54.5 25 -65.5s39.667 -16.5 69 -16.5v-21c-17.333 0.666992 -41.666 1.5 -72.999 2.5s-64.333 1.5 -99 1.5c-25.333 0 -50.333 -0.5 -75 -1.5s-43 -1.83301 -55 -2.5v21c23.333 0 39.833 5 49.5 15s14.5 29 14.5 57v403h-68v20h68
c0 39.333 2 72.166 6 98.499s10.5 48.833 19.5 67.5s21.5 35.334 37.5 50.001c14 14 33.167 25.833 57.5 35.5s50.833 14.5 79.5 14.5z" />
    <glyph glyph-name="f_f_i" unicode="ffi" horiz-adv-x="997" 
d="M724 782c36 0 66.168 -3.50098 90.501 -10.501s45.166 -15.833 62.499 -26.5c11.333 -6.66699 20.666 -15.667 27.999 -27s11 -24.666 11 -39.999c0 -23.333 -8 -42 -24 -56s-39.333 -21 -70 -21c-29.333 0 -52.333 6.83301 -69 20.5s-25 32.167 -25 55.5
c0 17.333 5.83301 32.5 17.5 45.5s27.834 22.5 48.501 28.5c-6 4 -15 7.16699 -27 9.5s-24.333 3.5 -37 3.5c-26.667 0 -49.334 -5.16699 -68.001 -15.5s-33.667 -22.5 -45 -36.5c-12 -13.333 -21 -28.333 -27 -45s-10 -37 -12 -61s-3 -54 -3 -90h119
c34.667 0 64.167 0.333008 88.5 1s46.333 1.83398 66 3.50098s39.5 4.16699 59.5 7.5v-435c0 -28 5.33301 -47 16 -57s28.667 -15 54 -15v-21c-13.333 0.666992 -33.166 1.5 -59.499 2.5s-52.833 1.5 -79.5 1.5s-53.167 -0.5 -79.5 -1.5s-46.166 -1.83301 -59.499 -2.5v21
c23.333 0 39.833 5 49.5 15s14.5 29 14.5 57v315c0 30 -5 52.167 -15 66.5s-28.333 21.5 -55 21.5h-119v-403c0 -28.667 7 -47.834 21 -57.501s33.667 -14.5 59 -14.5v-21c-15.333 0.666992 -36.833 1.5 -64.5 2.5s-55.834 1.5 -84.501 1.5c-30 0 -58.333 -0.5 -85 -1.5
s-46.667 -1.83301 -60 -2.5v21c25.333 0 43.333 5 54 15s16 29 16 57v403h-74v20h74c0 42 6.5 79.5 19.5 112.5s32.833 61.833 59.5 86.5c24 21.333 54.5 37.833 91.5 49.5s77.833 17.5 122.5 17.5zM337.001 747.999c40.667 0 74.501 -6.66895 101.501 -20.002
s50.167 -31.333 69.5 -54l-14 -14c-12.667 16.667 -30.834 31.834 -54.501 45.501s-52.5 20.5 -86.5 20.5c-38 0 -66.667 -11.167 -86 -33.5s-29 -59.166 -29 -110.499v-66h133v-20h-133v-403c0 -28 4.83301 -47 14.5 -57s26.167 -15 49.5 -15v-21
c-13.333 0.666992 -32.166 1.5 -56.499 2.5s-49.5 1.5 -75.5 1.5c-27.333 0 -55 -0.5 -83 -1.5s-49 -1.83301 -63 -2.5v21c25.333 0 43.333 5 54 15s16 29 16 57v403h-74v20h74c0 36 5.66699 68.5 17 97.5s27.666 53.167 48.999 72.5c20.667 20.667 46.167 36.167 76.5 46.5
s63.833 15.5 100.5 15.5z" />
    <glyph glyph-name="f_f_l" unicode="ffl" horiz-adv-x="997" 
d="M908 784l-0.00195312 -690.998c0 -28 5.33301 -47 16 -57s28.667 -15 54 -15v-21c-13.333 0.666992 -33.166 1.5 -59.499 2.5s-52.833 1.5 -79.5 1.5s-53.167 -0.5 -79.5 -1.5s-46.166 -1.83301 -59.499 -2.5v21c23.333 0 39.833 5 49.5 15s14.5 29 14.5 57v583
c0 17.333 -1.66699 31 -5 41s-8.33301 18 -15 24c-6.66699 7.33301 -15.5 13 -26.5 17s-22.167 6 -33.5 6c-19.333 0 -35 -3 -47 -9s-22.667 -14.333 -32 -25c-13.333 -15.333 -21.666 -35 -24.999 -59s-5 -56.333 -5 -97v-58h105v-20h-105v-403
c0 -28.667 7 -47.834 21 -57.501s33.667 -14.5 59 -14.5v-21c-15.333 0.666992 -36.833 1.5 -64.5 2.5s-55.834 1.5 -84.501 1.5c-30 0 -58.333 -0.5 -85 -1.5s-46.667 -1.83301 -60 -2.5v21c25.333 0 43.333 5 54 15s16 29 16 57v403h-74v20h74c0 50.667 5.5 93 16.5 127
s29.5 62.333 55.5 85c23.333 19.333 49.5 33.166 78.5 41.499s57.833 12.5 86.5 12.5c21.333 0 43.166 -1.33301 65.499 -4s45.833 -4 70.5 -4c15.333 0 32.333 1 51 3s36.334 4.33301 53.001 7zM336.998 748.002c40.667 0 74.5029 -6.66895 101.503 -20.002
s50.167 -31.333 69.5 -54l-14 -14c-12.667 16.667 -30.834 31.834 -54.501 45.501s-52.5 20.5 -86.5 20.5c-38 0 -66.667 -11.167 -86 -33.5s-29 -59.166 -29 -110.499v-66h133v-20h-133v-403c0 -28 4.83301 -47 14.5 -57s26.167 -15 49.5 -15v-21
c-12.667 0.666992 -31.334 1.5 -56.001 2.5s-50 1.5 -76 1.5c-27.333 0 -55 -0.5 -83 -1.5s-49 -1.83301 -63 -2.5v21c25.333 0 43.333 5 54 15s16 29 16 57v403h-74v20h74c0 36 5.66699 68.5 17 97.5s27.666 53.167 48.999 72.5c20.667 20.667 46.167 36.167 76.5 46.5
s63.833 15.5 100.5 15.5z" />
    <glyph glyph-name="f_b.liga" unicode="fb" horiz-adv-x="934" 
d="M563 784l0.000976562 -763.996c-16.667 2.66699 -33.667 2.66699 -51 0s-33.333 -7.16699 -48 -13.5s-27 -13.833 -37 -22.5l-15 9c3.33301 9.33301 5.33301 18.666 6 27.999s1 18.666 1 27.999v627c0 17.333 -1.66699 31 -5 41s-8 18 -14 24
c-6.66699 7.33301 -15.167 13 -25.5 17s-20.833 6 -31.5 6c-18 0 -32.667 -2.83301 -44 -8.5s-21.666 -13.834 -30.999 -24.501c-14 -15.333 -22.5 -35.5 -25.5 -60.5s-4.5 -57.5 -4.5 -97.5v-57h105v-20h-105v-403c0 -28.667 7 -47.834 21 -57.501s33.667 -14.5 59 -14.5
v-21c-15.333 0.666992 -36.833 1.5 -64.5 2.5s-55.834 1.5 -84.501 1.5c-29.333 0 -57.333 -0.5 -84 -1.5s-47 -1.83301 -61 -2.5v21c25.333 0 43.333 5 54 15s16 29 16 57v403h-74v20h74c0 50.667 5.66699 93 17 127s29.666 62.333 54.999 85
c22.667 19.333 48.334 33.166 77.001 41.499s57 12.5 85 12.5c21.333 0 42.666 -1.16699 63.999 -3.5s45.333 -3.5 72 -3.5c13.333 0 29.333 0.833008 48 2.5s35.667 3.83398 51 6.50098zM717.001 531.004c51.333 0 94.1689 -21.166 128.502 -63.499
s51.5 -107.5 51.5 -195.5c0 -69.333 -10.5 -125 -31.5 -167s-48.833 -72.333 -83.5 -91s-72.667 -28 -114 -28c-26.667 0 -51.834 4.66699 -75.501 14s-43.834 24.666 -60.501 45.999l15 5c11.333 -14.667 25.166 -25.667 41.499 -33s32.5 -11 48.5 -11
c36.667 0 64 20.667 82 62s27 104.333 27 189c0 57.333 -3.5 102.833 -10.5 136.5s-17.167 57.667 -30.5 72s-29.333 21.5 -48 21.5c-23.333 0 -44.666 -9.5 -63.999 -28.5s-30.333 -45.5 -33 -79.5l-5 35c12.667 38 33.167 66.833 61.5 86.5s61.833 29.5 100.5 29.5z" />
    <glyph glyph-name="f_f_b.liga" unicode="ffb" horiz-adv-x="1272" 
d="M900 784l0.00292969 -763.996c-16.667 2.66699 -33.834 2.66699 -51.501 0s-33.834 -7.16699 -48.501 -13.5s-26.667 -13.833 -36 -22.5l-15 9c2.66699 9.33301 4.5 18.666 5.5 27.999s1.5 18.666 1.5 27.999v627c0 17.333 -1.83301 31 -5.5 41s-8.5 18 -14.5 24
c-6 7.33301 -14.167 13 -24.5 17s-21.166 6 -32.499 6c-17.333 0 -31.833 -2.83301 -43.5 -8.5s-21.834 -13.834 -30.501 -24.501c-14 -16 -22.5 -36.833 -25.5 -62.5s-4.5 -59.167 -4.5 -100.5v-52h105v-20h-105v-403c0 -28.667 7 -47.834 21 -57.501
s33.667 -14.5 59 -14.5v-21c-15.333 0.666992 -36.833 1.5 -64.5 2.5s-55.834 1.5 -84.501 1.5c-30 0 -58.333 -0.5 -85 -1.5s-46.667 -1.83301 -60 -2.5v21c25.333 0 43.333 5 54 15s16 29 16 57v403h-74v20h74c0 50.667 5.5 93 16.5 127s29.5 62.333 55.5 85
c22.667 19.333 48.167 33.166 76.5 41.499s56.833 12.5 85.5 12.5c20.667 0 41.667 -1.16699 63 -3.5s45.333 -3.5 72 -3.5c14 0 30.167 0.833008 48.5 2.5s35.5 3.83398 51.5 6.50098zM337.003 748.004c40.667 0 74.502 -6.66895 101.502 -20.002s50.167 -31.333 69.5 -54
l-14 -14c-12.667 16.667 -30.834 31.834 -54.501 45.501s-52.5 20.5 -86.5 20.5c-36 0 -63.167 -11.167 -81.5 -33.5s-27.5 -59.166 -27.5 -110.499v-66h127v-20h-127v-403c0 -28 4.83301 -47 14.5 -57s26.167 -15 49.5 -15v-21c-13.333 0.666992 -33 1.5 -59 2.5
s-52.333 1.5 -79 1.5c-27.333 0 -55 -0.5 -83 -1.5s-49 -1.83301 -63 -2.5v21c25.333 0 43.333 5 54 15s16 29 16 57v403h-74v20h74c0 36 5.66699 68.5 17 97.5s27.666 53.167 48.999 72.5c20.667 20.667 46.167 36.167 76.5 46.5s63.833 15.5 100.5 15.5zM1053 531.002
c51.333 0 94.334 -21.166 129.001 -63.499s52 -107.5 52 -195.5c0 -69.333 -10.667 -125 -32 -167s-49.333 -72.333 -84 -91s-72.334 -28 -113.001 -28c-27.333 0 -52.833 4.66699 -76.5 14s-43.5 24.666 -59.5 45.999l14 5c12 -14.667 26.167 -25.667 42.5 -33
s32.5 -11 48.5 -11c36.667 0 64 20.667 82 62s27 104.333 27 189c0 57.333 -3.66699 102.833 -11 136.5s-17.5 57.667 -30.5 72s-28.833 21.5 -47.5 21.5c-24 0 -45.667 -9.5 -65 -28.5s-30 -45.5 -32 -79.5l-5 35c12 38 32.333 66.833 61 86.5s62 29.5 100 29.5z" />
    <glyph glyph-name="f_f_h.liga" unicode="ffh" horiz-adv-x="1281" 
d="M900 784v-346c16 34.667 38.333 58.834 67 72.501s60.667 20.5 96 20.5c28.667 0 51.667 -3.5 69 -10.5s31 -16.5 41 -28.5c11.333 -12.667 19.5 -29 24.5 -49s7.5 -47 7.5 -81v-269c0 -28 4.83301 -47 14.5 -57s26.167 -15 49.5 -15v-21
c-12.667 0.666992 -31.834 1.5 -57.501 2.5s-50.5 1.5 -74.5 1.5c-26 0 -51.167 -0.5 -75.5 -1.5s-42.5 -1.83301 -54.5 -2.5v21c20 0 34 5 42 15s12 29 12 57v311c0 16.667 -1.66699 31.167 -5 43.5s-9.5 22 -18.5 29s-21.833 10.5 -38.5 10.5
c-18 0 -34.5 -4.83301 -49.5 -14.5s-27 -23.167 -36 -40.5s-13.5 -37.333 -13.5 -60v-279c0 -28 4 -47 12 -57s22 -15 42 -15v-21c-12 0.666992 -29.667 1.5 -53 2.5s-47 1.5 -71 1.5c-26 0 -52.167 -0.5 -78.5 -1.5s-46.166 -1.83301 -59.499 -2.5v21
c23.333 0 39.833 5 49.5 15s14.5 29 14.5 57v583c0 17.333 -1.83301 31 -5.5 41s-8.5 18 -14.5 24c-6 7.33301 -14.167 13 -24.5 17s-21.166 6 -32.499 6c-17.333 0 -31.833 -2.83301 -43.5 -8.5s-21.834 -13.834 -30.501 -24.501
c-13.333 -15.333 -21.666 -35.166 -24.999 -59.499s-5 -55.833 -5 -94.5v-61h105v-20h-105v-403c0 -28.667 7 -47.834 21 -57.501s33.667 -14.5 59 -14.5v-21c-15.333 0.666992 -36.833 1.5 -64.5 2.5s-55.834 1.5 -84.501 1.5c-30 0 -58.333 -0.5 -85 -1.5
s-46.667 -1.83301 -60 -2.5v21c25.333 0 43.333 5 54 15s16 29 16 57v403h-74v20h74c0 50.667 5.5 93 16.5 127s29.5 62.333 55.5 85c22.667 19.333 48.167 33.166 76.5 41.499s56.833 12.5 85.5 12.5c20.667 0 41.667 -1.16699 63 -3.5s45.333 -3.5 72 -3.5
c14 0 30.167 0.833008 48.5 2.5s35.5 3.83398 51.5 6.50098zM337 748c40.667 0 74.501 -6.66895 101.501 -20.002s50.167 -31.333 69.5 -54l-14 -14c-12.667 16.667 -30.834 31.834 -54.501 45.501s-52.5 20.5 -86.5 20.5c-38 0 -66.667 -11.167 -86 -33.5
s-29 -59.166 -29 -110.499v-66h133v-20h-133v-403c0 -28 4.83301 -47 14.5 -57s26.167 -15 49.5 -15v-21c-13.333 0.666992 -32.166 1.5 -56.499 2.5s-49.5 1.5 -75.5 1.5c-27.333 0 -55 -0.5 -83 -1.5s-49 -1.83301 -63 -2.5v21c25.333 0 43.333 5 54 15s16 29 16 57v403
h-74v20h74c0 36 5.66699 68.5 17 97.5s27.666 53.167 48.999 72.5c20.667 20.667 46.167 36.167 76.5 46.5s63.833 15.5 100.5 15.5z" />
    <glyph glyph-name="f_f_j.liga" unicode="ffj" horiz-adv-x="976" 
d="M337 748c40.667 0 74.5 -6.66895 101.5 -20.002s50.167 -31.333 69.5 -54l-14 -14c-12.667 16.667 -30.834 31.834 -54.501 45.501s-52.5 20.5 -86.5 20.5c-36 0 -63.167 -11.167 -81.5 -33.5s-27.5 -59.166 -27.5 -110.499v-66h135v-20h-135v-403
c0 -28 4.83301 -47 14.5 -57s26.167 -15 49.5 -15v-21c-13.333 0.666992 -33 1.5 -59 2.5s-52.333 1.5 -79 1.5c-27.333 0 -55 -0.5 -83 -1.5s-49 -1.83301 -63 -2.5v21c25.333 0 43.333 5 54 15s16 29 16 57v403h-74v20h74c0 36 5.83301 68.333 17.5 97
s27.834 53 48.501 73s46.167 35.333 76.5 46s63.833 16 100.5 16zM656 -188.002l-0.00292969 17.998c32.667 0.666992 58.667 13.5 78 38.5s29 62.833 29 113.5v426c0 30 -5 52.167 -15 66.5s-28.333 21.5 -55 21.5h-119v-399c0 -30 7.83301 -50.167 23.5 -60.5
s37.167 -15.5 64.5 -15.5v-21c-16 0.666992 -38.5 1.5 -67.5 2.5s-59.167 1.5 -90.5 1.5c-28.667 0 -56.334 -0.5 -83.001 -1.5s-47 -1.83301 -61 -2.5v21c25.333 0 43.333 5 54 15s16 29 16 57v403h-74v20h74c0 42 6.66699 79.5 20 112.5s33 61.833 59 86.5
c24 22 54.167 38.667 90.5 50s74.833 17 115.5 17c28 0 51.833 -1.5 71.5 -4.5s36.5 -7.16699 50.5 -12.5s26.667 -11.666 38 -18.999c11.333 -6.66699 21 -16 29 -28s12 -25.333 12 -40c0 -23.333 -8 -42 -24 -56s-39.333 -21 -70 -21c-29.333 0 -52.333 6.83301 -69 20.5
s-25 32.167 -25 55.5c0 17.333 5.83301 32.5 17.5 45.5s27.834 22.5 48.501 28.5c-6.66699 4 -15.834 7.16699 -27.501 9.5s-24.167 3.5 -37.5 3.5c-30.667 0 -56.5 -6.66699 -77.5 -20s-37.833 -31.333 -50.5 -54c-9.33301 -16.667 -16.166 -37.667 -20.499 -63
s-6.5 -62.333 -6.5 -111h119c34.667 0 64.334 0.333008 89.001 1s46.834 1.83398 66.501 3.50098s39.167 4.16699 58.5 7.5v-434c0 -36.667 -2.33301 -69 -7 -97s-12.167 -52.667 -22.5 -74s-24.166 -40.333 -41.499 -57c-16.667 -16 -39.5 -29 -68.5 -39
s-66.167 -15 -111.5 -15z" />
    <glyph glyph-name="f_f_k.liga" unicode="ffk" horiz-adv-x="1258" 
d="M900 784l-0.000976562 -690.998c0 -28 5 -47 15 -57s27 -15 51 -15v-21c-13.333 0.666992 -32.666 1.5 -57.999 2.5s-51.333 1.5 -78 1.5c-26 0 -52.167 -0.5 -78.5 -1.5s-46.166 -1.83301 -59.499 -2.5v21c23.333 0 39.833 5 49.5 15s14.5 29 14.5 57v583
c0 17.333 -1.83301 31 -5.5 41s-8.5 18 -14.5 24c-6 7.33301 -14.167 13 -24.5 17s-21.166 6 -32.499 6c-17.333 0 -31.833 -2.83301 -43.5 -8.5s-21.834 -13.834 -30.501 -24.501c-14 -15.333 -22.5 -35.5 -25.5 -60.5s-4.5 -57.5 -4.5 -97.5v-57h105v-20h-105v-403
c0 -28.667 7 -47.834 21 -57.501s33.667 -14.5 59 -14.5v-21c-15.333 0.666992 -36.833 1.5 -64.5 2.5s-55.834 1.5 -84.501 1.5c-30 0 -58.333 -0.5 -85 -1.5s-46.667 -1.83301 -60 -2.5v21c25.333 0 43.333 5 54 15s16 29 16 57v403h-74v20h74c0 50.667 5.5 93 16.5 127
s29.5 62.333 55.5 85c22.667 19.333 48.167 33.166 76.5 41.499s56.833 12.5 85.5 12.5c20.667 0 41.667 -1.16699 63 -3.5s45.333 -3.5 72 -3.5c14 0 30.167 0.833008 48.5 2.5s35.5 3.83398 51.5 6.50098zM336.999 748.002c40.667 0 74.502 -6.66895 101.502 -20.002
s50.167 -31.333 69.5 -54l-14 -14c-12.667 16.667 -30.834 31.834 -54.501 45.501s-52.5 20.5 -86.5 20.5c-36 0 -63.167 -11.167 -81.5 -33.5s-27.5 -59.166 -27.5 -110.499v-66h127v-20h-127v-403c0 -28 4.83301 -47 14.5 -57s26.167 -15 49.5 -15v-21
c-13.333 0.666992 -33 1.5 -59 2.5s-52.333 1.5 -79 1.5c-27.333 0 -55 -0.5 -83 -1.5s-49 -1.83301 -63 -2.5v21c25.333 0 43.333 5 54 15s16 29 16 57v403h-74v20h74c0 36 5.66699 68.5 17 97.5s27.666 53.167 48.999 72.5c20.667 20.667 46.167 36.167 76.5 46.5
s63.833 15.5 100.5 15.5zM1226 517l0.00292969 -19.998c-21.333 -4 -42.333 -12.667 -63 -26s-41.334 -30.333 -62.001 -51l-77 -80l10 19l171 -286c7.33301 -12 14.833 -22.667 22.5 -32s17.5 -16 29.5 -20v-21c-10 0.666992 -25 1.5 -45 2.5s-40 1.5 -60 1.5
c-24.667 0 -49.334 -0.5 -74.001 -1.5s-43 -1.83301 -55 -2.5v21c13.333 0 22.333 3.16699 27 9.5s4 14.5 -2 24.5l-99 179c-8 12.667 -15.833 20.834 -23.5 24.501s-17.834 5.83398 -30.501 6.50098v19c14 1.33301 26.167 3.66602 36.5 6.99902s19.833 9.66602 28.5 18.999
l76 74c22 21.333 33.167 40.333 33.5 57s-6.66699 30 -21 40s-33.166 15.333 -56.499 16v20c18.667 -0.666992 39 -1.33398 61 -2.00098s40.667 -1 56 -1c12.667 0 26.667 0.166992 42 0.5s29.666 0.666016 42.999 0.999023s24 0.833008 32 1.5z" />
    <glyph glyph-name="f_h.liga" unicode="fh" horiz-adv-x="945" 
d="M563 784l-0.000976562 -345.998c16.667 34.667 39.334 58.834 68.001 72.501s60.334 20.5 95.001 20.5c28.667 0 51.667 -3.5 69 -10.5s31.333 -16.5 42 -28.5c10.667 -12.667 18.5 -29 23.5 -49s7.5 -47 7.5 -81v-269c0 -28 4.83301 -47 14.5 -57s26.167 -15 49.5 -15
v-21c-12.667 0.666992 -31.667 1.5 -57 2.5s-50.333 1.5 -75 1.5c-25.333 0 -50.333 -0.5 -75 -1.5s-43 -1.83301 -55 -2.5v21c20 0 34 5 42 15s12 29 12 57v311c0 16.667 -1.66699 31.167 -5 43.5s-9.5 22 -18.5 29s-21.833 10.5 -38.5 10.5
c-18 0 -34.5 -4.83301 -49.5 -14.5s-27 -23.167 -36 -40.5s-13.5 -37.333 -13.5 -60v-279c0 -28 4.16699 -47 12.5 -57s22.166 -15 41.499 -15v-21c-12 0.666992 -29.5 1.5 -52.5 2.5s-46.833 1.5 -71.5 1.5c-25.333 0 -51.333 -0.5 -78 -1.5s-46.667 -1.83301 -60 -2.5v21
c23.333 0 39.833 5 49.5 15s14.5 29 14.5 57v583c0 17.333 -1.66699 31 -5 41s-8 18 -14 24c-6.66699 7.33301 -15.167 13 -25.5 17s-20.833 6 -31.5 6c-18 0 -32.667 -2.83301 -44 -8.5s-21.666 -13.834 -30.999 -24.501c-8.66699 -10.667 -15.167 -23.334 -19.5 -38.001
s-7.16602 -32.167 -8.49902 -52.5s-2 -44.5 -2 -72.5v-52h105v-20h-105v-403c0 -28.667 7 -47.834 21 -57.501s33.667 -14.5 59 -14.5v-21c-15.333 0.666992 -36.833 1.5 -64.5 2.5s-55.834 1.5 -84.501 1.5c-29.333 0 -57.333 -0.5 -84 -1.5s-47 -1.83301 -61 -2.5v21
c25.333 0 43.333 5 54 15s16 29 16 57v403h-74v20h74c0 50.667 5.66699 93 17 127s29.666 62.333 54.999 85c22.667 19.333 48.334 33.166 77.001 41.499s57 12.5 85 12.5c21.333 0 42.666 -1.16699 63.999 -3.5s45.333 -3.5 72 -3.5c13.333 0 29.333 0.833008 48 2.5
s35.667 3.83398 51 6.50098z" />
    <glyph glyph-name="f_idieresis.liga" unicode="f&#xef;" horiz-adv-x="653" 
d="M312 782c36.667 0 65.498 -4.66699 86.498 -14s36.167 -21.333 45.5 -36s14 -30.334 14 -47.001l-32 6c-2.66699 25.333 -13.667 43.833 -33 55.5s-43 17.5 -71 17.5c-20 0 -35.833 -3.66699 -47.5 -11s-20 -19.5 -25 -36.5s-8.16699 -39.5 -9.5 -67.5
c-0.666992 -11.333 -1.16699 -24.666 -1.5 -39.999s-0.5 -31 -0.5 -47v-46h119c34.667 0 64.334 0.333008 89.001 1s46.834 1.83398 66.501 3.50098s39.167 4.16699 58.5 7.5v-435c0 -28 5.33301 -47 16 -57s28.667 -15 54 -15v-21
c-13.333 0.666992 -33.166 1.5 -59.499 2.5s-52.833 1.5 -79.5 1.5c-26 0 -52.333 -0.5 -79 -1.5s-46.667 -1.83301 -60 -2.5v21c23.333 0 39.833 5 49.5 15s14.5 29 14.5 57v315c0 30 -4.83301 52.167 -14.5 66.5s-28.167 21.5 -55.5 21.5h-119v-403
c0 -28.667 7 -47.834 21 -57.501s33.667 -14.5 59 -14.5v-21c-15.333 0.666992 -36.833 1.5 -64.5 2.5s-55.834 1.5 -84.501 1.5c-29.333 0 -57.5 -0.5 -84.5 -1.5s-47.167 -1.83301 -60.5 -2.5v21c25.333 0 43.333 5 54 15s16 29 16 57v403h-74v20h74
c0 32.667 1.83301 61.667 5.5 87s9.83398 47.833 18.501 67.5s20 36.834 34 51.501c21.333 21.333 45.666 36.666 72.999 45.999s56.333 14 87 14zM609.998 760c20 0 37.5 -7.5 52.5 -22.5s22.5 -32.5 22.5 -52.5c0 -20.667 -7.5 -38.334 -22.5 -53.001s-32.5 -22 -52.5 -22
c-20.667 0 -38.5 7.33301 -53.5 22s-22.5 32.334 -22.5 53.001c0 20 7.5 37.5 22.5 52.5s32.833 22.5 53.5 22.5zM381.998 760c20 0 37.667 -7.5 53 -22.5s23 -32.5 23 -52.5c0 -20.667 -7.66699 -38.334 -23 -53.001s-33 -22 -53 -22c-20.667 0 -38.334 7.33301 -53.001 22
s-22 32.334 -22 53.001c0 20 7.33301 37.5 22 52.5s32.334 22.5 53.001 22.5z" />
    <glyph glyph-name="f_igrave.liga" unicode="f&#xec;" horiz-adv-x="660" 
d="M292 760c26 0 48.8291 -4 68.4961 -12s37.834 -18.333 54.501 -31v-21c-18.667 14 -35.167 24.5 -49.5 31.5s-30.5 10.5 -48.5 10.5c-27.333 0 -47.666 -11.667 -60.999 -35c-6 -10 -10.5 -22.833 -13.5 -38.5s-4.5 -35.834 -4.5 -60.501v-88h119
c34.667 0 64.334 0.333008 89.001 1s46.834 1.83398 66.501 3.50098s39.167 4.16699 58.5 7.5v-435c0 -28 5.33301 -47 16 -57s28.667 -15 54 -15v-21c-13.333 0.666992 -33.166 1.5 -59.499 2.5s-52.833 1.5 -79.5 1.5c-26 0 -52.333 -0.5 -79 -1.5
s-46.667 -1.83301 -60 -2.5v21c23.333 0 39.833 5 49.5 15s14.5 29 14.5 57v315c0 30 -5 52.167 -15 66.5s-28.333 21.5 -55 21.5h-119v-403c0 -28.667 7 -47.834 21 -57.501s33.667 -14.5 59 -14.5v-21c-15.333 0.666992 -36.833 1.5 -64.5 2.5s-55.834 1.5 -84.501 1.5
c-29.333 0 -57.333 -0.5 -84 -1.5s-47 -1.83301 -61 -2.5v21c25.333 0 43.333 5 54 15s16 29 16 57v403h-74v20h74c0 42.667 4.16699 80.334 12.5 113.001s23.833 60 46.5 82c20 20 42.167 33.167 66.5 39.5s48.5 9.5 72.5 9.5zM368.996 817
c12 10.667 26.166 14.6689 42.499 12.002s29.833 -10.334 40.5 -23.001s19.334 -27.667 26.001 -45l24.5 -62.5c9.66699 -24.333 24.167 -54.5 43.5 -90.5l-11 -9c-29.333 27.333 -54.5 48.666 -75.5 63.999l-54 39c-15 10.667 -28.167 22.667 -39.5 36
c-10.667 13.333 -15.667 27.5 -15 42.5s6.66699 27.167 18 36.5z" />
    <glyph glyph-name="f_j.liga" unicode="fj" horiz-adv-x="640" 
d="M320 -188l-0.00292969 17.998c32.667 0.666992 58.667 13.5 78 38.5s29 62.833 29 113.5v426c0 30 -5 52.167 -15 66.5s-28.333 21.5 -55 21.5h-119v-399c0 -30 7.83301 -50.167 23.5 -60.5s37.167 -15.5 64.5 -15.5v-21c-16 0.666992 -38.5 1.5 -67.5 2.5
s-59.167 1.5 -90.5 1.5c-28.667 0 -56.334 -0.5 -83.001 -1.5s-47 -1.83301 -61 -2.5v21c25.333 0 43.333 5 54 15s16 29 16 57v403h-74v20h74c0 42 6.66699 79.5 20 112.5s33 61.833 59 86.5c24 22 54.167 38.667 90.5 50s74.833 17 115.5 17c28 0 51.833 -1.5 71.5 -4.5
s36.5 -7.16699 50.5 -12.5s26.667 -11.666 38 -18.999c11.333 -6.66699 21 -16 29 -28s12 -25.333 12 -40c0 -23.333 -8 -42 -24 -56s-39.333 -21 -70 -21c-29.333 0 -52.333 6.83301 -69 20.5s-25 32.167 -25 55.5c0 17.333 5.83301 32.5 17.5 45.5
s27.834 22.5 48.501 28.5c-6.66699 4 -15.834 7.16699 -27.501 9.5s-24.167 3.5 -37.5 3.5c-30.667 0 -56.5 -6.66699 -77.5 -20s-37.833 -31.333 -50.5 -54c-9.33301 -16.667 -16.166 -37.667 -20.499 -63s-6.5 -62.333 -6.5 -111h119c34.667 0 64.334 0.333008 89.001 1
s46.834 1.83398 66.501 3.50098s39.167 4.16699 58.5 7.5v-434c0 -36.667 -2.33301 -69 -7 -97s-12.167 -52.667 -22.5 -74s-24.166 -40.333 -41.499 -57c-16.667 -16 -39.5 -29 -68.5 -39s-66.167 -15 -111.5 -15z" />
    <glyph glyph-name="f_k.liga" unicode="fk" horiz-adv-x="922" 
d="M563 784v-691c0 -28 5 -47 15 -57s27 -15 51 -15v-21c-13.333 0.666992 -32.666 1.5 -57.999 2.5s-51 1.5 -77 1.5s-52.333 -0.5 -79 -1.5s-46.667 -1.83301 -60 -2.5v21c23.333 0 39.833 5 49.5 15s14.5 29 14.5 57v583c0 17.333 -1.66699 31 -5 41s-8 18 -14 24
c-6.66699 7.33301 -15.167 13 -25.5 17s-20.833 6 -31.5 6c-18 0 -32.667 -2.83301 -44 -8.5s-21.666 -13.834 -30.999 -24.501c-14 -15.333 -22.5 -35.666 -25.5 -60.999s-4.5 -58.666 -4.5 -99.999v-54h105v-20h-105v-403c0 -28.667 7 -47.834 21 -57.501
s33.667 -14.5 59 -14.5v-21c-15.333 0.666992 -36.833 1.5 -64.5 2.5s-55.834 1.5 -84.501 1.5c-29.333 0 -57.333 -0.5 -84 -1.5s-47 -1.83301 -61 -2.5v21c25.333 0 43.333 5 54 15s16 29 16 57v403h-74v20h74c0 50.667 5.66699 93 17 127s29.666 62.333 54.999 85
c22.667 19.333 48.334 33.166 77.001 41.499s57 12.5 85 12.5c21.333 0 42.666 -1.16699 63.999 -3.5s45.333 -3.5 72 -3.5c13.333 0 29.333 0.833008 48 2.5s35.667 3.83398 51 6.50098zM889 517l0.00195312 -19.999c-20.667 -4 -41.334 -12.667 -62.001 -26
s-41.334 -30.333 -62.001 -51l-78 -80l10 19l171 -286c8 -12 15.833 -22.667 23.5 -32s17.167 -16 28.5 -20v-21c-10 0.666992 -25 1.5 -45 2.5s-40 1.5 -60 1.5c-24 0 -48.5 -0.5 -73.5 -1.5s-43.5 -1.83301 -55.5 -2.5v21c13.333 0 22.333 3.16699 27 9.5s4 14.5 -2 24.5
l-99 179c-8 12.667 -15.833 20.834 -23.5 24.501s-17.834 5.83398 -30.501 6.50098v19c14.667 1.33301 27 3.66602 37 6.99902s19.333 9.66602 28 18.999l76 74c22.667 21.333 34 40.333 34 57s-7.16699 30 -21.5 40s-33.166 15.333 -56.499 16v20
c18.667 -0.666992 39 -1.33398 61 -2.00098s40.667 -1 56 -1c13.333 0 27.5 0.166992 42.5 0.5l43 1c13.667 0.333008 24.167 0.833008 31.5 1.5z" />
    <glyph glyph-name="longs_t.liga" unicode="&#x17f;t" horiz-adv-x="693" 
d="M24 0v21.002c25.333 0 43.333 5 54 15s16 29 16 57v403h-74v20h74c0 56.667 12.667 104.667 38 144s60 69.333 104 90s93.667 31 149 31c41.333 0 75.5 -5.33301 102.5 -16s47.167 -23.667 60.5 -39s20 -30.333 20 -45l-24 -24c4 21.333 -1.33301 39.666 -16 54.999
s-34 27.166 -58 35.499s-49 12.5 -75 12.5c-49.333 0 -87.833 -16.167 -115.5 -48.5s-41.5 -87.5 -41.5 -165.5v-433c0 -36 7.66699 -60.333 23 -73s41 -19 77 -19v-21c-16 0.666992 -39.833 1.5 -71.5 2.5s-63.167 1.5 -94.5 1.5c-28.667 0 -57 -0.5 -85 -1.5
s-49 -1.83301 -63 -2.5zM568 681.002l0.000976562 -164.002h118v-20h-118v-404c0 -20 3.66699 -34.167 11 -42.5s18.333 -12.5 33 -12.5c12 0 24 4.5 36 13.5s22.667 24.5 32 46.5l17 -9c-10.667 -30 -26.834 -54.667 -48.501 -74s-51.167 -29 -88.5 -29
c-22 0 -41.333 2.83301 -58 8.5s-30.667 14.167 -42 25.5c-14.667 14.667 -24.334 32.834 -29.001 54.501s-7 49.834 -7 84.501v338h-84v20h84v132c28 0 53.833 2.5 77.5 7.5s45.834 13.167 66.501 24.5z" />
    <glyph glyph-name="longs_h.liga" unicode="&#x17f;h" horiz-adv-x="945" 
d="M563 784l-0.000976562 -345.998c16.667 34.667 39.334 58.834 68.001 72.501s60.334 20.5 95.001 20.5c28.667 0 51.667 -3.5 69 -10.5s31.333 -16.5 42 -28.5c10.667 -12.667 18.5 -29 23.5 -49s7.5 -47 7.5 -81v-269c0 -28 4.83301 -47 14.5 -57s26.167 -15 49.5 -15
v-21c-12.667 0.666992 -31.667 1.5 -57 2.5s-50.333 1.5 -75 1.5c-25.333 0 -50.333 -0.5 -75 -1.5s-43 -1.83301 -55 -2.5v21c20 0 34 5 42 15s12 29 12 57v311c0 16.667 -1.66699 31.167 -5 43.5s-9.5 22 -18.5 29s-21.833 10.5 -38.5 10.5
c-18 0 -34.5 -4.83301 -49.5 -14.5s-27 -23.167 -36 -40.5s-13.5 -37.333 -13.5 -60v-279c0 -28 4.16699 -47 12.5 -57s22.166 -15 41.499 -15v-21c-12 0.666992 -29.5 1.5 -52.5 2.5s-46.833 1.5 -71.5 1.5c-25.333 0 -51.333 -0.5 -78 -1.5s-46.667 -1.83301 -60 -2.5v21
c23.333 0 39.833 5 49.5 15s14.5 29 14.5 57v583c0 17.333 -1.66699 31 -5 41s-8 18 -14 24c-6.66699 7.33301 -15.167 13 -25.5 17s-20.833 6 -31.5 6c-18 0 -32.667 -2.83301 -44 -8.5s-21.666 -13.834 -30.999 -24.501c-8.66699 -10.667 -15.167 -23.334 -19.5 -38.001
s-7.16602 -32.167 -8.49902 -52.5s-2 -44.5 -2 -72.5v-475c0 -28.667 7 -47.834 21 -57.501s33.667 -14.5 59 -14.5v-21c-15.333 0.666992 -36.833 1.5 -64.5 2.5s-55.834 1.5 -84.501 1.5c-29.333 0 -57.333 -0.5 -84 -1.5s-47 -1.83301 -61 -2.5v21
c25.333 0 43.333 5 54 15s16 29 16 57v403h-74v20h74c0 50.667 5.66699 93 17 127s29.666 62.333 54.999 85c22.667 19.333 48.334 33.166 77.001 41.499s57 12.5 85 12.5c21.333 0 42.666 -1.16699 63.999 -3.5s45.333 -3.5 72 -3.5c13.333 0 29.333 0.833008 48 2.5
s35.667 3.83398 51 6.50098z" />
    <glyph glyph-name="longs_i.liga" unicode="&#x17f;i" horiz-adv-x="647" 
d="M379 782c28 0 51.833 -1.5 71.5 -4.5s36.5 -7.16699 50.5 -12.5s26.667 -11.666 38 -18.999c11.333 -6.66699 21 -16 29 -28s12 -25.333 12 -40c0 -23.333 -8 -42 -24 -56s-39.333 -21 -70 -21c-29.333 0 -52.333 6.83301 -69 20.5s-25 32.167 -25 55.5
c0 17.333 5.83301 32.5 17.5 45.5s27.834 22.5 48.501 28.5c-6.66699 4 -15.834 7.16699 -27.501 9.5s-24.167 3.5 -37.5 3.5c-30.667 0 -56.5 -6.66699 -77.5 -20s-37.833 -31.333 -50.5 -54c-9.33301 -16.667 -16.166 -37.667 -20.499 -63s-6.5 -62.333 -6.5 -111v-423
c0 -28.667 7 -47.834 21 -57.501s33.667 -14.5 59 -14.5v-21c-15.333 0.666992 -36.833 1.5 -64.5 2.5s-55.834 1.5 -84.501 1.5c-29.333 0 -57.333 -0.5 -84 -1.5s-47 -1.83301 -61 -2.5v21c25.333 0 43.333 5 54 15s16 29 16 57v403h-74v20h74c0 42 6.66699 79.5 20 112.5
s33 61.833 59 86.5c24 22 54.167 38.667 90.5 50s74.833 17 115.5 17zM564 528v-435c0 -28 4.83301 -47 14.5 -57s26.167 -15 49.5 -15v-21c-12.667 0.666992 -31.5 1.5 -56.5 2.5s-50.5 1.5 -76.5 1.5s-52.333 -0.5 -79 -1.5s-46.667 -1.83301 -60 -2.5v21
c23.333 0 39.833 5 49.5 15s14.5 29 14.5 57v315c0 30 -4.5 52.167 -13.5 66.5s-25.833 21.5 -50.5 21.5v21c21.333 -2 42 -3 62 -3c28 0 54.167 1.16699 78.5 3.5s46.833 5.83301 67.5 10.5z" />
    <glyph glyph-name="longs_l.liga" unicode="&#x17f;l" horiz-adv-x="661" 
d="M571 784v-690.998c0 -28 5.33301 -47 16 -57s28.667 -15 54 -15v-21c-13.333 0.666992 -33.166 1.5 -59.499 2.5s-52.833 1.5 -79.5 1.5c-26 0 -52.333 -0.5 -79 -1.5s-46.667 -1.83301 -60 -2.5v21c23.333 0 39.833 5 49.5 15s14.5 29 14.5 57v583
c0 17.333 -1.66699 31 -5 41s-8 18 -14 24c-6.66699 7.33301 -15.667 13 -27 17s-22.666 6 -33.999 6c-18.667 0 -34.167 -3 -46.5 -9s-22.833 -14.333 -31.5 -25c-14 -15.333 -22.667 -35.333 -26 -60s-5 -57.667 -5 -99v-478c0 -28.667 7 -47.834 21 -57.501
s33.667 -14.5 59 -14.5v-21c-15.333 0.666992 -36.833 1.5 -64.5 2.5s-55.834 1.5 -84.501 1.5c-29.333 0 -57.333 -0.5 -84 -1.5s-47 -1.83301 -61 -2.5v21c25.333 0 43.333 5 54 15s16 29 16 57v403h-74v20h74c0 50.667 5.66699 93 17 127s29.666 62.333 54.999 85
c23.333 19.333 49.5 33.166 78.5 41.499s57.833 12.5 86.5 12.5c22 0 44 -1.33301 66 -4s46 -4 72 -4c14 0 30.5 1 49.5 3s36.5 4.33301 52.5 7z" />
    <glyph glyph-name="longs_longs.liga" unicode="&#x17f;&#x17f;" horiz-adv-x="682" 
d="M321 742c36.667 0 69.3311 -8.33301 97.998 -25s48 -41 58 -73l-18 -9c-7.33301 24.667 -21.833 45 -43.5 61s-47.834 24 -78.501 24c-34 0 -59 -10.5 -75 -31.5s-24 -54.5 -24 -100.5v-495c0 -28 4.83301 -47 14.5 -57s26.167 -15 49.5 -15v-21
c-13.333 0.666992 -32.166 1.5 -56.499 2.5s-49.5 1.5 -75.5 1.5c-27.333 0 -55 -0.5 -83 -1.5s-49 -1.83301 -63 -2.5v21c25.333 0 43.333 5 54 15s16 29 16 57v403h-74v20h74c0 36 5.5 68.5 16.5 97.5s26.833 53.167 47.5 72.5c18.667 16.667 41.834 30.167 69.501 40.5
s58.834 15.5 93.501 15.5zM354.997 0l0.00195312 21.002c23.333 0 39.833 5 49.5 15s14.5 29 14.5 57v403h-68v20h68c0 39.333 2 72.166 6 98.499s10.5 48.833 19.5 67.5s21.5 35.334 37.5 50.001c14 14 33.167 25.833 57.5 35.5s50.833 14.5 79.5 14.5
c23.333 0 43.666 -3 60.999 -9s32.333 -14 45 -24c10 -7.33301 18.333 -17.5 25 -30.5s10 -27.833 10 -44.5c0 -18 -6.66699 -34 -20 -48s-30.333 -21 -51 -21c-22 0 -40.167 6.33301 -54.5 19s-21.5 30 -21.5 52c0 17.333 5 32.666 15 45.999s24.333 22.666 43 27.999
c-2 4 -6 7.33301 -12 10s-14 4 -24 4c-12.667 0 -23.334 -2.33301 -32.001 -7s-16 -11 -22 -19c-6.66699 -10 -11.334 -24.5 -14.001 -43.5s-4 -48.167 -4 -87.5v-504c0 -32.667 8.33301 -54.5 25 -65.5s39.667 -16.5 69 -16.5v-21
c-17.333 0.666992 -41.666 1.5 -72.999 2.5s-64.333 1.5 -99 1.5c-25.333 0 -50.333 -0.5 -75 -1.5s-43 -1.83301 -55 -2.5z" />
    <glyph glyph-name="longs_longs_h.liga" unicode="&#x17f;&#x17f;h" horiz-adv-x="1281" 
d="M900 784v-346c16 34.667 38.333 58.834 67 72.501s60.667 20.5 96 20.5c28.667 0 51.667 -3.5 69 -10.5s31 -16.5 41 -28.5c11.333 -12.667 19.5 -29 24.5 -49s7.5 -47 7.5 -81v-269c0 -28 4.83301 -47 14.5 -57s26.167 -15 49.5 -15v-21
c-12.667 0.666992 -31.834 1.5 -57.501 2.5s-50.5 1.5 -74.5 1.5c-26 0 -51.167 -0.5 -75.5 -1.5s-42.5 -1.83301 -54.5 -2.5v21c20 0 34 5 42 15s12 29 12 57v311c0 16.667 -1.66699 31.167 -5 43.5s-9.5 22 -18.5 29s-21.833 10.5 -38.5 10.5
c-18 0 -34.5 -4.83301 -49.5 -14.5s-27 -23.167 -36 -40.5s-13.5 -37.333 -13.5 -60v-279c0 -28 4 -47 12 -57s22 -15 42 -15v-21c-12 0.666992 -29.667 1.5 -53 2.5s-47 1.5 -71 1.5c-26 0 -52.167 -0.5 -78.5 -1.5s-46.166 -1.83301 -59.499 -2.5v21
c23.333 0 39.833 5 49.5 15s14.5 29 14.5 57v583c0 17.333 -1.83301 31 -5.5 41s-8.5 18 -14.5 24c-6 7.33301 -14.167 13 -24.5 17s-21.166 6 -32.499 6c-17.333 0 -31.833 -2.83301 -43.5 -8.5s-21.834 -13.834 -30.501 -24.501
c-13.333 -15.333 -21.666 -35.166 -24.999 -59.499s-5 -55.833 -5 -94.5v-484c0 -28.667 7 -47.834 21 -57.501s33.667 -14.5 59 -14.5v-21c-15.333 0.666992 -36.833 1.5 -64.5 2.5s-55.834 1.5 -84.501 1.5c-30 0 -58.333 -0.5 -85 -1.5s-46.667 -1.83301 -60 -2.5v21
c25.333 0 43.333 5 54 15s16 29 16 57v403h-74v20h74c0 50.667 5.5 93 16.5 127s29.5 62.333 55.5 85c22.667 19.333 48.167 33.166 76.5 41.499s56.833 12.5 85.5 12.5c20.667 0 41.667 -1.16699 63 -3.5s45.333 -3.5 72 -3.5c14 0 30.167 0.833008 48.5 2.5
s35.5 3.83398 51.5 6.50098zM337 748c40.667 0 74.501 -6.66895 101.501 -20.002s50.167 -31.333 69.5 -54l-14 -14c-12.667 16.667 -30.834 31.834 -54.501 45.501s-52.5 20.5 -86.5 20.5c-38 0 -66.667 -11.167 -86 -33.5s-29 -59.166 -29 -110.499v-489
c0 -28 4.83301 -47 14.5 -57s26.167 -15 49.5 -15v-21c-13.333 0.666992 -32.166 1.5 -56.499 2.5s-49.5 1.5 -75.5 1.5c-27.333 0 -55 -0.5 -83 -1.5s-49 -1.83301 -63 -2.5v21c25.333 0 43.333 5 54 15s16 29 16 57v403h-74v20h74c0 36 5.66699 68.5 17 97.5
s27.666 53.167 48.999 72.5c20.667 20.667 46.167 36.167 76.5 46.5s63.833 15.5 100.5 15.5z" />
    <glyph glyph-name="longs_longs_i.liga" unicode="&#x17f;&#x17f;i" horiz-adv-x="984" 
d="M361 0v21c25.333 0 43.333 5 54 15s16 29 16 57v403h-74v20h74c0 42 6.5 79.5 19.5 112.5s32.833 61.833 59.5 86.5c23.333 22 53.333 38.667 90 50s75.334 17 116.001 17c28 0 51.667 -1.5 71 -4.5s36.166 -7.16699 50.499 -12.5s27.166 -11.666 38.499 -18.999
c10.667 -6.66699 20 -16 28 -28s12 -25.333 12 -40c0 -23.333 -8 -42 -24 -56s-39.333 -21 -70 -21c-29.333 0 -52.333 6.83301 -69 20.5s-25 32.167 -25 55.5c0 17.333 5.83301 32.5 17.5 45.5s27.834 22.5 48.501 28.5c-6 4 -15 7.16699 -27 9.5s-24.333 3.5 -37 3.5
c-31.333 0 -57.5 -6.66699 -78.5 -20s-37.5 -31.333 -49.5 -54c-9.33301 -16.667 -16.166 -37.667 -20.499 -63s-6.5 -62.333 -6.5 -111v-423c0 -28.667 7 -47.834 21 -57.501s33.667 -14.5 59 -14.5v-21c-15.333 0.666992 -36.833 1.5 -64.5 2.5s-55.834 1.5 -84.501 1.5
c-30 0 -58.333 -0.5 -85 -1.5s-46.667 -1.83301 -60 -2.5zM24 0l0.000976562 20.998c25.333 0 43.333 5 54 15s16 29 16 57v403h-74v20h74c0 36 5.66699 68.5 17 97.5s27.666 53.167 48.999 72.5c20.667 20.667 46.167 36.167 76.5 46.5s63.833 15.5 100.5 15.5
c40.667 0 74.5 -6.66699 101.5 -20s50.167 -31.333 69.5 -54l-14 -14c-12.667 16.667 -30.834 31.834 -54.501 45.501s-52.5 20.5 -86.5 20.5c-38 0 -66.667 -11.167 -86 -33.5s-29 -59.166 -29 -110.499v-489c0 -28 4.83301 -47 14.5 -57s26.167 -15 49.5 -15v-21
c-13.333 0.666992 -32.166 1.5 -56.499 2.5s-49.5 1.5 -75.5 1.5c-27.333 0 -55 -0.5 -83 -1.5s-49 -1.83301 -63 -2.5zM901.001 527.998l-0.00195312 -435c0 -28 4.83301 -47 14.5 -57s26.167 -15 49.5 -15v-21c-12.667 0.666992 -31.667 1.5 -57 2.5s-51 1.5 -77 1.5
s-52.167 -0.5 -78.5 -1.5s-46.166 -1.83301 -59.499 -2.5v21c23.333 0 39.833 5 49.5 15s14.5 29 14.5 57v315c0 30 -4.5 52.167 -13.5 66.5s-25.833 21.5 -50.5 21.5v21c21.333 -2 42 -3 62 -3c27.333 0 53.333 1.16699 78 3.5s47.334 5.83301 68.001 10.5z" />
    <glyph glyph-name="longs_longs_l.liga" unicode="&#x17f;&#x17f;l" horiz-adv-x="997" 
d="M908 784l-0.00195312 -690.998c0 -28 5.33301 -47 16 -57s28.667 -15 54 -15v-21c-13.333 0.666992 -33.166 1.5 -59.499 2.5s-52.833 1.5 -79.5 1.5s-53.167 -0.5 -79.5 -1.5s-46.166 -1.83301 -59.499 -2.5v21c23.333 0 39.833 5 49.5 15s14.5 29 14.5 57v583
c0 17.333 -1.66699 31 -5 41s-8.33301 18 -15 24c-6.66699 7.33301 -15.5 13 -26.5 17s-22.167 6 -33.5 6c-19.333 0 -35 -3 -47 -9s-22.667 -14.333 -32 -25c-13.333 -15.333 -21.666 -35 -24.999 -59s-5 -56.333 -5 -97v-481c0 -28.667 7 -47.834 21 -57.501
s33.667 -14.5 59 -14.5v-21c-15.333 0.666992 -36.833 1.5 -64.5 2.5s-55.834 1.5 -84.501 1.5c-30 0 -58.333 -0.5 -85 -1.5s-46.667 -1.83301 -60 -2.5v21c25.333 0 43.333 5 54 15s16 29 16 57v403h-74v20h74c0 50.667 5.5 93 16.5 127s29.5 62.333 55.5 85
c23.333 19.333 49.5 33.166 78.5 41.499s57.833 12.5 86.5 12.5c21.333 0 43.166 -1.33301 65.499 -4s45.833 -4 70.5 -4c15.333 0 32.333 1 51 3s36.334 4.33301 53.001 7zM336.998 748.002c40.667 0 74.501 -6.66895 101.501 -20.002s50.167 -31.333 69.5 -54l-14 -14
c-12.667 16.667 -30.834 31.834 -54.501 45.501s-52.5 20.5 -86.5 20.5c-38 0 -66.667 -11.167 -86 -33.5s-29 -59.166 -29 -110.499v-489c0 -28 4.83301 -47 14.5 -57s26.167 -15 49.5 -15v-21c-12.667 0.666992 -31.334 1.5 -56.001 2.5s-50 1.5 -76 1.5
c-27.333 0 -55 -0.5 -83 -1.5s-49 -1.83301 -63 -2.5v21c25.333 0 43.333 5 54 15s16 29 16 57v403h-74v20h74c0 36 5.83301 68.333 17.5 97s27.834 53 48.501 73c20.667 20.667 46.167 36.167 76.5 46.5s63.833 15.5 100.5 15.5z" />
    <glyph glyph-name="longs_longs_t.liga" unicode="&#x17f;&#x17f;t" horiz-adv-x="1029" 
d="M337 748c40.667 0 74.501 -6.66895 101.501 -20.002s50.167 -31.333 69.5 -54l-14 -14c-12.667 16.667 -30.834 31.834 -54.501 45.501s-52.5 20.5 -86.5 20.5c-38 0 -66.667 -11.167 -86 -33.5s-29 -59.166 -29 -110.499v-489c0 -28 4.83301 -47 14.5 -57
s26.167 -15 49.5 -15v-21c-13.333 0.666992 -32.166 1.5 -56.499 2.5s-49.5 1.5 -75.5 1.5c-27.333 0 -55 -0.5 -83 -1.5s-49 -1.83301 -63 -2.5v21c25.333 0 43.333 5 54 15s16 29 16 57v403h-74v20h74c0 36 5.66699 68.5 17 97.5s27.666 53.167 48.999 72.5
c20.667 20.667 46.167 36.167 76.5 46.5s63.833 15.5 100.5 15.5zM905.001 680.998l0.00195312 -164.002h118v-20h-118v-404c0 -20 3.66699 -34.167 11 -42.5s18 -12.5 32 -12.5c12.667 0 25 4.5 37 13.5s22.667 24.5 32 46.5l17 -9c-11.333 -30 -27.833 -54.667 -49.5 -74
s-50.834 -29 -87.501 -29c-22.667 0 -42.167 2.83301 -58.5 8.5s-30.166 14.167 -41.499 25.5c-14.667 14.667 -24.334 32.834 -29.001 54.501s-7 49.834 -7 84.501v338h-84v20h84v132c28 0 53.667 2.5 77 7.5s45.666 13.167 66.999 24.5zM361.003 -0.00390625v21.002
c25.333 0 43.333 5 54 15s16 29 16 57v403h-74v20h74c0 56.667 12.667 104.667 38 144s60 69.333 104 90s93.667 31 149 31c41.333 0 75.5 -5.33301 102.5 -16s47.167 -23.667 60.5 -39s20 -30.333 20 -45l-24 -24c4 21.333 -1.5 39.666 -16.5 54.999
s-34.333 27.166 -58 35.499s-48.5 12.5 -74.5 12.5c-50 0 -88.667 -16.167 -116 -48.5s-41 -87.5 -41 -165.5v-433c0 -36 7.5 -60.333 22.5 -73s40.833 -19 77.5 -19v-21c-16.667 0.666992 -40.667 1.5 -72 2.5s-63 1.5 -95 1.5c-28.667 0 -57 -0.5 -85 -1.5
s-48.667 -1.83301 -62 -2.5z" />
    <glyph glyph-name=".notdef" horiz-adv-x="562" 
d="M502 772v-772h-442v772h442zM466 742h-370v-712h370v712z" />
    <glyph glyph-name="NULL" 
 />
    <glyph glyph-name="NULL" 
 />
    <glyph glyph-name="CR" unicode="&#xd;" horiz-adv-x="233" 
 />
    <glyph glyph-name="space" unicode=" " horiz-adv-x="233" 
 />
    <glyph glyph-name="exclam" unicode="!" horiz-adv-x="288" 
d="M144 782c21.333 0 40.332 -8.5 56.999 -25.5s25 -41.167 25 -72.5c0 -28.667 -3.33301 -61 -10 -97s-14.667 -74.833 -24 -116.5s-17.666 -85.5 -24.999 -131.5s-12 -93.667 -14 -143v0h-18c-1.33301 49.333 -5.83301 97 -13.5 143s-16 89.833 -25 131.5
s-17 80.5 -24 116.5s-10.5 68.333 -10.5 97c0 31.333 7.83301 55.5 23.5 72.5s35.167 25.5 58.5 25.5zM143.999 140c26 0 46.667 -6.83301 62 -20.5s23 -32.5 23 -56.5s-7.66699 -42.833 -23 -56.5s-36 -20.5 -62 -20.5s-46.667 6.83301 -62 20.5s-23 32.5 -23 56.5
s7.66699 42.833 23 56.5s36 20.5 62 20.5z" />
    <glyph glyph-name="quotedbl" unicode="&#x22;" horiz-adv-x="369" 
d="M105 730c18 0 32.999 -5.83398 44.999 -17.501s18 -27.834 18 -48.501c0 -20 -2.83301 -38.667 -8.5 -56s-12.667 -36.666 -21 -57.999s-17.166 -48.666 -26.499 -81.999h-14c-8.66699 32 -17.5 58.667 -26.5 80s-16.167 40.833 -21.5 58.5s-8 36.5 -8 56.5
c0 20.667 6 37 18 49s27 18 45 18zM265.999 729.999c18 0 32.999 -5.83398 44.999 -17.501s18 -27.834 18 -48.501c0 -20 -2.83301 -38.667 -8.5 -56s-12.667 -36.666 -21 -57.999s-17.166 -48.666 -26.499 -81.999h-14c-8.66699 32 -17.5 58.667 -26.5 80
s-16.167 40.833 -21.5 58.5s-8 36.5 -8 56.5c0 20.667 6 37 18 49s27 18 45 18z" />
    <glyph glyph-name="numbersign" unicode="#" horiz-adv-x="620" 
d="M463 602l-97 -501h-20l97 501h20zM545 267l-4 -20h-501l4 20h501zM276 602l-97 -501h-20l97 501h20zM581 454l-3 -20h-501l3 20h501z" />
    <glyph glyph-name="dollar" unicode="$" horiz-adv-x="574" 
d="M279 721c39.333 0 69.6699 -4.16797 91.0029 -12.501s39.666 -17.166 54.999 -26.499c8 -4.66699 14.5 -8.16699 19.5 -10.5s9.83301 -3.5 14.5 -3.5c6.66699 0 11.5 3.66699 14.5 11s5.5 18.333 7.5 33h23l-2.5 -45.5c-1 -17.667 -1.66699 -40.834 -2 -69.501
s-0.5 -66.334 -0.5 -113.001h-23c-4.66699 41.333 -13.5 78.166 -26.5 110.499s-31.833 57.833 -56.5 76.5s-57.334 28 -98.001 28c-40 0 -70 -8.83301 -90 -26.5s-30 -40.167 -30 -67.5c0 -15.333 2.5 -29.5 7.5 -42.5s14.333 -26.5 28 -40.5s33.334 -30.333 59.001 -49
s58.834 -41 99.501 -67c32 -20 60.667 -40.5 86 -61.5s45.5 -44.5 60.5 -70.5s22.5 -57 22.5 -93c0 -44 -11.333 -80.333 -34 -109s-52.834 -50.167 -90.501 -64.5s-78.834 -21.5 -123.501 -21.5c-41.333 0 -73.666 4.33301 -96.999 13s-42 16.334 -56 23.001
c-8.66699 4.66699 -16.334 8.33398 -23.001 11.001s-13 4 -19 4c-6.66699 0 -11.5 -3.66699 -14.5 -11s-5.5 -18.333 -7.5 -33h-23c1.33301 16 2.16602 34.667 2.49902 56s0.666016 49.166 0.999023 83.499s0.5 77.833 0.5 130.5h23
c3.33301 -45.333 9.66602 -84.166 18.999 -116.499s22.166 -58.666 38.499 -78.999s37 -35.333 62 -45s54.833 -14.5 89.5 -14.5c31.333 0 56.833 4.16699 76.5 12.5s34.334 20.166 44.001 35.499s14.5 33.666 14.5 54.999c0 14 -2.33301 27.333 -7 40
s-13.667 25.834 -27 39.501s-32.333 29.834 -57 48.501s-57 41.667 -97 69c-31.333 20 -60.666 40.667 -87.999 62s-49.166 45.5 -65.499 72.5s-24.5 58.833 -24.5 95.5c0 42 10.5 76.5 31.5 103.5s48.667 47 83 60s70.833 19.5 109.5 19.5zM256.004 839.999v-972h-20v972
h20zM353.004 839.999v-972h-20v972h20z" />
    <glyph glyph-name="percent" unicode="%" horiz-adv-x="728" 
d="M196 761c48 0 87.001 -14.333 117.001 -43s45 -68.667 45 -120c0 -33.333 -7 -62.666 -21 -87.999s-33.167 -45 -57.5 -59s-52.166 -21 -83.499 -21c-48 0 -87.167 14.333 -117.5 43s-45.5 68.667 -45.5 120c0 33.333 7.16699 62.666 21.5 87.999s33.666 45 57.999 59
s52.166 21 83.499 21zM530.001 299c-21.333 0 -37.499 -12.666 -48.499 -37.999s-16.5 -62.333 -16.5 -111s6.16699 -85.167 18.5 -109.5s29.166 -36.5 50.499 -36.5c22 0 38.167 12.667 48.5 38s15.5 62 15.5 110c0 49.333 -6 86.166 -18 110.499s-28.667 36.5 -50 36.5z
M532.002 317.001c48 0 87.001 -14.333 117.001 -43s45 -68.667 45 -120c0 -33.333 -7 -62.666 -21 -87.999s-33.167 -45 -57.5 -59s-52.166 -21 -83.499 -21c-48 0 -87.167 14.333 -117.5 43s-45.5 68.667 -45.5 120c0 33.333 7.16699 62.666 21.5 87.999
s33.666 45 57.999 59s52.166 21 83.499 21zM194.003 743.001c-21.333 0 -37.499 -12.666 -48.499 -37.999s-16.5 -62.333 -16.5 -111s6.16699 -85.167 18.5 -109.5s29.166 -36.5 50.499 -36.5c22 0 38.167 12.667 48.5 38s15.5 62 15.5 110c0 49.333 -6 86.166 -18 110.499
s-28.667 36.5 -50 36.5zM652.004 824.002l19 -13l-585 -866l-19 13z" />
    <glyph glyph-name="ampersand" unicode="&#x26;" horiz-adv-x="898" 
d="M330 710c26 0 46.998 -1.83691 62.998 -5.50391s29.667 -8.83398 41 -15.501c10.667 -4.66699 20.5 -10.667 29.5 -18s16.5 -16.333 22.5 -27s9 -22.667 9 -36c0 -20 -7.66699 -36 -23 -48s-33.333 -18 -54 -18c-20 0 -37.167 5 -51.5 15s-21.5 25.667 -21.5 47
c0 16.667 6 31.834 18 45.501s27.333 22.167 46 25.5c-4.66699 5.33301 -13.167 9.66602 -25.5 12.999s-25.833 5 -40.5 5c-34.667 0 -64.167 -10.833 -88.5 -32.5s-36.5 -54.5 -36.5 -98.5c0 -15.333 2.66699 -31.666 8 -48.999s15.666 -35 30.999 -53
c11.333 2.66699 21.833 4.66699 31.5 6s17.834 2 24.501 2c12 0 21.167 -2.5 27.5 -7.5s9.5 -11.5 9.5 -19.5c0 -6 -2.66699 -11 -8 -15s-12 -6 -20 -6c-11.333 0 -23 3.16699 -35 9.5s-21.667 11.833 -29 16.5c-31.333 -16 -56.833 -36.5 -76.5 -61.5
s-29.5 -58.5 -29.5 -100.5c0 -44 12 -80.167 36 -108.5s57.833 -49.666 101.5 -63.999s95.167 -21.5 154.5 -21.5c33.333 0 66.333 3.66699 99 11s62.167 18.333 88.5 33s47.5 32.834 63.5 54.501s24 46.834 24 75.501c0 10.667 -1.5 24.167 -4.5 40.5
s-10.167 32.666 -21.5 48.999s-30 29.833 -56 40.5l7 9c36 -11.333 63.333 -32.666 82 -63.999s28 -67.333 28 -108c0 -46.667 -14.333 -88.5 -43 -125.5s-68.834 -66.167 -120.501 -87.5s-112.167 -32 -181.5 -32c-55.333 0 -105.5 5.66699 -150.5 17
s-83.667 27.833 -116 49.5s-57.333 47.834 -75 78.501s-26.5 65.334 -26.5 104.001c0 37.333 7.83301 69.166 23.5 95.499s34.834 48 57.501 65s45.334 30.167 68.001 39.5s40.667 15.666 54 18.999c-20.667 8.66699 -39.5 18.834 -56.5 30.501s-30.667 25.5 -41 41.5
s-15.5 34 -15.5 54c0 21.333 5.66699 40.166 17 56.499s26.5 29.833 45.5 40.5s40.333 18.834 64 24.501s47.834 8.5 72.501 8.5zM722.998 721.996c47.333 0 85.666 -12.3359 114.999 -37.0029s44 -59.334 44 -104.001c0 -34 -8.16699 -62.667 -24.5 -86
s-39.666 -42.333 -69.999 -57s-66.5 -26.334 -108.5 -35.001c-9.33301 -3.33301 -21 -7.16602 -35 -11.499s-28.333 -8.5 -43 -12.5l-42.5 -12c-13.667 -4 -25.5 -7.33301 -35.5 -10c-52 -11.333 -92 -24.166 -120 -38.499s-42 -33.833 -42 -58.5
c0 -16.667 5.5 -31 16.5 -43s24.833 -21.333 41.5 -28s33.334 -10 50.001 -10c4.66699 0 9.66699 0.5 15 1.5s10.333 2.33301 15 4s8 3.16699 10 4.5c-16.667 5.33301 -29.167 13.833 -37.5 25.5s-12.5 25.167 -12.5 40.5c0 21.333 7.66699 37.666 23 48.999
s34.333 17 57 17c24 0 42.833 -6.33301 56.5 -19s20.5 -29 20.5 -49c0 -20.667 -6.33301 -37.834 -19 -51.501s-29.667 -23.667 -51 -30s-45.333 -9.5 -72 -9.5c-26 0 -50.5 4.66699 -73.5 14s-41.333 23.5 -55 42.5s-20.5 42.833 -20.5 71.5c0 35.333 9 64.833 27 88.5
s43.833 43.334 77.5 59.001s73.5 27.834 119.5 36.501l46.5 11.5l52.5 13.5c18 4.66699 34.667 9.66699 50 15c48 12 85.167 25.333 111.5 40s39.5 34.334 39.5 59.001c0 18 -5.5 33.833 -16.5 47.5s-25.167 24.334 -42.5 32.001s-35.333 11.5 -54 11.5
c-6 0 -11.5 -0.333008 -16.5 -1s-9.16699 -2 -12.5 -4c16.667 -6 29 -15 37 -27s12 -24 12 -36c0 -20.667 -7.66699 -36.5 -23 -47.5s-34.333 -16.5 -57 -16.5s-41.334 5.83301 -56.001 17.5s-22 27.834 -22 48.501c0 18 5.16699 33.167 15.5 45.5s24.833 21.833 43.5 28.5
s40.667 10 66 10z" />
    <glyph glyph-name="quotesingle" unicode="'" horiz-adv-x="209" 
d="M105 730c18 0 32.999 -5.83398 44.999 -17.501s18 -27.834 18 -48.501c0 -20 -2.83301 -38.667 -8.5 -56s-12.667 -36.666 -21 -57.999s-17.166 -48.666 -26.499 -81.999h-14c-8.66699 32 -17.5 58.667 -26.5 80s-16.167 40.833 -21.5 58.5s-8 36.5 -8 56.5
c0 20.667 6 37 18 49s27 18 45 18z" />
    <glyph glyph-name="parenleft" unicode="(" horiz-adv-x="318" 
d="M285 806l15 -12.0029c-44.667 -69.333 -77 -142.666 -97 -219.999s-30 -164.666 -30 -261.999c0 -96.667 10 -183.334 30 -260.001s52.333 -150.667 97 -222l-15 -12c-79.333 58.667 -140.833 128.334 -184.5 209.001s-65.5 175.667 -65.5 285s21.833 204.333 65.5 285
s105.167 150.334 184.5 209.001z" />
    <glyph glyph-name="parenright" unicode=")" horiz-adv-x="318" 
d="M33 806c79.333 -58.667 140.833 -128.331 184.5 -208.998s65.5 -175.667 65.5 -285s-21.833 -204.333 -65.5 -285s-105.167 -150.334 -184.5 -209.001l-15 12c45.333 71.333 77.833 145.333 97.5 222s29.5 163.334 29.5 260.001c0 97.333 -10 184.666 -30 261.999
s-52.333 150.666 -97 219.999z" />
    <glyph glyph-name="asterisk" unicode="*" horiz-adv-x="481" 
d="M352 639c17.333 10 32.002 12.502 44.002 7.50195s21 -12.5 27 -22.5c6 -10.667 8.16699 -22.334 6.5 -35.001s-11.167 -24 -28.5 -34c-16.667 -9.33301 -37.834 -15.833 -63.501 -19.5s-57.834 -9.83398 -96.501 -18.501l-1 3c24.667 28 45.5 52.5 62.5 73.5
s33.5 36.167 49.5 45.5zM242.002 520.002c36 -8 67.5 -13.9971 94.5 -17.9971s48.5 -10.667 64.5 -20c17.333 -10 27 -21.5 29 -34.5s-0.333008 -24.5 -7 -34.5c-5.33301 -10.667 -14 -18.334 -26 -23.001s-26.667 -2 -44 8c-16.667 9.33301 -33 24.166 -49 44.499
s-37.333 45.166 -64 74.499zM243.002 518.005c11.333 -35.333 22.001 -65.5 32.001 -90.5s15 -47.167 15 -66.5c0 -20 -5.33301 -34 -16 -42s-21.667 -12 -33 -12c-12.667 0 -23.834 4 -33.501 12s-14.5 22 -14.5 42c0 19.333 4.66699 41 14 65s20.333 54.333 33 91z
M240.003 518.005l1.99902 -2.00293c-25.333 -27.333 -46.333 -51.666 -63 -72.999s-33 -36.666 -49 -45.999c-17.333 -10 -32.166 -12.5 -44.499 -7.5s-21.5 12.5 -27.5 22.5c-6 10.667 -8 22.334 -6 35.001s11.667 24 29 34c16.667 9.33301 37.667 16 63 20
s57.333 9.66699 96 17zM129.002 638.002c16.667 -9.33301 33.002 -24.1689 49.002 -44.502s37 -45.166 63 -74.499l-1 -3c-36.667 8 -68.334 14 -95.001 18s-48.334 10.667 -65.001 20c-16.667 10 -26 21.5 -28 34.5s0 24.5 6 34.5c6 10.667 15 18.334 27 23.001
s26.667 2 44 -8zM241.004 728.999c12 0 23 -4 33 -12s15 -22 15 -42c0 -18.667 -4.83301 -40.167 -14.5 -64.5s-20.5 -55.166 -32.5 -92.499h-3c-12 35.333 -22.833 65.666 -32.5 90.999s-14.5 47.333 -14.5 66c0 20 5.16699 34 15.5 42s21.5 12 33.5 12z" />
    <glyph glyph-name="plus" unicode="+" horiz-adv-x="574" 
d="M305 606v-236h232v-30h-232v-235h-36v235h-233v30h233v236h36z" />
    <glyph glyph-name="comma" unicode="," horiz-adv-x="271" 
d="M131 140c16.667 0 30.998 -3.00293 42.998 -9.00293s21.333 -14.667 28 -26c7.33301 -9.33301 12.833 -21.666 16.5 -36.999s5.5 -30.666 5.5 -45.999c0 -33.333 -8.5 -64.166 -25.5 -92.499s-43.5 -50.833 -79.5 -67.5l-9 18c18.667 8 35.334 20.333 50.001 37
s23.334 33.667 26.001 51c3.33301 14.667 3.33301 28.667 0 42c-14.667 -16 -34 -24 -58 -24c-23.333 0 -42.333 6.83301 -57 20.5s-22 32.5 -22 56.5c0 23.333 7.83301 42 23.5 56s35.167 21 58.5 21z" />
    <glyph glyph-name="hyphen" unicode="-" horiz-adv-x="481" 
d="M421 312v-83h-361v83h361z" />
    <glyph glyph-name="period" unicode="." horiz-adv-x="270" 
d="M135 140c26 0 46.667 -6.83301 62 -20.5s23 -32.5 23 -56.5s-7.66699 -42.833 -23 -56.5s-36 -20.5 -62 -20.5s-46.667 6.83301 -62 20.5s-23 32.5 -23 56.5s7.66699 42.833 23 56.5s36 20.5 62 20.5z" />
    <glyph glyph-name="slash" unicode="/" horiz-adv-x="368" 
d="M337 722l-272 -736h-33l272 736h33z" />
    <glyph glyph-name="zero" unicode="0" horiz-adv-x="645" 
d="M328 531c53.333 0 100.332 -10.833 140.999 -32.5s72.667 -52.334 96 -92.001s35 -86.167 35 -139.5s-11.833 -101.166 -35.5 -143.499s-56.667 -75.833 -99 -100.5s-91.833 -37 -148.5 -37c-52 0 -98.5 11 -139.5 33s-73.333 52.833 -97 92.5s-35.5 86.167 -35.5 139.5
c0 52.667 11.667 100.167 35 142.5s56.333 75.833 99 100.5s92.334 37 149.001 37zM318.999 513c-36 0 -65.5 -22.832 -88.5 -68.499s-34.5 -109.167 -34.5 -190.5c0 -60 6 -108.333 18 -145s27.833 -63.334 47.5 -80.001s41.167 -25 64.5 -25c36 0 65.5 23 88.5 69
s34.5 109.667 34.5 191c0 60 -6 108.333 -18 145s-27.833 63.167 -47.5 79.5s-41.167 24.5 -64.5 24.5z" />
    <glyph glyph-name="one" unicode="1" horiz-adv-x="383" 
d="M282 528l-0.000976562 -430.999c0 -29.333 5.5 -49.333 16.5 -60s29.5 -16 55.5 -16v-21c-13.333 0.666992 -32.833 1.5 -58.5 2.5s-52.167 1.5 -79.5 1.5c-34 0 -66.833 -0.5 -98.5 -1.5s-56.167 -1.83301 -73.5 -2.5v21c30 0 53.167 5.5 69.5 16.5
s24.5 32.833 24.5 65.5v244c0 32 -2.66699 55.667 -8 71s-15.333 25.333 -30 30s-34.667 7 -60 7v22c57.333 1.33301 104.833 5.66602 142.5 12.999s70.834 20 99.501 38z" />
    <glyph glyph-name="two" unicode="2" horiz-adv-x="523" 
d="M275 531c51.333 0 92.0029 -10.998 122.003 -32.998s45 -53.333 45 -94c0 -26 -6.5 -49.667 -19.5 -71s-30.167 -41.5 -51.5 -60.5s-44.166 -36.833 -68.499 -53.5l-70.5 -49.5c-22.667 -16.333 -42 -33.166 -58 -50.499h216c27.333 0 44.666 3.33301 51.999 10
s12.333 18.334 15 35.001h21c0 -44.667 0.333008 -79.334 1 -104.001s1.66699 -46.334 3 -65.001c-6 1.33301 -17 2.33301 -33 3s-34.333 1.16699 -55 1.5s-41 0.5 -61 0.5h-291v19c18.667 20 41.667 42 69 66s54.166 50.667 80.499 80s48.5 61.166 66.5 95.499
s27 71.166 27 110.499c0 36 -8 62 -24 78s-39 24 -69 24c-28.667 0 -53.834 -6.5 -75.501 -19.5s-41.167 -32.167 -58.5 -57.5l-17 10c13.333 22.667 30.166 43.5 50.499 62.5s45.5 34.167 75.5 45.5s66 17 108 17z" />
    <glyph glyph-name="three" unicode="3" horiz-adv-x="488" 
d="M246 531c32.667 0 61.999 -4.50098 87.999 -13.501s46.333 -22 61 -39s22 -37.833 22 -62.5c0 -25.333 -8.16699 -49 -24.5 -71s-39.666 -41.167 -69.999 -57.5s-66.5 -28.5 -108.5 -36.5c45.333 2 86 -2.66699 122 -14s64.5 -28.5 85.5 -51.5s31.5 -51.833 31.5 -86.5
c0 -30.667 -8.16699 -59 -24.5 -85s-38.833 -49.167 -67.5 -69.5s-61.167 -37.666 -97.5 -51.999s-74.5 -25.166 -114.5 -32.499s-80 -11 -120 -11v20c31.333 0.666992 63.166 6.16699 95.499 16.5s62 25 89 44s48.833 42.667 65.5 71s25 60.833 25 97.5
c0 39.333 -9.33301 71.666 -28 96.999s-44.334 39.333 -77.001 42c-10 -4.66699 -19 -8.5 -27 -11.5s-16 -4.5 -24 -4.5c-6 0 -10.667 1 -14 3s-5 5.66699 -5 11c0 8 3.33301 13.667 10 17s14 5 22 5c5.33301 0 10.833 -0.5 16.5 -1.5s11.834 -1.83301 18.501 -2.5
c28.667 20 48.667 41.5 60 64.5s17 46.167 17 69.5c0 30 -7.83301 52.167 -23.5 66.5s-37.5 21.5 -65.5 21.5c-26 0 -50.333 -6.5 -73 -19.5s-41.667 -32.5 -57 -58.5l-18 9c12 22 27 42.5 45 61.5s40.333 34.333 67 46s59.334 17.5 98.001 17.5z" />
    <glyph glyph-name="four" unicode="4" horiz-adv-x="528" 
d="M381 531l4.00195 -26.001l-312 -400l14 34h318c27.333 0 44.666 3.33301 51.999 10s12.333 18.334 15 35.001h21c0 -40 0.333008 -71.167 1 -93.5s1.66699 -42.166 3 -59.499c-4.66699 1.33301 -13.334 2.16602 -26.001 2.49902s-27.667 0.833008 -45 1.5
s-34.833 1 -52.5 1h-49.5h-316v21zM397.002 530.999v-672h-116v531l100 141h16z" />
    <glyph glyph-name="five" unicode="5" horiz-adv-x="459" 
d="M385 555c0 -44 0.332031 -78.167 0.999023 -102.5s1.66699 -46.166 3 -65.499c-5.33301 1.33301 -15.5 2.33301 -30.5 3s-32.167 1.16699 -51.5 1.5s-38.333 0.5 -57 0.5h-154l-16 -171c16 11.333 36.5 20.833 61.5 28.5s54.833 11.5 89.5 11.5
c44.667 0 81.334 -7 110.001 -21s50 -33 64 -57s21 -50.667 21 -80c0 -38.667 -11.5 -73.334 -34.5 -104.001s-53.833 -57 -92.5 -79s-81.334 -38.833 -128.001 -50.5s-93.667 -17.5 -141 -17.5v18c30.667 0 60.834 5 90.501 15s56.167 24.667 79.5 44s42 43 56 71
s21 60.333 21 97c0 41.333 -9.66699 73.333 -29 96s-48 34 -86 34c-19.333 0 -35.833 -2.5 -49.5 -7.5s-27.167 -12.167 -40.5 -21.5l-14 9l32 313c7.33301 -1.33301 15.833 -2.33301 25.5 -3s19.167 -1 28.5 -1h165c19.333 0 32.833 3 40.5 9s12.5 16 14.5 30h21z" />
    <glyph glyph-name="six" unicode="6" horiz-adv-x="561" 
d="M446 723l4.00488 -20c-24 -8 -48 -17.667 -72 -29s-46.833 -27 -68.5 -47s-40.834 -45.5 -57.501 -76.5s-29.834 -69.833 -39.501 -116.5s-14.5 -103 -14.5 -169s4.83301 -117.833 14.5 -155.5s21.834 -64.334 36.501 -80.001s29 -23.5 43 -23.5
c15.333 0 29.666 7 42.999 21s24.166 36.333 32.499 67s12.5 71 12.5 121c0 48 -3.83301 86.333 -11.5 115s-17.834 49.334 -30.501 62.001s-27 19 -43 19c-11.333 0 -24 -3.33301 -38 -10s-27 -17.334 -39 -32.001s-20.667 -35.334 -26 -62.001l-9 4
c4 32 13.833 57.5 29.5 76.5s34.5 32.5 56.5 40.5s44 12 66 12c36 0 68.667 -8.66699 98 -26s53 -42 71 -74s27 -70.667 27 -116c0 -51.333 -11.333 -94.666 -34 -129.999s-53 -62.166 -91 -80.499s-79.333 -27.5 -124 -27.5c-73.333 0 -130.833 24.833 -172.5 74.5
s-62.5 119.834 -62.5 210.501c0 60 8.66699 113.333 26 160s40.333 87.167 69 121.5s60.5 63.166 95.5 86.499s70.667 41.833 107 55.5s70.166 23.167 101.499 28.5z" />
    <glyph glyph-name="seven" unicode="7" horiz-adv-x="455" 
d="M23 521c6 -1.33301 17.002 -2.33496 33.002 -3.00195s34.333 -1.16699 55 -1.5s41 -0.5 61 -0.5h282v-21c-12.667 -30 -28.834 -62.167 -48.501 -96.5s-39.334 -71.666 -59.001 -111.999s-36 -83.666 -49 -129.999s-19.5 -96.5 -19.5 -150.5c0 -4 0.5 -11.333 1.5 -22
s1.83301 -21.5 2.5 -32.5s1 -19.833 1 -26.5c0 -18.667 -6 -35.5 -18 -50.5s-30.333 -22.5 -55 -22.5s-43 8.33301 -55 25s-18 37.667 -18 63c0 36.667 6.66699 73 20 109s30.666 71.5 51.999 106.5s44.333 69.167 69 102.5l72.5 96c23.667 30.667 44.167 59.667 61.5 87
l-23 -46h-274c-27.333 0 -44.666 -3.33301 -51.999 -10s-12.333 -18.334 -15 -35.001h-21c0 44 -0.333008 78.833 -1 104.5s-1.66699 47.834 -3 66.501z" />
    <glyph glyph-name="eight" unicode="8" horiz-adv-x="561" 
d="M288 722c38 0 71.8311 -5.83008 101.498 -17.4971s52.834 -27.834 69.501 -48.501s25 -45.334 25 -74.001c0 -36 -13.167 -67.167 -39.5 -93.5s-62.833 -51.166 -109.5 -74.499l-8 14c10.667 13.333 19 28.333 25 45s10.167 34 12.5 52s3.5 34.333 3.5 49
c0 40.667 -7.83301 72.5 -23.5 95.5s-37.167 34.5 -64.5 34.5c-22.667 0 -40.334 -7.66699 -53.001 -23s-19 -35.333 -19 -60c0 -28.667 7.5 -55.334 22.5 -80.001s34.333 -48 58 -70s48.834 -44 75.501 -66s51.834 -44.667 75.501 -68s43 -48.166 58 -74.499
s22.5 -55.5 22.5 -87.5c0 -37.333 -10.667 -70 -32 -98s-50.333 -50.167 -87 -66.5s-78.667 -24.5 -126 -24.5c-41.333 0 -79.666 6.33301 -114.999 19s-63.666 31.834 -84.999 57.501s-32 57.167 -32 94.5c0 32 7.66699 60.5 23 85.5s36.166 46.833 62.499 65.5
s55.833 34.667 88.5 48l8 -14c-22 -22 -37.167 -47.667 -45.5 -77s-12.5 -59.333 -12.5 -90s3.5 -59 10.5 -85s18.833 -46.833 35.5 -62.5s39 -23.5 67 -23.5c32 0 56.833 10 74.5 30s26.5 46 26.5 78c0 30.667 -7.33301 58.5 -22 83.5s-33.5 48.667 -56.5 71
s-47.667 44.166 -74 65.499s-51 43.166 -74 65.499s-41.833 46.666 -56.5 72.999s-22 55.833 -22 88.5c0 36.667 9.83301 67 29.5 91s45.667 42 78 54s67.166 18 104.499 18z" />
    <glyph glyph-name="nine" unicode="9" horiz-adv-x="553" 
d="M278 531c72.667 0 129.995 -23.9961 171.995 -71.9961s63 -116 63 -204c0 -53.333 -8.5 -101.166 -25.5 -143.499s-39.667 -79 -68 -110s-59.666 -57 -93.999 -78s-69.333 -37.667 -105 -50s-69.167 -20.833 -100.5 -25.5l-4 20c29.333 8.66699 58.5 20.334 87.5 35.001
s55.333 35.834 79 63.501s42.834 65.167 57.501 112.5s22 107.666 22 180.999c0 64.667 -4.83301 115.167 -14.5 151.5s-21.667 62 -36 77s-29.166 22.5 -44.499 22.5c-14.667 0 -28.667 -6.83301 -42 -20.5s-24.166 -35.834 -32.499 -66.501s-12.5 -71.334 -12.5 -122.001
c0 -47.333 3.83301 -85.5 11.5 -114.5s18 -49.833 31 -62.5s27.167 -19 42.5 -19c11.333 0 24 3.33301 38 10s27 17.667 39 33s20.667 35.666 26 60.999l9 -4c-4 -32 -13.833 -57.333 -29.5 -76s-34.5 -32.167 -56.5 -40.5s-44 -12.5 -66 -12.5
c-35.333 0 -67.833 8.66699 -97.5 26s-53.5 42.166 -71.5 74.499s-27 71.166 -27 116.499c0 51.333 11.5 94.666 34.5 129.999s53.333 62 91 80s78.834 27 123.501 27z" />
    <glyph glyph-name="colon" unicode=":" horiz-adv-x="290" 
d="M145 531c26 0 46.667 -6.83301 62 -20.5s23 -32.5 23 -56.5s-7.66699 -42.833 -23 -56.5s-36 -20.5 -62 -20.5s-46.667 6.83301 -62 20.5s-23 32.5 -23 56.5s7.66699 42.833 23 56.5s36 20.5 62 20.5zM145 140c26 0 46.667 -6.83301 62 -20.5s23 -32.5 23 -56.5
s-7.66699 -42.833 -23 -56.5s-36 -20.5 -62 -20.5s-46.667 6.83301 -62 20.5s-23 32.5 -23 56.5s7.66699 42.833 23 56.5s36 20.5 62 20.5z" />
    <glyph glyph-name="semicolon" unicode=";" horiz-adv-x="296" 
d="M143 140c16.667 0 30.998 -3.00293 42.998 -9.00293s21.333 -14.667 28 -26c7.33301 -9.33301 12.833 -21.666 16.5 -36.999s5.5 -30.666 5.5 -45.999c0 -33.333 -8.5 -64.166 -25.5 -92.499s-43.5 -50.833 -79.5 -67.5l-9 18c18.667 8 35.334 20.333 50.001 37
s23.334 33.667 26.001 51c3.33301 14.667 3.33301 28.667 0 42c-14.667 -16 -34 -24 -58 -24c-23.333 0 -42.333 6.83301 -57 20.5s-22 32.5 -22 56.5c0 23.333 7.83301 42 23.5 56s35.167 21 58.5 21zM148.998 530.997c26 0 46.667 -6.83301 62 -20.5s23 -32.5 23 -56.5
s-7.66699 -42.833 -23 -56.5s-36 -20.5 -62 -20.5s-46.667 6.83301 -62 20.5s-23 32.5 -23 56.5s7.66699 42.833 23 56.5s36 20.5 62 20.5z" />
    <glyph glyph-name="less" unicode="&#x3c;" horiz-adv-x="602" 
d="M515 582l17 -36l-409 -191l409 -191l-17 -36l-487 227z" />
    <glyph glyph-name="equal" unicode="=" horiz-adv-x="635" 
d="M568 440v-30h-501v30h501zM568 300v-30h-501v30h501z" />
    <glyph glyph-name="greater" unicode="&#x3e;" horiz-adv-x="602" 
d="M87 582l487 -227l-487 -227l-17 36l409 191l-409 191z" />
    <glyph glyph-name="question" unicode="?" horiz-adv-x="508" 
d="M237 782c48 0 89.833 -7.1709 125.5 -21.5039s63.667 -35 84 -62s30.5 -59.167 30.5 -96.5s-10.833 -70.666 -32.5 -99.999s-51.5 -54.166 -89.5 -74.499s-82.333 -36.166 -133 -47.499v-146h-20v155c37.333 16.667 65.333 35 84 55s31.334 41.667 38.001 65s10 48 10 74
c0 63.333 -11.5 109 -34.5 137s-52.5 42 -88.5 42c-18 0 -34.833 -2 -50.5 -6s-27.834 -10.667 -36.501 -20c18 -6 31.833 -14.833 41.5 -26.5s14.5 -27.167 14.5 -46.5c0 -20.667 -7.33301 -37.834 -22 -51.501s-33.667 -20.5 -57 -20.5
c-21.333 0 -38.5 6.83301 -51.5 20.5s-19.5 29.834 -19.5 48.501c0 20.667 5.5 37.834 16.5 51.501s24.5 25.5 40.5 35.5c16 9.33301 36.5 17.5 61.5 24.5s54.5 10.5 88.5 10.5zM213 139.996c26 0 46.667 -6.83301 62 -20.5s23 -32.5 23 -56.5s-7.66699 -42.833 -23 -56.5
s-36 -20.5 -62 -20.5s-46.667 6.83301 -62 20.5s-23 32.5 -23 56.5s7.66699 42.833 23 56.5s36 20.5 62 20.5z" />
    <glyph glyph-name="at" unicode="@" horiz-adv-x="884" 
d="M534 668c59.333 0 113.001 -9.33496 161.001 -28.002s86.167 -48.167 114.5 -88.5s42.5 -93.166 42.5 -158.499c0 -56 -9.16699 -106.667 -27.5 -152s-42.333 -84 -72 -116s-61.834 -56.5 -96.501 -73.5s-68 -25.5 -100 -25.5c-26 0 -45 4.83301 -57 14.5s-19 22 -21 37
s-1.33301 30.5 2 46.5s6.66602 30.333 9.99902 43l61 297c20.667 0 42.167 1 64.5 3s42.833 5.66699 61.5 11l-79 -361c-3.33301 -14 -5.16602 -26 -5.49902 -36s1.83398 -16.833 6.50098 -20.5s12.334 -3.83398 23.001 -0.500977c20.667 6 43 17.667 67 35
s46.833 40 68.5 68s39.5 61.333 53.5 100s21 82.334 21 131.001c0 62 -13.667 111.667 -41 149s-63.5 64.5 -108.5 81.5s-94.167 25.5 -147.5 25.5c-49.333 0 -97.333 -8.66699 -144 -26s-89.667 -41.833 -129 -73.5s-73.833 -68.667 -103.5 -111s-52.667 -88.5 -69 -138.5
s-24.5 -102 -24.5 -156c0 -68.667 13.333 -124.167 40 -166.5s63 -73.166 109 -92.499s98.333 -29 157 -29c36 0 71.167 4.16699 105.5 12.5s67.833 22.166 100.5 41.499l7 -13c-24.667 -17.333 -55.334 -31.5 -92.001 -42.5s-77.334 -16.5 -122.001 -16.5
c-63.333 0 -119.333 10.667 -168 32s-87 54.333 -115 99s-42 102.334 -42 173.001c0 54 8 106.5 24 157.5s39 98.667 69 143s65.333 83.333 106 117s85.5 60 134.5 79s100.833 28.5 155.5 28.5zM464.001 477.998c20.667 0 37.166 -4.83203 49.499 -14.499s21 -22.5 26 -38.5
s6.16699 -33 3.5 -51l-10 -7c1.33301 11.333 0.833008 22.833 -1.5 34.5s-7.16602 21.5 -14.499 29.5s-16.666 12 -27.999 12c-16.667 0 -33 -8.16699 -49 -24.5s-30.5 -38.333 -43.5 -66s-23.5 -58.334 -31.5 -92.001s-12 -68.167 -12 -103.5
c0 -30.667 3.66699 -52.167 11 -64.5s17.333 -18.5 30 -18.5c22 0 42.667 15 62 45s36.666 72 51.999 126l5 -17c-12.667 -49.333 -27.667 -88.833 -45 -118.5s-36.5 -51 -57.5 -64s-44.167 -19.5 -69.5 -19.5c-23.333 0 -43.833 4.83301 -61.5 14.5
s-31.167 24.167 -40.5 43.5s-14 43.333 -14 72c0 35.333 6.5 71.833 19.5 109.5s30.667 72.5 53 104.5s47.833 58 76.5 78s58.667 30 90 30z" />
    <glyph glyph-name="A" unicode="A" horiz-adv-x="667" 
d="M368 710l243.001 -625.999c9.33301 -24 19.833 -40.5 31.5 -49.5s22.167 -13.833 31.5 -14.5v-20c-20 1.33301 -43.5 2.16602 -70.5 2.49902s-54.167 0.5 -81.5 0.5c-30.667 0 -59.667 -0.166992 -87 -0.5s-49 -1.16602 -65 -2.49902v20
c34 1.33301 55.5 7.16602 64.5 17.499s6.83301 32.5 -6.5 66.5l-170 465l18 26l-152 -396c-14.667 -36.667 -23.5 -66.667 -26.5 -90s-1.33301 -41.333 5 -54s16.666 -21.5 30.999 -26.5s31.5 -7.83301 51.5 -8.5v-20c-22 1.33301 -43 2.16602 -63 2.49902
s-40.333 0.5 -61 0.5c-14.667 0 -28.5 -0.166992 -41.5 -0.5s-24.5 -1.16602 -34.5 -2.49902v20c14 2.66699 28.333 11.667 43 27s29 41.333 43 78l228 585c10.667 -0.666992 22.167 -1 34.5 -1s23.833 0.333008 34.5 1zM438.001 288.001v-20h-298l10 20h288z" />
    <glyph glyph-name="B" unicode="B" horiz-adv-x="672" 
d="M34 708c17.333 -0.666992 39.9971 -1.33496 67.9971 -2.00195s56 -1 84 -1c32 0 63 0.333008 93 1s51.333 1 64 1c82.667 0 144.5 -14.667 185.5 -44s61.5 -67 61.5 -113c0 -23.333 -7 -47 -21 -71s-35.667 -45.333 -65 -64s-67.333 -32.334 -114 -41.001v-2
c62.667 -4.66699 112.334 -16 149.001 -34s63 -39.667 79 -65s24 -51.666 24 -78.999c0 -42 -11 -77.333 -33 -106s-53.667 -50.5 -95 -65.5s-90.666 -22.5 -147.999 -22.5c-16 0 -39 0.5 -69 1.5s-66.333 1.5 -109 1.5c-29.333 0 -58 -0.166992 -86 -0.5
s-50.667 -1.16602 -68 -2.49902v20c21.333 1.33301 37.333 4 48 8s17.834 12 21.501 24s5.5 30 5.5 54v496c0 24.667 -1.83301 42.834 -5.5 54.501s-11 19.667 -22 24s-26.833 6.83301 -47.5 7.5v20zM329.997 687.999c-26 0 -42.835 -5.66699 -50.502 -17
s-11.5 -34.333 -11.5 -69v-496c0 -23.333 1.83301 -41 5.5 -53s10.334 -20 20.001 -24s24.167 -6 43.5 -6c48 0 83.167 15.167 105.5 45.5s33.5 73.5 33.5 129.5c0 51.333 -12.833 91 -38.5 119s-68.167 42 -127.5 42h-85v8.5v8.5h86c31.333 0 55.333 7.5 72 22.5
s28.334 35 35.001 60s10 51.833 10 80.5c0 49.333 -7.66699 86.5 -23 111.5s-40.333 37.5 -75 37.5z" />
    <glyph glyph-name="C" unicode="C" horiz-adv-x="705" 
d="M397 722c44 0 80.165 -6.50293 108.498 -19.5029s53.5 -28.167 75.5 -45.5c13.333 -10 23.5 -11.167 30.5 -3.5s11.833 25.834 14.5 54.501h23c-1.33301 -26 -2.33301 -57.5 -3 -94.5s-1 -86.167 -1 -147.5h-23c-3.33301 30.667 -7.66602 56.834 -12.999 78.501
s-12.666 40.834 -21.999 57.501s-22.666 31.667 -39.999 45c-16.667 16.667 -36 29 -58 37s-45 12 -69 12c-36 0 -66.667 -9.5 -92 -28.5s-45.833 -44.833 -61.5 -77.5s-27.167 -69.5 -34.5 -110.5s-11 -83.5 -11 -127.5c0 -44.667 3.83301 -87.5 11.5 -128.5
s19.667 -77.5 36 -109.5s37.5 -57.333 63.5 -76s56.667 -28 92 -28c22 0 44.167 4.16699 66.5 12.5s41.5 20.5 57.5 36.5c26 20 43.667 44.833 53 74.5s16.333 69.167 21 118.5h23c0 -63.333 0.333008 -114.5 1 -153.5s1.66699 -71.833 3 -98.5h-23
c-2.66699 28.667 -7.16699 46.667 -13.5 54s-16.833 6.33301 -31.5 -3c-24.667 -17.333 -50.834 -32.5 -78.501 -45.5s-63.167 -19.5 -106.5 -19.5c-70.667 0 -132.5 14.333 -185.5 43s-94.167 70 -123.5 124s-44 119 -44 195c0 74.667 15.167 140 45.5 196
s72 99.667 125 131s114.167 47 183.5 47z" />
    <glyph glyph-name="D" unicode="D" horiz-adv-x="776" 
d="M343 708c131.333 0 228.999 -29.8359 292.999 -89.5029s96 -145.167 96 -256.5c0 -72.667 -15.667 -136.167 -47 -190.5s-76.833 -96.5 -136.5 -126.5s-131.167 -45 -214.5 -45c-10.667 0 -24.667 0.333008 -42 1s-35.333 1.16699 -54 1.5s-35.334 0.5 -50.001 0.5
c-29.333 0 -58.166 -0.166992 -86.499 -0.5s-50.833 -1.16602 -67.5 -2.49902v20c21.333 1.33301 37.333 4 48 8s17.834 12 21.501 24s5.5 30 5.5 54v496c0 24.667 -1.83301 42.834 -5.5 54.501s-11 19.667 -22 24s-26.833 6.83301 -47.5 7.5v20
c16.667 -0.666992 39.167 -1.5 67.5 -2.5s56.5 -1.16699 84.5 -0.5c24 0.666992 51.167 1.33398 81.5 2.00098s55.5 1 75.5 1zM341.999 689.997c-30.667 0 -50.668 -5.66797 -60.001 -17.001s-14 -34.333 -14 -69v-500c0 -34.667 4.83301 -57.667 14.5 -69
s29.834 -17 60.501 -17c56 0 100.167 13.167 132.5 39.5s55.5 64.833 69.5 115.5s21 112.334 21 185.001c0 74.667 -7.5 136.5 -22.5 185.5s-38.833 85.667 -71.5 110s-76 36.5 -130 36.5z" />
    <glyph glyph-name="E" unicode="E" horiz-adv-x="634" 
d="M569 708c-2.66699 -29.333 -4.50195 -57.665 -5.50195 -84.998s-1.5 -48.333 -1.5 -63c0 -13.333 0.333008 -26 1 -38s1.33398 -22 2.00098 -30h-23c-6.66699 48.667 -17 87.167 -31 115.5s-32.167 48.333 -54.5 60s-48.5 17.5 -78.5 17.5h-41
c-19.333 0 -34 -1.66699 -44 -5s-16.667 -10 -20 -20s-5 -25.333 -5 -46v-520c0 -20.667 1.66699 -36 5 -46s10 -16.667 20 -20s24.667 -5 44 -5h49c30 0 56.5 6.5 79.5 19.5s42.667 35.167 59 66.5s28.833 73.666 37.5 126.999h23c-2 -21.333 -3 -49.333 -3 -84
c0 -15.333 0.333008 -37 1 -65s2.66699 -57 6 -87c-34 1.33301 -72.333 2.16602 -115 2.49902s-80.667 0.5 -114 0.5h-64c-26 0 -54 -0.166992 -84 -0.5l-91 -1c-30.667 -0.333008 -59.667 -0.833008 -87 -1.5v20c21.333 1.33301 37.333 4 48 8s17.834 12 21.501 24
s5.5 30 5.5 54v496c0 24.667 -1.83301 42.834 -5.5 54.501s-11 19.667 -22 24s-26.833 6.83301 -47.5 7.5v20c27.333 -0.666992 56.333 -1.16699 87 -1.5l91 -1c30 -0.333008 58 -0.5 84 -0.5h64c30.667 0 65.5 0.166992 104.5 0.5s73.833 1.16602 104.5 2.49902z
M412.998 366.001v-10v-10h-175v10v10h175zM441.998 498.001c-2.66699 -38 -3.83301 -66.999 -3.5 -86.999s0.5 -38.333 0.5 -55s0.333008 -35 1 -55s2.33398 -49 5.00098 -87h-23c-3.33301 23.333 -9.5 45 -18.5 65s-21.833 36.167 -38.5 48.5s-38.334 18.5 -65.001 18.5v20
c20 0 37 4.16699 51 12.5s25.5 19.333 34.5 33s16.167 28.167 21.5 43.5s9.33301 29.666 12 42.999h23z" />
    <glyph glyph-name="F" unicode="F" horiz-adv-x="592" 
d="M569 708c-2.66699 -30 -4.50098 -59.002 -5.50098 -87.002s-1.5 -49.667 -1.5 -65c0 -14.667 0.333008 -28.667 1 -42s1.33398 -24.666 2.00098 -33.999h-23c-8.66699 52 -20.667 92.833 -36 122.5s-34.166 50.834 -56.499 63.501s-48.833 19 -79.5 19h-33
c-19.333 0 -34 -1.66699 -44 -5s-16.667 -10 -20 -20s-5 -25.333 -5 -46v-502c0 -26 2.66699 -45.333 8 -58s15.666 -21 30.999 -25s38 -6.33301 68 -7v-22c-20.667 0.666992 -47.334 1.33398 -80.001 2.00098s-67 1 -103 1c-28.667 0 -56.667 -0.333008 -84 -1
s-52 -1.33398 -74 -2.00098v20c21.333 1.33301 37.333 4 48 8s17.834 12 21.501 24s5.5 30 5.5 54v496c0 24.667 -1.83301 42.834 -5.5 54.501s-11 19.667 -22 24s-26.833 6.83301 -47.5 7.5v20c27.333 -0.666992 56.333 -1.16699 87 -1.5l91 -1
c30 -0.333008 58 -0.5 84 -0.5h64c30.667 0 65.5 0.166992 104.5 0.5s73.833 1.16602 104.5 2.49902zM419.999 361.998v-10v-10h-182v10v10h182zM444.999 493.998c-2.66699 -38 -3.83105 -66.999 -3.49805 -86.999s0.5 -38.333 0.5 -55s0.333008 -35 1 -55
s2.33398 -49 5.00098 -87h-23c-4 23.333 -10.333 45 -19 65s-21.334 36.167 -38.001 48.5s-38.334 18.5 -65.001 18.5v20c20 0 36.833 4.16699 50.5 12.5s25.167 19.333 34.5 33s16.666 28.167 21.999 43.5s9.33301 29.666 12 42.999h23z" />
    <glyph glyph-name="G" unicode="G" horiz-adv-x="735" 
d="M405 722c45.333 0 82.333 -6.33691 111 -19.0039s54.334 -28 77.001 -46c8 -6 14.667 -9 20 -9c12.667 0 21 20 25 60h23c-1.33301 -26 -2.33301 -57.5 -3 -94.5s-1 -86.167 -1 -147.5h-23c-4.66699 40 -11.834 74.833 -21.501 104.5s-27.5 55.167 -53.5 76.5
c-16 15.333 -35.833 27.333 -59.5 36s-47.5 13 -71.5 13c-36.667 0 -68 -9.5 -94 -28.5s-47.333 -44.833 -64 -77.5s-29 -69.5 -37 -110.5s-12 -83.5 -12 -127.5c0 -120 16.5 -207.667 49.5 -263s80.5 -83 142.5 -83c16 0 30 2 42 6s21.667 8.66699 29 14
c9.33301 6.66699 15.666 13.834 18.999 21.501s5 17.834 5 30.501v98c0 30.667 -2.5 53.5 -7.5 68.5s-14.833 25.167 -29.5 30.5s-36 8.33301 -64 9v20c14 -0.666992 30.833 -1.16699 50.5 -1.5l61.5 -1c21.333 -0.333008 41 -0.5 59 -0.5c28 0 53.667 0.333008 77 1
s42.333 1.33398 57 2.00098v-20c-12.667 -0.666992 -22.167 -3 -28.5 -7s-10.666 -12 -12.999 -24s-3.5 -30.333 -3.5 -55v-198h-20c-0.666992 11.333 -3.16699 23.666 -7.5 36.999s-11.5 20 -21.5 20c-4.66699 0 -10.834 -1.16699 -18.501 -3.5
s-19.5 -8.16602 -35.5 -17.499c-24.667 -14 -50.667 -25.833 -78 -35.5s-56 -14.5 -86 -14.5c-77.333 0 -142.666 14.333 -195.999 43s-93.5 69.834 -120.5 123.501s-40.5 118.167 -40.5 193.5c0 76 15.5 142 46.5 198s73.667 99.667 128 131s116.833 47 187.5 47z" />
    <glyph glyph-name="H" unicode="H" horiz-adv-x="800" 
d="M458 0l-0.00195312 20c21.333 1.33301 37.333 4 48 8s17.834 12 21.501 24s5.5 30 5.5 54v496c0 24.667 -1.83301 42.834 -5.5 54.501s-11 19.667 -22 24s-26.833 6.83301 -47.5 7.5v20c18 -0.666992 41.5 -1.33398 70.5 -2.00098s57.833 -1 86.5 -1
c30.667 0 59.5 0.333008 86.5 1s48.833 1.33398 65.5 2.00098v-20c-21.333 -0.666992 -37.5 -3.16699 -48.5 -7.5s-18.167 -12.333 -21.5 -24s-5 -29.834 -5 -54.501v-496c0 -24 1.83301 -42 5.5 -54s10.834 -20 21.501 -24s26.667 -6.66699 48 -8v-20
c-16.667 1.33301 -38.5 2.16602 -65.5 2.49902s-55.833 0.5 -86.5 0.5c-28.667 0 -57.5 -0.166992 -86.5 -0.5s-52.5 -1.16602 -70.5 -2.49902zM33.998 0l-0.00195312 20c21.333 1.33301 37.333 4 48 8s17.834 12 21.501 24s5.5 30 5.5 54v496
c0 24.667 -1.83301 42.834 -5.5 54.501s-11 19.667 -22 24s-26.833 6.83301 -47.5 7.5v20c17.333 -0.666992 39.833 -1.33398 67.5 -2.00098s57.834 -1 90.501 -1c28 0 55.667 0.333008 83 1s50 1.33398 68 2.00098v-20c-21.333 -0.666992 -37.5 -3.16699 -48.5 -7.5
s-18.167 -12.333 -21.5 -24s-5 -29.834 -5 -54.501v-496c0 -24 1.83301 -42 5.5 -54s10.834 -20 21.501 -24s26.667 -6.66699 48 -8v-20c-18 1.33301 -40.667 2.16602 -68 2.49902s-55 0.5 -83 0.5c-32.667 0 -62.834 -0.166992 -90.501 -0.5
s-50.167 -1.16602 -67.5 -2.49902zM202.996 346v20h395v-20h-395z" />
    <glyph glyph-name="I" unicode="I" horiz-adv-x="376" 
d="M343 708l-0.00195312 -20c-21.333 -0.666992 -37.5 -3.16699 -48.5 -7.5s-18.167 -12.333 -21.5 -24s-5 -29.834 -5 -54.501v-496c0 -24 1.83301 -42 5.5 -54s10.834 -20 21.501 -24s26.667 -6.66699 48 -8v-20c-18 1.33301 -40.667 2.16602 -68 2.49902s-55 0.5 -83 0.5
c-32.667 0 -62.834 -0.166992 -90.501 -0.5s-50.167 -1.16602 -67.5 -2.49902v20c21.333 1.33301 37.333 4 48 8s17.834 12 21.501 24s5.5 30 5.5 54v496c0 24.667 -1.83301 42.834 -5.5 54.501s-11 19.667 -22 24s-26.833 6.83301 -47.5 7.5v20
c17.333 -0.666992 39.833 -1.33398 67.5 -2.00098s57.834 -1 90.501 -1c28 0 55.667 0.333008 83 1s50 1.33398 68 2.00098z" />
    <glyph glyph-name="J" unicode="J" horiz-adv-x="364" 
d="M-23 -188l-0.000976562 20c26.667 2.66699 49.334 10.5 68.001 23.5s33 35.167 43 66.5s15 75.333 15 132v548c0 24.667 -1.83301 42.834 -5.5 54.501s-10.834 19.667 -21.501 24s-26.667 6.83301 -48 7.5v20c16.667 -0.666992 38.5 -1.33398 65.5 -2.00098
s55.5 -1 85.5 -1s59.167 0.333008 87.5 1s51.833 1.33398 70.5 2.00098v-20c-20.667 -0.666992 -36.5 -3.16699 -47.5 -7.5s-18.333 -12.333 -22 -24s-5.5 -29.834 -5.5 -54.501v-366v-88.5c0 -31.667 -1.16699 -62.5 -3.5 -92.5s-6.83301 -56.667 -13.5 -80
c-13.333 -46 -42.166 -84.667 -86.499 -116s-104.833 -47 -181.5 -47z" />
    <glyph glyph-name="K" unicode="K" horiz-adv-x="714" 
d="M689 708l-0.000976562 -19c-21.333 -4.66699 -44.166 -14 -68.499 -28s-49.833 -36.667 -76.5 -68l-188 -224l58 83l238 -371c9.33301 -15.333 19.333 -27.666 30 -36.999s24.667 -17.333 42 -24v-20c-23.333 1.33301 -49.333 2.16602 -78 2.49902s-54.667 0.5 -78 0.5
c-14 0 -31 -0.166992 -51 -0.5s-45.333 -1.16602 -76 -2.49902v20c27.333 1.33301 43.833 5.16602 49.5 11.499s3.16699 17.5 -7.5 33.5l-145 235c-9.33301 15.333 -17.666 26.833 -24.999 34.5s-14.666 13 -21.999 16s-17 4.83301 -29 5.5v21
c29.333 0.666992 55.5 8.66699 78.5 24s48.167 38.666 75.5 69.999l59 71c25.333 30 40.166 55.833 44.499 77.5s0 38.5 -13 50.5s-32.833 18.333 -59.5 19v19c16.667 -0.666992 32.5 -1.16699 47.5 -1.5l47 -1c16.333 -0.333008 34.166 -0.5 53.499 -0.5
s36.833 0.333008 52.5 1s29.5 1.33398 41.5 2.00098zM342.999 708l-0.00195312 -20c-21.333 -0.666992 -37.5 -3.16699 -48.5 -7.5s-18.167 -12.333 -21.5 -24s-5 -29.834 -5 -54.501v-496c0 -24 1.83301 -42 5.5 -54s10.834 -20 21.501 -24s26.667 -6.66699 48 -8v-20
c-18 1.33301 -40.667 2.16602 -68 2.49902s-55 0.5 -83 0.5c-32 0 -62.167 -0.166992 -90.5 -0.5s-50.833 -1.16602 -67.5 -2.49902v20c21.333 1.33301 37.333 4 48 8s17.834 12 21.501 24s5.5 30 5.5 54v496c0 24.667 -1.83301 42.834 -5.5 54.501s-11 19.667 -22 24
s-26.833 6.83301 -47.5 7.5v20c16.667 -0.666992 39.167 -1.33398 67.5 -2.00098s58.5 -1 90.5 -1c28 0 55.667 0.333008 83 1s50 1.33398 68 2.00098z" />
    <glyph glyph-name="L" unicode="L" horiz-adv-x="611" 
d="M349 708l0.000976562 -20.001c-22.667 -0.666992 -39.834 -3.16699 -51.501 -7.5s-19.5 -12.333 -23.5 -24s-6 -29.834 -6 -54.501v-508c0 -20.667 1.5 -36 4.5 -46s9 -16.667 18 -20s22.5 -5 40.5 -5h49c22.667 0 44 5.33301 64 16s38 25.834 54 45.501
s29.333 43.167 40 70.5s18.667 57.666 24 90.999h23c-2 -22.667 -3 -52 -3 -88c0 -15.333 0.333008 -37.666 1 -66.999s2.66699 -59.666 6 -90.999c-34 1.33301 -72.333 2.16602 -115 2.49902s-80.667 0.5 -114 0.5h-64c-26 0 -54 -0.166992 -84 -0.5l-91 -1
c-30.667 -0.333008 -59.667 -0.833008 -87 -1.5v20c21.333 1.33301 37.333 4 48 8s17.834 12 21.501 24s5.5 30 5.5 54v496c0 24.667 -1.83301 42.834 -5.5 54.501s-11 19.667 -22 24s-26.833 6.83301 -47.5 7.5v20c16.667 -0.666992 39.167 -1.33398 67.5 -2.00098
s58.5 -1 90.5 -1c29.333 0 58.166 0.333008 86.499 1s51.833 1.33398 70.5 2.00098z" />
    <glyph glyph-name="M" unicode="M" horiz-adv-x="927" 
d="M894 708l-0.00195312 -20.001c-21.333 -0.666992 -37.333 -3.16699 -48 -7.5s-17.834 -12.333 -21.501 -24s-5.5 -29.834 -5.5 -54.501v-496c0 -24 1.83301 -42 5.5 -54s10.834 -20 21.501 -24s26.667 -6.66699 48 -8v-20c-18.667 1.33301 -42.167 2.16602 -70.5 2.49902
s-57.166 0.5 -86.499 0.5c-32 0 -62 -0.166992 -90 -0.5s-50.667 -1.16602 -68 -2.49902v20c22.667 1.33301 39.834 4 51.501 8s19.5 12 23.5 24s6 30 6 54v541h7l-248 -648h-16l-270 644v-479c0 -36.667 2 -64.834 6 -84.501s12.833 -33.667 26.5 -42
s35.167 -14.166 64.5 -17.499v-20c-12.667 1.33301 -29.334 2.16602 -50.001 2.49902s-40 0.5 -58 0.5c-15.333 0 -31 -0.166992 -47 -0.5s-29.333 -1.16602 -40 -2.49902v20c21.333 3.33301 37.333 9 48 17s17.834 21.167 21.501 39.5s5.5 43.5 5.5 75.5v450
c0 24.667 -1.83301 42.834 -5.5 54.501s-11 19.667 -22 24s-26.833 6.83301 -47.5 7.5v20c10.667 -0.666992 24 -1.33398 40 -2.00098s31.667 -1 47 -1c28.667 0 56.834 0.333008 84.501 1s52.167 1.33398 73.5 2.00098l210 -507l-25 -23l201 527h35h36
c29.333 0 58.166 0.333008 86.499 1s51.833 1.33398 70.5 2.00098z" />
    <glyph glyph-name="N" unicode="N" horiz-adv-x="722" 
d="M693 708l-0.00195312 -20.0039c-21.333 -2.66699 -37.333 -8.16699 -48 -16.5s-17.834 -21.5 -21.501 -39.5s-5.5 -43.333 -5.5 -76v-558c-8 0.666992 -16.167 1 -24.5 1s-17.166 -0.333008 -26.499 -1l-434 550v-384c0 -36.667 2 -64.834 6 -84.501
s12.833 -33.667 26.5 -42s35.167 -14.166 64.5 -17.499v-20c-12.667 1.33301 -29.334 2.16602 -50.001 2.49902s-40 0.5 -58 0.5c-15.333 0 -31 -0.166992 -47 -0.5s-29.333 -1.16602 -40 -2.49902v20c21.333 3.33301 37.333 9 48 17s17.834 21.167 21.501 39.5
s5.5 43.5 5.5 75.5v450c0 24.667 -1.83301 42.834 -5.5 54.501s-11 19.667 -22 24s-26.833 6.83301 -47.5 7.5v20c10.667 -0.666992 24 -1.33398 40 -2.00098s31.667 -1 47 -1c16 0 31.333 0.333008 46 1s28 1.33398 40 2.00098l387 -477v313c0 36.667 -2 64.834 -6 84.501
s-12.833 33.834 -26.5 42.501s-35.167 14.334 -64.5 17.001v20c12.667 -0.666992 29.334 -1.33398 50.001 -2.00098s40 -1 58 -1c16 0 31.833 0.333008 47.5 1s28.834 1.33398 39.501 2.00098z" />
    <glyph glyph-name="O" unicode="O" horiz-adv-x="793" 
d="M397 722c70.667 0 132.501 -14.3311 185.501 -42.998s94.167 -69.834 123.5 -123.501s44 -118.834 44 -195.501c0 -74.667 -15 -140 -45 -196s-71.833 -99.667 -125.5 -131s-114.834 -47 -183.501 -47c-70.667 0 -132.5 14.333 -185.5 43s-94.167 70 -123.5 124
s-44 119 -44 195c0 74.667 15.167 140 45.5 196s72 99.667 125 131s114.167 47 183.5 47zM393.001 704.002c-37.333 0 -69.833 -15.001 -97.5 -45.001s-49 -71.333 -64 -124s-22.5 -113.667 -22.5 -183c0 -70.667 8.5 -132.167 25.5 -184.5s40 -92.666 69 -120.999
s61.167 -42.5 96.5 -42.5c37.333 0 69.833 15 97.5 45s49 71.5 64 124.5s22.5 113.833 22.5 182.5c0 71.333 -8.5 133 -25.5 185s-40 92.167 -69 120.5s-61.167 42.5 -96.5 42.5z" />
    <glyph glyph-name="P" unicode="P" horiz-adv-x="641" 
d="M34 708c16.667 -0.666992 39.1689 -1.33398 67.502 -2.00098s56.5 -1 84.5 -1c32 0 63 0.333008 93 1s51.333 1 64 1c92.667 0 162 -18.333 208 -55s69 -84 69 -142c0 -24 -4.66699 -49.167 -14 -75.5s-25.166 -50.666 -47.499 -72.999s-52.833 -40.5 -91.5 -54.5
s-87.334 -21 -146.001 -21h-102v20h92c39.333 0 69.166 9 89.499 27s34.333 41.667 42 71s11.5 61 11.5 95c0 63.333 -9.33301 110.666 -28 141.999s-50.667 47 -96 47c-26 0 -42.833 -5.66699 -50.5 -17s-11.5 -34.333 -11.5 -69v-490c0 -26 2.66699 -45.333 8 -58
s15.666 -21 30.999 -25s38 -6.33301 68 -7v-22c-20.667 0.666992 -47.334 1.33398 -80.001 2.00098s-67 1 -103 1c-28.667 0 -56.667 -0.333008 -84 -1s-52 -1.33398 -74 -2.00098v20c21.333 1.33301 37.333 4 48 8s17.834 12 21.501 24s5.5 30 5.5 54v496
c0 24.667 -1.83301 42.834 -5.5 54.501s-11 19.667 -22 24s-26.833 6.83301 -47.5 7.5v20z" />
    <glyph glyph-name="Q" unicode="Q" horiz-adv-x="793" 
d="M764 12l17.9971 -4.99707c-5.33301 -36.667 -13.666 -68.167 -24.999 -94.5s-26 -46.833 -44 -61.5c-14 -11.333 -32.167 -20.666 -54.5 -27.999s-47.166 -11 -74.499 -11c-36.667 0 -72.5 5.66699 -107.5 17s-70.5 25.166 -106.5 41.499s-74 32.166 -114 47.499
c-4.66699 1.33301 -9.16699 2.83301 -13.5 4.5s-7.83301 2.5 -10.5 2.5c-12.667 -6 -26.5 -11 -41.5 -15s-29.167 -6 -42.5 -6s-24.5 2 -33.5 6s-13.5 10.667 -13.5 20c0 18 18.333 27 55 27c23.333 0 48.666 -4.66699 75.999 -14c24.667 6.66699 45.834 14.167 63.501 22.5
s36 16.166 55 23.499s42.167 12 69.5 14l1 -16c-21.333 -2 -39.5 -5.83301 -54.5 -11.5s-30.167 -11.834 -45.5 -18.501s-33.333 -13 -54 -19c47.333 -3.33301 91.333 -6.83301 132 -10.5s78.334 -6 113.001 -7s66 0.5 94 4.5c41.333 4.66699 74 13.667 98 27
s44 33.333 60 60zM396.997 722.003c70.667 0 132.501 -14.3311 185.501 -42.998s94.167 -69.834 123.5 -123.501s44 -118.834 44 -195.501c0 -74.667 -15 -140 -45 -196s-71.833 -99.667 -125.5 -131s-114.834 -47 -183.501 -47c-70.667 0 -132.5 14.333 -185.5 43
s-94.167 70 -123.5 124s-44 119 -44 195c0 74.667 15.167 140 45.5 196s72 99.667 125 131s114.167 47 183.5 47zM392.998 704.005c-37.333 0 -69.833 -15.001 -97.5 -45.001s-49 -71.333 -64 -124s-22.5 -113.667 -22.5 -183c0 -70.667 8.5 -132.167 25.5 -184.5
s40 -92.666 69 -120.999s61.167 -42.5 96.5 -42.5c37.333 0 69.833 15 97.5 45s49 71.5 64 124.5s22.5 113.833 22.5 182.5c0 71.333 -8.5 133 -25.5 185s-40 92.167 -69 120.5s-61.167 42.5 -96.5 42.5z" />
    <glyph glyph-name="R" unicode="R" horiz-adv-x="692" 
d="M34 708c16.667 -0.666992 39.166 -1.33301 67.499 -2s56.5 -1 84.5 -1c32 0 63 0.333008 93 1s51.333 1 64 1c62 0 113.5 -6.83301 154.5 -20.5s71.667 -33.5 92 -59.5s30.5 -57.333 30.5 -94c0 -22.667 -4.66699 -45.5 -14 -68.5s-25.166 -44.333 -47.499 -64
s-52.833 -35.334 -91.5 -47.001s-87.334 -17.5 -146.001 -17.5h-96v20h86c39.333 0 69.166 7.5 89.499 22.5s34.333 35 42 60s11.5 52.833 11.5 83.5c0 52.667 -9.33301 93.5 -28 122.5s-50.667 43.5 -96 43.5c-26 0 -42.833 -5.66699 -50.5 -17s-11.5 -34.333 -11.5 -69
v-496c0 -24 1.83301 -42 5.5 -54s10.834 -20 21.501 -24s26.667 -6.66699 48 -8v-20c-18 1.33301 -40.667 2.16602 -68 2.49902s-55 0.5 -83 0.5c-32 0 -62.167 -0.166992 -90.5 -0.5s-50.833 -1.16602 -67.5 -2.49902v20c21.333 1.33301 37.333 4 48 8s17.834 12 21.501 24
s5.5 30 5.5 54v496c0 24.667 -1.83301 42.834 -5.5 54.501s-11 19.667 -22 24s-26.833 6.83301 -47.5 7.5v20zM222.999 353.001c28.667 -0.666992 53.499 -1.99805 74.499 -3.99805s39.5 -3.83301 55.5 -5.5s30.333 -2.83398 43 -3.50098
c60.667 -5.33301 105.5 -18.333 134.5 -39s47.833 -51.667 56.5 -93l23 -103c6 -26.667 12.333 -45.334 19 -56.001s16.334 -16 29.001 -16c8.66699 0.666992 15.834 2.83398 21.501 6.50098s11.834 9.16699 18.501 16.5l14 -12c-18 -20.667 -37.333 -35.5 -58 -44.5
s-45.667 -13.5 -75 -13.5c-36 0 -65.667 7.66699 -89 23s-38.666 43.666 -45.999 84.999l-18 100c-4.66699 28 -10.334 52.5 -17.001 73.5s-15.834 37.667 -27.501 50s-27.834 18.5 -48.501 18.5h-108z" />
    <glyph glyph-name="S" unicode="S" horiz-adv-x="584" 
d="M284 721c39.333 0 69.668 -4.16992 91.001 -12.5029s39.666 -17.166 54.999 -26.499c8 -4.66699 14.5 -8.16699 19.5 -10.5s9.83301 -3.5 14.5 -3.5c6.66699 0 11.5 3.66699 14.5 11s5.5 18.333 7.5 33h23l-2.5 -45.5c-1 -17.667 -1.66699 -40.834 -2 -69.501
s-0.5 -66.334 -0.5 -113.001h-23c-2.66699 34.667 -10.667 68.334 -24 101.001s-32.166 59.5 -56.499 80.5s-54.166 31.5 -89.499 31.5c-32 0 -58.333 -9 -79 -27s-31 -43 -31 -75c0 -26.667 6.66699 -49.5 20 -68.5s32.833 -37.5 58.5 -55.5l93.5 -65
c32 -20.667 60.667 -41.334 86 -62.001s45.666 -44 60.999 -70s23 -57 23 -93c0 -44 -11.5 -80.333 -34.5 -109s-53.167 -50.167 -90.5 -64.5s-78.333 -21.5 -123 -21.5c-41.333 0 -74.333 4 -99 12s-45.334 16.333 -62.001 25c-14.667 9.33301 -26 14 -34 14
c-6.66699 0 -11.5 -3.66699 -14.5 -11s-5.5 -18.333 -7.5 -33h-23c1.33301 16 2.16602 34.667 2.49902 56s0.666016 49.166 0.999023 83.499s0.5 77.833 0.5 130.5h23c2.66699 -44 10.167 -85.167 22.5 -123.5s31.333 -69.166 57 -92.499s59.834 -35 102.501 -35
c23.333 0 44.166 4.16699 62.499 12.5s33.166 20.833 44.499 37.5s17 37.334 17 62.001c0 28 -6.5 52.333 -19.5 73s-30.667 40 -53 58s-48.166 36.333 -77.499 55c-31.333 20.667 -60.666 41.334 -87.999 62.001s-49.166 44.334 -65.499 71.001s-24.5 58.334 -24.5 95.001
c0 42 10.5 76.5 31.5 103.5s48.667 47 83 60s70.833 19.5 109.5 19.5z" />
    <glyph glyph-name="T" unicode="T" horiz-adv-x="668" 
d="M642 708c-2.66699 -34 -4.49609 -66.668 -5.49609 -98.001s-1.5 -55.333 -1.5 -72c0 -14.667 0.333008 -28.667 1 -42s1.33398 -24.666 2.00098 -33.999h-23c-10.667 56 -24.167 100.333 -40.5 133s-35.833 55.834 -58.5 69.501s-49.334 20.5 -80.001 20.5h-23v-571
c0 -26.667 2.83301 -46.667 8.5 -60s16.167 -22.166 31.5 -26.499s37.666 -6.83301 66.999 -7.5v-20c-20.667 0.666992 -48.167 1.33398 -82.5 2.00098s-70.166 1 -107.499 1c-36.667 0 -71.334 -0.333008 -104.001 -1s-59 -1.33398 -79 -2.00098v20
c30 0.666992 52.667 3.16699 68 7.5s25.666 13.166 30.999 26.499s8 33.333 8 60v571h-22c-30.667 0 -57.334 -6.83301 -80.001 -20.5s-42 -36.667 -58 -69s-30 -76.833 -42 -133.5h-23c1.33301 9.33301 2.16602 20.666 2.49902 33.999s0.5 27.333 0.5 42
c0 16.667 -0.5 40.667 -1.5 72s-2.83301 64 -5.5 98c30.667 -0.666992 64.167 -1.33398 100.5 -2.00098s72.833 -1 109.5 -1h99h99.5c36.333 0 72.833 0.333008 109.5 1s69.667 1.33398 99 2.00098z" />
    <glyph glyph-name="U" unicode="U" horiz-adv-x="689" 
d="M671 708l-0.000976562 -20.002c-21.333 -2.66699 -37.5 -8.16699 -48.5 -16.5s-18.167 -21.5 -21.5 -39.5s-5 -43.333 -5 -76v-265c0 -43.333 -3 -83 -9 -119s-16.667 -67 -32 -93c-17.333 -28.667 -42.666 -51.334 -75.999 -68.001s-75.666 -25 -126.999 -25
c-30.667 0 -62 3.5 -94 10.5s-60.667 20.167 -86 39.5c-21.333 18 -37.666 38.333 -48.999 61s-19 49.5 -23 80.5s-6 67.833 -6 110.5v314c0 24.667 -1.83301 42.834 -5.5 54.501s-10.834 19.667 -21.501 24s-26.667 6.83301 -48 7.5v20
c16.667 -0.666992 39.167 -1.33398 67.5 -2.00098s57.833 -1 88.5 -1s60.167 0.333008 88.5 1s51.833 1.33398 70.5 2.00098v-20c-22.667 -0.666992 -39.834 -3.16699 -51.501 -7.5s-19.5 -12.333 -23.5 -24s-6 -29.834 -6 -54.501v-377
c0 -33.333 2.16699 -62.833 6.5 -88.5s11.666 -47 21.999 -64s24.5 -29.833 42.5 -38.5s40.333 -13 67 -13c46.667 0 83.167 11 109.5 33s45 52.5 56 91.5s16.5 83.833 16.5 134.5v264c0 36.667 -2.33301 64.834 -7 84.501s-13.834 33.834 -27.501 42.501
s-34.5 14.334 -62.5 17.001v20c12.667 -0.666992 29.334 -1.33398 50.001 -2.00098s40 -1 58 -1c16 0 31.833 0.333008 47.5 1s28.834 1.33398 39.501 2.00098z" />
    <glyph glyph-name="V" unicode="V" horiz-adv-x="668" 
d="M678 708l-0.000976562 -20.002c-14.667 -5.33301 -30.167 -17 -46.5 -35s-31.5 -46 -45.5 -84l-211 -571c-5.33301 0.666992 -11 1 -17 1h-18h-17c-6 0 -11.667 -0.333008 -17 -1l-255 626c-9.33301 24 -19.666 40.5 -30.999 49.5s-22 13.833 -32 14.5v20
c20 -0.666992 43.5 -1.33398 70.5 -2.00098s54.167 -1 81.5 -1c30.667 0 59.5 0.333008 86.5 1s48.833 1.33398 65.5 2.00098v-20c-21.333 -0.666992 -38 -3.16699 -50 -7.5s-18.667 -12.333 -20 -24s2.66699 -29.167 12 -52.5l182 -463l-21 -25l138 372
c18 50 27.333 89.333 28 118s-6.33301 49.334 -21 62.001s-35.667 19.334 -63 20.001v20c22.667 -0.666992 44 -1.33398 64 -2.00098s40.333 -1 61 -1c14.667 0 28.5 0.333008 41.5 1s24.5 1.33398 34.5 2.00098z" />
    <glyph glyph-name="W" unicode="W" horiz-adv-x="968" 
d="M974 708l0.00292969 -20c-14.667 -5.33301 -30 -16.833 -46 -34.5s-30 -45.834 -42 -84.501l-176 -571c-5.33301 0.666992 -11 1 -17 1h-18h-18c-6 0 -11.667 -0.333008 -17 -1l-210 636c-6.66699 20.667 -14.834 34.667 -24.501 42s-19.834 11.333 -30.501 12v20
c18.667 -0.666992 40.834 -1.33398 66.501 -2.00098s51.167 -1 76.5 -1c29.333 0 56.833 0.333008 82.5 1s46.167 1.33398 61.5 2.00098v-20c-20 -0.666992 -35.833 -3 -47.5 -7s-18.334 -11.667 -20.001 -23s1.5 -29.333 9.5 -54l142 -434l-23 -41l113 359
c16 50.667 23.667 90.334 23 119.001s-8.33398 49.167 -23.001 61.5s-35.667 18.833 -63 19.5v20c22.667 -0.666992 44 -1.33398 64 -2.00098s40 -1 60 -1c15.333 0 29.5 0.333008 42.5 1s24.5 1.33398 34.5 2.00098zM260.003 708v-20.002
c-13.333 -2 -22.666 -6.83301 -27.999 -14.5s-7.5 -17.667 -6.5 -30s3.83301 -25.5 8.5 -39.5l153 -444l-27 -36l128 374l14 -27l-157 -473c-5.33301 0.666992 -11 1 -17 1h-18h-18c-6 0 -11.667 -0.333008 -17 -1l-224 626c-8.66699 24.667 -18.834 41.334 -30.501 50.001
s-22.5 13.334 -32.5 14.001v20c20 -0.666992 43.667 -1.33398 71 -2.00098s53.333 -1 78 -1c26.667 0 50.5 0.333008 71.5 1s38.167 1.33398 51.5 2.00098z" />
    <glyph glyph-name="X" unicode="X" horiz-adv-x="691" 
d="M299 709l-0.00292969 -21c-30 0 -49.167 -2.83301 -57.5 -8.5s-7.83301 -15.5 1.5 -29.5l396 -579c13.333 -18.667 24 -31.334 32 -38.001s18.667 -10.667 32 -12v-21c-13.333 0.666992 -32.666 1.5 -57.999 2.5s-51.666 1.5 -78.999 1.5c-30 0 -60.5 -0.5 -91.5 -1.5
s-54.167 -1.83301 -69.5 -2.5v21c30.667 0 50.5 2.16699 59.5 6.5s8.83301 13.5 -0.5 27.5l-397 583c-12.667 19.333 -23 32.333 -31 39s-19 10.334 -33 11.001v21c14 -0.666992 34.5 -1.5 61.5 -2.5s54.167 -1.5 81.5 -1.5c30 0 58.833 0.5 86.5 1.5
s49.834 1.83301 66.501 2.5zM307.997 356l2 -6.50098l4 -13l2 -6.5l-100 -137c-26.667 -36 -41.667 -66.5 -45 -91.5s2.5 -44.333 17.5 -58s37.167 -21.5 66.5 -23.5v-20c-9.33301 0.666992 -21.166 1.16699 -35.499 1.5l-45 1c-15.667 0.333008 -30.334 0.5 -44.001 0.5
h-33.5c-18.667 0 -36 -0.166992 -52 -0.5s-29.333 -1.16602 -40 -2.49902v20c23.333 8 47 22.167 71 42.5s48.667 46.833 74 79.5zM657.997 707.999l0.000976562 -20.0029c-22 -6 -43.833 -18.667 -65.5 -38s-41.834 -41.666 -60.501 -66.999l-162 -216l-3.5 13l-3.5 13
l103 139c25.333 32 40.5 59.333 45.5 82s1.16699 40.334 -11.5 53.001s-32.667 19.667 -60 21v20c12.667 -0.666992 26.667 -1.16699 42 -1.5l45.5 -1c15 -0.333008 27.833 -0.5 38.5 -0.5c19.333 0 37 0.333008 53 1s29 1.33398 39 2.00098z" />
    <glyph glyph-name="Y" unicode="Y" horiz-adv-x="623" 
d="M617 709l-0.00195312 -20.001c-14.667 -6 -29.667 -17.833 -45 -35.5s-32.333 -44.5 -51 -80.5l-189 -374h-47l-234 433c-12 22.667 -22.833 37.667 -32.5 45s-18.167 11 -25.5 11v21c18 -2 36.5 -3.33301 55.5 -4s39.833 -1 62.5 -1c29.333 0 61 0.5 95 1.5
s65 2.16699 93 3.5v-21c-16.667 0 -31.667 -1.33301 -45 -4s-22.666 -7.5 -27.999 -14.5s-4 -18.167 4 -33.5l158 -304l-31 -40l103 207c24.667 48 37.834 85.667 39.501 113s-5 46.833 -20 58.5s-36.167 17.834 -63.5 18.501v20c22.667 -0.666992 44 -1.33398 64 -2.00098
s40.333 -1 61 -1c14.667 0 28.5 0.333008 41.5 1s24.5 1.33398 34.5 2.00098zM402.998 356.999l-0.00195312 -251c0 -24 1.83301 -42 5.5 -54s10.834 -20 21.501 -24s26.667 -6.66699 48 -8v-20c-18 1.33301 -41.167 2.16602 -69.5 2.49902s-56.5 0.5 -84.5 0.5
c-31.333 0 -61 -0.166992 -89 -0.5s-50 -1.16602 -66 -2.49902v20c21.333 1.33301 37.333 4 48 8s17.834 12 21.501 24s5.5 30 5.5 54v205l87 -62z" />
    <glyph glyph-name="Z" unicode="Z" horiz-adv-x="602" 
d="M557 708l-0.00195312 -19.998l-342 -665h104c22.667 0 45.5 3.66699 68.5 11s44.333 19.333 64 36s36.5 38.834 50.5 66.501s23.333 62.167 28 103.5h23c-2 -22.667 -3 -52 -3 -88c0 -15.333 0.333008 -37 1 -65s2.66699 -57 6 -87
c-24.667 1.33301 -51.667 2.16602 -81 2.49902s-58.5 0.5 -87.5 0.5h-80.5c-43.333 0 -88.666 -0.166992 -135.999 -0.5s-91.666 -1.16602 -132.999 -2.49902v20l343 665h-108c-25.333 0 -48.833 -3.33301 -70.5 -10s-41.5 -17.834 -59.5 -33.501s-33 -36.667 -45 -63
s-20.333 -59.166 -25 -98.499h-23c1.33301 9.33301 2.16602 20.666 2.49902 33.999s0.5 27.333 0.5 42c0 15.333 -0.5 37 -1.5 65s-2.83301 57 -5.5 87c22 -0.666992 46.333 -1.33398 73 -2.00098s53.167 -1 79.5 -1h72.5c44.667 0 92.334 0.166992 143.001 0.5
s98 1.16602 142 2.49902z" />
    <glyph glyph-name="bracketleft" unicode="[" horiz-adv-x="322" 
d="M285 772v-19h-57v-915h57v-19h-201v953h201z" />
    <glyph glyph-name="backslash" unicode="\" horiz-adv-x="368" 
d="M31 722h33l272 -736h-33z" />
    <glyph glyph-name="bracketright" unicode="]" horiz-adv-x="322" 
d="M38 772h201v-953h-201v19h57v915h-57v19z" />
    <glyph glyph-name="asciicircum" unicode="^" horiz-adv-x="529" 
d="M273 528c20 -38.667 47.667 -76.333 83 -113s74 -67 116 -91l-8 -14c-42 10 -83 22.667 -123 38s-72.333 30.666 -97 45.999c-19.333 -15.333 -45.5 -30.666 -78.5 -45.999s-66.833 -28 -101.5 -38l-8 14c42.667 23.333 81.5 53.5 116.5 90.5s62.5 74.833 82.5 113.5h18z
" />
    <glyph glyph-name="underscore" unicode="_" horiz-adv-x="591" 
d="M556 -84v-99h-490v99h490z" />
    <glyph glyph-name="grave" unicode="`" horiz-adv-x="296" 
d="M69 817c12 10.667 26.167 14.6689 42.5 12.002s29.5 -10.334 39.5 -23.001c11.333 -12.667 20.333 -27.667 27 -45l24.5 -62.5c9.66699 -24.333 24.167 -54.5 43.5 -90.5l-11 -9c-29.333 27.333 -54.5 48.666 -75.5 63.999l-54 39c-15 10.667 -28.167 22.667 -39.5 36
c-10.667 13.333 -15.667 27.5 -15 42.5s6.66699 27.167 18 36.5z" />
    <glyph glyph-name="a" unicode="a" horiz-adv-x="518" 
d="M162 -7c-30 0 -55 5.66797 -75 17.001s-34.667 26.5 -44 45.5s-14 39.833 -14 62.5c0 28.667 6.5 52 19.5 70s29.833 32.667 50.5 44s42.5 20.666 65.5 27.999l66 21.5c21 7 38 15.333 51 25s19.5 22.167 19.5 37.5v78c0 17.333 -2.83301 32.833 -8.5 46.5
s-14.334 24.167 -26.001 31.5s-26.834 11 -45.501 11c-13.333 0 -26.666 -1.83301 -39.999 -5.5s-24.333 -9.83398 -33 -18.501c18.667 -6.66699 33.167 -16.834 43.5 -30.501s15.5 -29.167 15.5 -46.5c0 -22.667 -7.83301 -40.667 -23.5 -54s-34.167 -20 -55.5 -20
c-24 0 -42.167 7.5 -54.5 22.5s-18.5 33.167 -18.5 54.5c0 19.333 4.83301 35.333 14.5 48s23.167 24.667 40.5 36c18.667 10.667 41.167 19 67.5 25s54.833 9 85.5 9s58.334 -3.16699 83.001 -9.5s45.334 -17.833 62.001 -34.5c15.333 -15.333 25.333 -34.166 30 -56.499
s7 -50.5 7 -84.5v-272c0 -16.667 1.66699 -28.167 5 -34.5s9 -9.5 17 -9.5c6 0 11.833 1.66699 17.5 5s11.834 7.33301 18.501 12l10 -17c-14 -12 -30.167 -21.167 -48.5 -27.5s-38.833 -9.5 -61.5 -9.5c-24.667 0 -44.334 3.5 -59.001 10.5s-25.167 16.5 -31.5 28.5
s-9.5 26 -9.5 42c-16 -25.333 -35.333 -45.166 -58 -59.499s-50.334 -21.5 -83.001 -21.5zM233 57.001c13.333 0 25.5 3.16797 36.5 9.50098s21.5 16.833 31.5 31.5v205c-6 -10 -14.333 -19 -25 -27l-34 -24.5c-12 -8.33301 -23.5 -17.5 -34.5 -27.5
s-19.833 -22.333 -26.5 -37s-10 -32.334 -10 -53.001c0 -26 5.66699 -45.333 17 -58s26.333 -19 45 -19z" />
    <glyph glyph-name="b" unicode="b" horiz-adv-x="586" 
d="M367 531c52 0 95.165 -21.166 129.498 -63.499s51.5 -107.5 51.5 -195.5c0 -69.333 -10.5 -125 -31.5 -167s-48.833 -72.333 -83.5 -91s-72.667 -28 -114 -28c-27.333 0 -52.666 4.66699 -75.999 14s-43.333 24.666 -60 45.999l14 5c12 -14.667 26.167 -25.667 42.5 -33
s32.5 -11 48.5 -11c36.667 0 64 20.667 82 62s27 104.333 27 189c0 57.333 -3.5 102.833 -10.5 136.5s-17.167 57.667 -30.5 72s-29.333 21.5 -48 21.5c-23.333 0 -44.666 -9.5 -63.999 -28.5s-30.333 -45.5 -33 -79.5l-5 35c12 38 32.333 66.833 61 86.5s62 29.5 100 29.5z
M213.998 782.001l-0.000976562 -761.998c-16.667 2.66699 -33.667 2.66699 -51 0s-33.333 -7.16699 -48 -13.5s-27 -13.833 -37 -22.5l-15 9c2.66699 9.33301 4.5 18.666 5.5 27.999s1.5 18.666 1.5 27.999v613c0 30 -4.5 52.167 -13.5 66.5s-25.833 21.5 -50.5 21.5v21
c21.333 -2 42 -3 62 -3c27.333 0 53.333 1.16699 78 3.5s47.334 5.83301 68.001 10.5z" />
    <glyph glyph-name="c" unicode="c" horiz-adv-x="496" 
d="M284 531c26 0 49.8398 -2.83008 71.5068 -8.49707s39.5 -12.834 53.5 -21.501c17.333 -10.667 30.833 -23.834 40.5 -39.501s14.5 -33.834 14.5 -54.501c0 -23.333 -7.33301 -42.5 -22 -57.5s-33.667 -22.5 -57 -22.5s-42 6.66699 -56 20s-21 31.333 -21 54
c0 21.333 6.66699 39.166 20 53.499s28.666 23.833 45.999 28.5c-5.33301 6.66699 -13.333 12.334 -24 17.001s-22.667 7 -36 7c-20.667 0 -38.834 -6 -54.501 -18s-28.834 -28.667 -39.501 -50s-18.834 -46.333 -24.501 -75s-8.5 -60 -8.5 -94
c0 -51.333 6.5 -91.666 19.5 -120.999s29.667 -50 50 -62s41.5 -18 63.5 -18c12.667 0 26.5 2 41.5 6s30.333 12 46 24s30.167 29 43.5 51l17 -6c-7.33301 -24.667 -19.333 -49.334 -36 -74.001s-38.334 -44.834 -65.001 -60.501s-59.334 -23.5 -98.001 -23.5
c-43.333 0 -82.5 9.5 -117.5 28.5s-63 48.333 -84 88s-31.5 90.834 -31.5 153.501c0 60 10.833 110.5 32.5 151.5s51.167 71.833 88.5 92.5s79.666 31 126.999 31z" />
    <glyph glyph-name="d" unicode="d" horiz-adv-x="598" 
d="M516 783v-673c0 -30 4.66699 -52.167 14 -66.5s26 -21.5 50 -21.5v-21c-20.667 2 -41.334 3 -62.001 3c-28 0 -54.167 -1 -78.5 -3s-46.833 -5.66699 -67.5 -11v673c0 30 -4.5 52.167 -13.5 66.5s-25.833 21.5 -50.5 21.5v21c21.333 -2 42 -3 62 -3
c27.333 0 53.333 1.16699 78 3.5s47.334 5.83301 68.001 10.5zM261 531c29.333 0 55.166 -4.83008 77.499 -14.4971s39.833 -25.834 52.5 -48.501l-12 -11c-8.66699 16 -20.167 27.5 -34.5 34.5s-29.5 10.5 -45.5 10.5c-34 0 -61 -19.833 -81 -59.5
s-29.667 -100.834 -29 -183.501c0 -56.667 3.83301 -101.834 11.5 -135.501s18.667 -57.834 33 -72.501s30.833 -22 49.5 -22c22.667 0 43 9 61 27s27.667 42.333 29 73l5 -35c-10 -35.333 -26.167 -62.166 -48.5 -80.499s-51.5 -27.5 -87.5 -27.5
c-39.333 0 -74.5 9.66699 -105.5 29s-55.167 49.166 -72.5 89.499s-26 92.5 -26 156.5c0 60.667 9.66699 110.834 29 150.501s45.833 69.5 79.5 89.5s71.834 30 114.501 30z" />
    <glyph glyph-name="e" unicode="e" horiz-adv-x="504" 
d="M282 531c58.667 0 104.667 -17.332 138 -51.999s50 -91.334 50 -170.001h-329l-2 19h205c0.666992 32.667 -1.33301 62.834 -6 90.501s-12 49.834 -22 66.501s-23.333 25 -40 25c-23.333 0 -43.166 -14.667 -59.499 -44s-26.166 -78 -29.499 -146l3 -6
c-0.666992 -8 -1.16699 -16.333 -1.5 -25s-0.5 -17.667 -0.5 -27c0 -46 6.5 -83.333 19.5 -112s29.5 -49.5 49.5 -62.5s40.333 -19.5 61 -19.5c14 0 28.5 2.16699 43.5 6.5s30.167 12.333 45.5 24s29.666 28.167 42.999 49.5l18 -6c-8 -25.333 -20.667 -50 -38 -74
s-39.333 -43.667 -66 -59s-58.667 -23 -96 -23c-45.333 0 -85.333 9.66699 -120 29s-61.834 48.666 -81.501 87.999s-29.5 89.333 -29.5 150c0 62 10.5 113.667 31.5 155s50 72.166 87 92.499s79.167 30.5 126.5 30.5z" />
    <glyph glyph-name="f" unicode="f" horiz-adv-x="352" 
d="M288 782c23.333 0 43.667 -2.99805 61 -8.99805s32.666 -14 45.999 -24c9.33301 -7.33301 17.333 -17.5 24 -30.5s10 -27.833 10 -44.5c0 -18 -6.5 -34 -19.5 -48s-30.167 -21 -51.5 -21c-22 0 -40.167 6.33301 -54.5 19s-21.5 30 -21.5 52c0 17.333 5 32.666 15 45.999
s24.667 22.666 44 27.999c-2 4 -6 7.33301 -12 10s-14 4 -24 4c-13.333 0 -24.333 -2.33301 -33 -7s-15.667 -11 -21 -19c-7.33301 -10 -12.333 -24.5 -15 -43.5s-4 -48.167 -4 -87.5v-91h107v-20h-107v-393c0 -32.667 8.33301 -54.5 25 -65.5s39.667 -16.5 69 -16.5v-21
c-17.333 0.666992 -41.666 1.5 -72.999 2.5s-64.333 1.5 -99 1.5c-25.333 0 -50.166 -0.5 -74.499 -1.5s-42.833 -1.83301 -55.5 -2.5v21c23.333 0 39.833 5 49.5 15s14.5 29 14.5 57v403h-68v20h68c0 39.333 2 72.166 6 98.499s10.667 48.833 20 67.5
s21.666 35.334 36.999 50.001c14.667 14 34.167 25.833 58.5 35.5s50.5 14.5 78.5 14.5z" />
    <glyph glyph-name="g" unicode="g" horiz-adv-x="553" 
d="M218 -188c-41.333 0 -78.1709 3.50293 -110.504 10.5029s-57.666 17.667 -75.999 32s-27.5 31.833 -27.5 52.5s9.33301 39.167 28 55.5s46.334 29.166 83.001 38.499l9 -16c-12.667 -10 -21.834 -20.833 -27.501 -32.5s-8.5 -23.834 -8.5 -36.501
c0 -28 12.833 -49.5 38.5 -64.5s60.5 -22.5 104.5 -22.5c30 0 56.833 4 80.5 12s42.334 20 56.001 36s20.5 35.667 20.5 59c0 20 -7.33301 36.833 -22 50.5s-44 20.5 -88 20.5h-62c-27.333 0 -51.166 3 -71.499 9s-36.166 15.5 -47.499 28.5s-17 29.5 -17 49.5
c0 28 11 52.667 33 74s54.667 41.333 98 60l10 -8c-12.667 -8 -24.5 -16.5 -35.5 -25.5s-16.5 -20.5 -16.5 -34.5c0 -21.333 13.333 -32 40 -32h109c36.667 0 69.5 -4.33301 98.5 -13s52 -22.834 69 -42.501s25.5 -45.167 25.5 -76.5c0 -32.667 -10.5 -63 -31.5 -91
s-53.167 -50.5 -96.5 -67.5s-98.333 -25.5 -165 -25.5zM227.995 213.003c-38 0 -72 5.66699 -102 17s-53.667 28.666 -71 51.999s-26 53.333 -26 90s8.66699 66.834 26 90.501s41 41 71 52s64 16.5 102 16.5s72 -5.5 102 -16.5s53.667 -28.333 71 -52s26 -53.834 26 -90.501
s-8.66699 -66.667 -26 -90s-41 -40.666 -71 -51.999s-64 -17 -102 -17zM227.995 231.003c18 0 32 10.167 42 30.5s15 57.166 15 110.499s-5 90.166 -15 110.499s-24 30.5 -42 30.5c-17.333 0 -31.166 -10.167 -41.499 -30.5s-15.5 -57.166 -15.5 -110.499
s5.16699 -90.166 15.5 -110.499s24.166 -30.5 41.499 -30.5zM383.995 445.003l-20.001 7c10 26 26.167 47.667 48.5 65s46.5 26 72.5 26c21.333 0 37.5 -5.83301 48.5 -17.5s16.5 -26.834 16.5 -45.501c0 -20 -5.33301 -34.833 -16 -44.5s-22.667 -14.5 -36 -14.5
c-11.333 0 -21.833 4 -31.5 12s-15.167 20.167 -16.5 36.5s4.33398 37.5 17.001 63.5l7 -6c-25.333 -9.33301 -44.333 -20.166 -57 -32.499s-23.667 -28.833 -33 -49.5z" />
    <glyph glyph-name="h" unicode="h" horiz-adv-x="608" 
d="M227 782v-344.001c16.667 34.667 39.167 58.834 67.5 72.501s60.166 20.5 95.499 20.5c28.667 0 51.667 -3.5 69 -10.5s31 -16.5 41 -28.5c11.333 -12.667 19.5 -29 24.5 -49s7.5 -47 7.5 -81v-269c0 -28 4.83301 -47 14.5 -57s26.167 -15 49.5 -15v-21
c-12.667 0.666992 -31.834 1.5 -57.501 2.5s-50.5 1.5 -74.5 1.5c-26 0 -51.167 -0.5 -75.5 -1.5s-42.5 -1.83301 -54.5 -2.5v21c20 0 34 5 42 15s12 29 12 57v311c0 16.667 -1.66699 31.167 -5 43.5s-9.5 22 -18.5 29s-21.833 10.5 -38.5 10.5
c-18 0 -34.5 -4.83301 -49.5 -14.5s-27 -23.167 -36 -40.5s-13.5 -37.333 -13.5 -60v-279c0 -28 4 -47 12 -57s22 -15 42 -15v-21c-12 0.666992 -29.667 1.5 -53 2.5s-47 1.5 -71 1.5c-26 0 -52.167 -0.5 -78.5 -1.5s-46.166 -1.83301 -59.499 -2.5v21
c23.333 0 39.833 5 49.5 15s14.5 29 14.5 57v569c0 30 -4.5 52.167 -13.5 66.5s-25.833 21.5 -50.5 21.5v21c21.333 -2 42 -3 62 -3c27.333 0 53.333 1.16699 78 3.5s47.334 5.83301 68.001 10.5z" />
    <glyph glyph-name="i" unicode="i" horiz-adv-x="315" 
d="M154 775c28 0 50.167 -6.83301 66.5 -20.5s24.5 -32.5 24.5 -56.5s-8.16699 -42.833 -24.5 -56.5s-38.5 -20.5 -66.5 -20.5s-50.167 6.83301 -66.5 20.5s-24.5 32.5 -24.5 56.5s8.16699 42.833 24.5 56.5s38.5 20.5 66.5 20.5zM232 528v-435c0 -28 4.83301 -47 14.5 -57
s26.167 -15 49.5 -15v-21c-12 0.666992 -30.667 1.5 -56 2.5s-51 1.5 -77 1.5s-52.333 -0.5 -79 -1.5s-46.667 -1.83301 -60 -2.5v21c23.333 0 39.833 5 49.5 15s14.5 29 14.5 57v315c0 30 -4.5 52.167 -13.5 66.5s-25.833 21.5 -50.5 21.5v21c21.333 -2 42 -3 62 -3
c28 0 54.167 1.16699 78.5 3.5s46.833 5.83301 67.5 10.5z" />
    <glyph glyph-name="j" unicode="j" horiz-adv-x="297" 
d="M-23 -188v18c32.667 0.666992 58.667 13.5 78 38.5s29 62.833 29 113.5v426c0 30 -4.66699 52.167 -14 66.5s-26 21.5 -50 21.5v21c21.333 -2 42 -3 62 -3c27.333 0 53.333 1.16699 78 3.5s47.334 5.83301 68.001 10.5v-434c0 -36.667 -2.33301 -69 -7 -97
s-12.334 -52.667 -23.001 -74s-24.667 -40.333 -42 -57c-16.667 -16 -39.5 -29 -68.5 -39s-65.833 -15 -110.5 -15zM145 775c28 0 50.167 -6.83301 66.5 -20.5s24.5 -32.5 24.5 -56.5s-8.16699 -42.833 -24.5 -56.5s-38.5 -20.5 -66.5 -20.5s-50.167 6.83301 -66.5 20.5
s-24.5 32.5 -24.5 56.5s8.16699 42.833 24.5 56.5s38.5 20.5 66.5 20.5z" />
    <glyph glyph-name="k" unicode="k" horiz-adv-x="585" 
d="M227 783l-0.00292969 -690c0 -28 4.5 -47 13.5 -57s24.5 -15 46.5 -15v-21c-12.667 0.666992 -31.167 1.5 -55.5 2.5s-49.166 1.5 -74.499 1.5c-26 0 -52.167 -0.5 -78.5 -1.5s-46.166 -1.83301 -59.499 -2.5v21c23.333 0 39.833 5 49.5 15s14.5 29 14.5 57v570
c0 30 -4.5 52.167 -13.5 66.5s-25.833 21.5 -50.5 21.5v21c21.333 -2 42 -3 62 -3c27.333 0 53.333 1.16699 78 3.5s47.334 5.83301 68.001 10.5zM552.997 517l0.00195312 -19.998c-20.667 -4 -41.334 -12.667 -62.001 -26s-41.667 -30.333 -63 -51l-77 -80l10 19l171 -286
c7.33301 -12 15 -22.667 23 -32s17.667 -16 29 -20v-21c-10 0.666992 -25 1.5 -45 2.5s-40 1.5 -60 1.5c-24.667 0 -49.334 -0.5 -74.001 -1.5s-43 -1.83301 -55 -2.5v21c13.333 0 22.333 3.16699 27 9.5s4 14.5 -2 24.5l-99 179c-8 12.667 -15.833 20.834 -23.5 24.501
s-17.834 5.83398 -30.501 6.50098v19c14 1.33301 26.167 3.66602 36.5 6.99902s19.833 9.66602 28.5 18.999l76 74c22.667 21.333 34 40.333 34 57s-7.16699 30 -21.5 40s-33.166 15.333 -56.499 16v20c18.667 -0.666992 39 -1.33398 61 -2.00098s40.667 -1 56 -1
c13.333 0 27.5 0.166992 42.5 0.5s29.167 0.666016 42.5 0.999023s24 0.833008 32 1.5z" />
    <glyph glyph-name="l" unicode="l" horiz-adv-x="311" 
d="M228 783l-0.00195312 -690c0 -28 4.83301 -47 14.5 -57s26.167 -15 49.5 -15v-21c-12.667 0.666992 -31.667 1.5 -57 2.5s-51 1.5 -77 1.5s-52.167 -0.5 -78.5 -1.5s-46.166 -1.83301 -59.499 -2.5v21c23.333 0 39.833 5 49.5 15s14.5 29 14.5 57v570
c0 30 -4.5 52.167 -13.5 66.5s-25.833 21.5 -50.5 21.5v21c21.333 -2 42 -3 62 -3c27.333 0 53.333 1.16699 78 3.5s47.334 5.83301 68.001 10.5z" />
    <glyph glyph-name="m" unicode="m" horiz-adv-x="905" 
d="M387 531c28 0 50.666 -3.5 67.999 -10.5s31.333 -16.5 42 -28.5c10.667 -12.667 18.334 -29.167 23.001 -49.5s7 -47.166 7 -80.499v-269c0 -28 4.33301 -47 13 -57s23.667 -15 45 -15v-21c-12 0.666992 -30.167 1.5 -54.5 2.5s-48.166 1.5 -71.499 1.5
c-24 0 -47.667 -0.5 -71 -1.5s-41 -1.83301 -53 -2.5v21c18 0 30.5 5 37.5 15s10.5 29 10.5 57v311c0 16.667 -1.33301 31.167 -4 43.5s-7.83398 22 -15.501 29s-19.167 10.5 -34.5 10.5c-17.333 0 -33.333 -5 -48 -15s-26.5 -23.833 -35.5 -41.5s-13.5 -37.5 -13.5 -59.5
v-278c0 -28 3.66699 -47 11 -57s19.666 -15 36.999 -15v-21c-10.667 0.666992 -27.167 1.5 -49.5 2.5s-45.166 1.5 -68.499 1.5c-25.333 0 -51.333 -0.5 -78 -1.5s-46.667 -1.83301 -60 -2.5v21c23.333 0 39.833 5 49.5 15s14.5 29 14.5 57v315c0 30 -4.5 52.167 -13.5 66.5
s-25.833 21.5 -50.5 21.5v21c21.333 -2 42 -3 62 -3c28 0 54.167 1.16699 78.5 3.5s46.833 5.83301 67.5 10.5v-90c16 33.333 37.667 57.166 65 71.499s57.333 21.5 90 21.5zM687.999 531c28 0 50.665 -3.50098 67.998 -10.501s31.333 -16.5 42 -28.5
c10.667 -12.667 18.334 -29.167 23.001 -49.5s7 -47.166 7 -80.499v-269c0 -28 4.83301 -47 14.5 -57s26.167 -15 49.5 -15v-21c-12.667 0.666992 -31.667 1.5 -57 2.5s-50.333 1.5 -75 1.5c-24 0 -47.667 -0.5 -71 -1.5s-41 -1.83301 -53 -2.5v21c18 0 30.5 5 37.5 15
s10.5 29 10.5 57v311c0 16.667 -1.5 31.167 -4.5 43.5s-8.66699 22 -17 29s-21.166 10.5 -38.499 10.5s-33.333 -5.33301 -48 -16s-26.5 -25 -35.5 -43s-13.833 -38 -14.5 -60l-5 61c18 40 41.833 67 71.5 81s61.5 21 95.5 21z" />
    <glyph glyph-name="n" unicode="n" horiz-adv-x="614" 
d="M396 531c28 0 50.832 -3.5 68.499 -10.5s31.5 -16.5 41.5 -28.5c10.667 -12.667 18.5 -29 23.5 -49s7.5 -47 7.5 -81v-269c0 -28 4.83301 -47 14.5 -57s26.167 -15 49.5 -15v-21c-12.667 0.666992 -31.667 1.5 -57 2.5s-50.333 1.5 -75 1.5
c-25.333 0 -50.166 -0.5 -74.499 -1.5s-42.833 -1.83301 -55.5 -2.5v21c20 0 34 5 42 15s12 29 12 57v311c0 16.667 -1.66699 31.167 -5 43.5s-9.33301 22 -18 29s-21.667 10.5 -39 10.5c-18 0 -34.5 -5 -49.5 -15s-27 -23.833 -36 -41.5s-13.5 -37.5 -13.5 -59.5v-278
c0 -28 4.16699 -47 12.5 -57s22.166 -15 41.499 -15v-21c-12 0.666992 -29.5 1.5 -52.5 2.5s-46.833 1.5 -71.5 1.5c-25.333 0 -51.333 -0.5 -78 -1.5s-46.667 -1.83301 -60 -2.5v21c23.333 0 39.833 5 49.5 15s14.5 29 14.5 57v315c0 30 -4.5 52.167 -13.5 66.5
s-25.833 21.5 -50.5 21.5v21c21.333 -2 42 -3 62 -3c28 0 54.167 1.16699 78.5 3.5s46.833 5.83301 67.5 10.5v-90c16.667 34 39.334 58 68.001 72s60.667 21 96 21z" />
    <glyph glyph-name="o" unicode="o" horiz-adv-x="565" 
d="M282 531c48.667 0 91.334 -9 128.001 -27s65.334 -47 86.001 -87s31 -93 31 -159s-10.333 -118.833 -31 -158.5s-49.334 -68.5 -86.001 -86.5s-79.334 -27 -128.001 -27c-47.333 0 -89.5 9 -126.5 27s-66 46.833 -87 86.5s-31.5 92.5 -31.5 158.5s10.5 119 31.5 159
s50 69 87 87s79.167 27 126.5 27zM282 511c-26.667 0 -49 -19.833 -67 -59.5s-27 -104.167 -27 -193.5s9 -153.666 27 -192.999s40.333 -59 67 -59c27.333 0 49.833 19.667 67.5 59s26.5 103.666 26.5 192.999s-8.83301 153.833 -26.5 193.5s-40.167 59.5 -67.5 59.5z" />
    <glyph glyph-name="p" unicode="p" horiz-adv-x="600" 
d="M228 528l-0.000976562 -610.001c0 -31.333 8 -52.166 24 -62.499s38 -15.5 66 -15.5v-21c-17.333 0.666992 -41.166 1.5 -71.499 2.5s-62.5 1.5 -96.5 1.5c-24.667 0 -48.834 -0.5 -72.501 -1.5s-41.5 -1.83301 -53.5 -2.5v21c22 0 37.5 4.66699 46.5 14
s13.5 27.333 13.5 54v500c0 30 -4.66699 52.167 -14 66.5s-26 21.5 -50 21.5v21c21.333 -2 42 -3 62 -3c27.333 0 53.333 1.16699 78 3.5s47.334 5.83301 68.001 10.5zM382.999 530.999c34 0 64.3311 -9.16504 90.998 -27.498s48 -46 64 -83s24 -83.167 24 -138.5
c0 -48.667 -5.5 -91.334 -16.5 -128.001s-26.667 -67.5 -47 -92.5s-44.666 -43.833 -72.999 -56.5s-60.166 -19 -95.499 -19c-26 0 -49.667 4.5 -71 13.5s-37.666 21.833 -48.999 38.5l10 13c6.66699 -12 16.167 -21.333 28.5 -28s26.5 -10 42.5 -10
c30 0 53.667 10.167 71 30.5s29.833 49 37.5 86s11.5 81.167 11.5 132.5c0 57.333 -3.66699 102.333 -11 135s-17.333 56 -30 70s-28 21 -46 21c-24 0 -45.833 -9.33301 -65.5 -28s-30.834 -45.334 -33.501 -80.001l-5 35c12 38 32.5 66.833 61.5 86.5
s62.833 29.5 101.5 29.5z" />
    <glyph glyph-name="q" unicode="q" horiz-adv-x="585" 
d="M256 531c31.333 0 58.333 -4.16406 81 -12.4971s42.334 -23.833 59.001 -46.5l-15 -5c-10 15.333 -22.667 26.333 -38 33s-31.666 10 -48.999 10c-34.667 0 -61 -20.667 -79 -62s-27 -104.333 -27 -189c0 -56.667 4 -101.834 12 -135.501s19.167 -57.834 33.5 -72.501
s31.166 -22 50.499 -22c22 0 42.167 9.66699 60.5 29s28.166 45.666 29.499 78.999l5 -35c-10 -38 -26.667 -66.833 -50 -86.5s-52.333 -29.5 -87 -29.5c-38 0 -72.5 9.66699 -103.5 29s-55.667 49.166 -74 89.499s-27.5 92.5 -27.5 156.5
c0 60.667 9.33301 110.834 28 150.501s44.5 69.5 77.5 89.5s70.833 30 113.5 30zM507 533.003l14.999 -7.99805c-2.66699 -8.66699 -4.5 -17.834 -5.5 -27.501s-1.5 -19.5 -1.5 -29.5v-560c0 -26.667 4.5 -44.667 13.5 -54s24.5 -14 46.5 -14v-21
c-12 0.666992 -29.667 1.5 -53 2.5s-47.666 1.5 -72.999 1.5c-33.333 0 -65.333 -0.5 -96 -1.5s-54.667 -1.83301 -72 -2.5v21c28.667 0 50.834 5.16699 66.501 15.5s23.5 31.166 23.5 62.499v573c17.333 -1.33301 34.666 -0.333008 51.999 3s33.5 8.5 48.5 15.5
s26.833 14.833 35.5 23.5z" />
    <glyph glyph-name="r" unicode="r" horiz-adv-x="467" 
d="M368 531c21.333 0 38.667 -4.50293 52 -13.5029s23.166 -20.5 29.499 -34.5s9.5 -28.667 9.5 -44c0 -24.667 -7.16699 -44.834 -21.5 -60.501s-33.166 -23.5 -56.499 -23.5s-41.5 5.83301 -54.5 17.5s-19.5 27.167 -19.5 46.5c0 18.667 4.16699 34.167 12.5 46.5
s18.833 22.833 31.5 31.5c-9.33301 2.66699 -18.666 2.33398 -27.999 -0.999023c-12.667 -2 -24.667 -7.16699 -36 -15.5s-21 -18.666 -29 -30.999s-14.333 -25.666 -19 -39.999s-7 -28.166 -7 -41.499v-265c0 -32 7.83301 -53.667 23.5 -65s39.167 -17 70.5 -17v-21
c-15.333 0.666992 -37.666 1.5 -66.999 2.5s-60 1.5 -92 1.5c-26.667 0 -53.667 -0.5 -81 -1.5s-48 -1.83301 -62 -2.5v21c23.333 0 39.833 5 49.5 15s14.5 29 14.5 57v315c0 30 -4.5 52.167 -13.5 66.5s-25.833 21.5 -50.5 21.5v21c21.333 -2 42 -3 62 -3
c28 0 54.167 1.16699 78.5 3.5s46.833 5.83301 67.5 10.5v-93c8 18 18.667 34.333 32 49s28.666 26.167 45.999 34.5s36.666 12.5 57.999 12.5z" />
    <glyph glyph-name="s" unicode="s" horiz-adv-x="462" 
d="M222 531c28 0 52.498 -3.50293 73.498 -10.5029s36.167 -13.833 45.5 -20.5c22.667 -15.333 36.667 -5.33301 42 30h21c-1.33301 -18.667 -2.33301 -41.5 -3 -68.5s-1 -62.833 -1 -107.5h-21c-3.33301 24.667 -9.66602 49 -18.999 73s-22.833 43.667 -40.5 59
s-40.5 23 -68.5 23c-19.333 0 -35.666 -5.5 -48.999 -16.5s-20 -26.833 -20 -47.5c0 -20 6 -37.5 18 -52.5s27.5 -29.333 46.5 -43l59.5 -43.5c22 -16.667 42 -33.167 60 -49.5s32.333 -34.166 43 -53.499s16 -42.333 16 -69c0 -30 -8.66699 -56.167 -26 -78.5
s-40.166 -39.5 -68.499 -51.5s-59.833 -18 -94.5 -18c-20 0 -37.833 2 -53.5 6s-29.167 9 -40.5 15l-24.5 11.5c-7.66699 3.66699 -14.834 6.83398 -21.501 9.50098c-6.66699 2 -12.5 -0.333008 -17.5 -7s-8.83301 -16 -11.5 -28h-21c1.33301 21.333 2.33301 47.333 3 78
s1 71.334 1 122.001h21c4 -36 11.333 -67.833 22 -95.5s25.167 -49.334 43.5 -65.001s41.5 -23.5 69.5 -23.5c11.333 0 22.333 2.33301 33 7s19.5 12.334 26.5 23.001s10.5 24.334 10.5 41.001c0 29.333 -9.5 53.666 -28.5 72.999s-43.167 40.333 -72.5 63
c-21.333 17.333 -41.5 34.5 -60.5 51.5s-34.5 35.667 -46.5 56s-18 43.5 -18 69.5c0 30 8 55.333 24 76s37.167 36.167 63.5 46.5s54.5 15.5 84.5 15.5z" />
    <glyph glyph-name="t" unicode="t" horiz-adv-x="352" 
d="M227 681l0.000976562 -164.002h118v-20h-118v-404c0 -20 3.66699 -34.167 11 -42.5s18.333 -12.5 33 -12.5c12 0 24 4.5 36 13.5s22.667 24.5 32 46.5l17 -9c-10.667 -30 -26.834 -54.667 -48.501 -74s-51.167 -29 -88.5 -29c-22 0 -41.333 2.83301 -58 8.5
s-30.667 14.167 -42 25.5c-14.667 14.667 -24.334 32.834 -29.001 54.501s-7 49.834 -7 84.501v338h-84v20h84v132c28 0 53.833 2.5 77.5 7.5s45.834 13.167 66.501 24.5z" />
    <glyph glyph-name="u" unicode="u" horiz-adv-x="606" 
d="M522 528v-419.001c0 -30 4.66699 -52.167 14 -66.5s26 -21.5 50 -21.5v-21c-20.667 2 -41.334 3 -62.001 3c-28 0 -54 -1 -78 -3s-46.667 -5.66699 -68 -11v90c-16 -33.333 -38.167 -57.166 -66.5 -71.499s-59.833 -21.5 -94.5 -21.5c-28 0 -50.667 3.66699 -68 11
s-31 16.666 -41 27.999c-11.333 12.667 -19.333 29.334 -24 50.001s-7 47.334 -7 80.001v253c0 30 -4.5 52.167 -13.5 66.5s-25.833 21.5 -50.5 21.5v21c21.333 -2 42 -3 62 -3c28 0 54.167 1.16699 78.5 3.5s46.833 5.83301 67.5 10.5v-414
c0 -16.667 1.5 -31.334 4.5 -44.001s8.83301 -22.5 17.5 -29.5s21.334 -10.5 38.001 -10.5c18 0 34.167 5 48.5 15s26 23.833 35 41.5s13.5 37.5 13.5 59.5v262c0 30 -4.5 52.167 -13.5 66.5s-25.833 21.5 -50.5 21.5v21c21.333 -2 42 -3 62 -3
c28 0 54.167 1.16699 78.5 3.5s46.833 5.83301 67.5 10.5z" />
    <glyph glyph-name="v" unicode="v" horiz-adv-x="508" 
d="M507 517l-0.00195312 -20.0039c-12.667 -3.33301 -24.667 -11.166 -36 -23.499s-22.333 -33.166 -33 -62.499l-146 -413c-10.667 0.666992 -21.5 1 -32.5 1s-21.833 -0.333008 -32.5 -1l-178 442c-10.667 26 -21.167 41.833 -31.5 47.5s-19.166 8.5 -26.499 8.5v21
c21.333 -1.33301 43.5 -2.5 66.5 -3.5s48.167 -1.5 75.5 -1.5c20.667 0 42.5 0.5 65.5 1.5s44.5 2.16699 64.5 3.5v-21c-14 0 -26.5 -0.666992 -37.5 -2s-18.5 -5.66602 -22.5 -12.999s-3.33301 -20.333 2 -39l117 -310l-10 -14l79 219c12.667 36 18 65.5 16 88.5
s-9.33301 40.333 -22 52s-29.667 18.167 -51 19.5v20c10 -0.666992 20.833 -1.16699 32.5 -1.5l34 -1c11 -0.333008 20.833 -0.5 29.5 -0.5c13.333 0 27.333 0.333008 42 1s26.334 1.33398 35.001 2.00098z" />
    <glyph glyph-name="w" unicode="w" horiz-adv-x="787" 
d="M265 517l0.000976562 -20.999c-14.667 0 -27.5 -0.833008 -38.5 -2.5s-18.333 -6.5 -22 -14.5s-2.5 -21 3.5 -39l95 -297l-13 -14l117 389l20 -9l-153 -511c-10.667 0.666992 -21.334 1 -32.001 1s-21.667 -0.333008 -33 -1l-158 442
c-9.33301 26.667 -19.5 42.667 -30.5 48s-20.167 8 -27.5 8v21c21.333 -2 43.5 -3.5 66.5 -4.5s48.167 -1.5 75.5 -1.5c20.667 0 42.5 0.666992 65.5 2s44.5 2.66602 64.5 3.99902zM787.001 517.001l0.00195312 -20.001c-12.667 -3.33301 -24.667 -11 -36 -23
s-22 -33 -32 -63l-133 -413c-10.667 0.666992 -21.5 1 -32.5 1s-21.833 -0.333008 -32.5 -1l-141 385l27 135c12 -0.666992 24.167 -0.833984 36.5 -0.500977s24.5 0.5 36.5 0.5l137 -404l-11 11l67 212c11.333 36.667 15.666 66.334 12.999 89.001s-10.667 39.667 -24 51
s-31.333 18 -54 20v20c10.667 -0.666992 22.167 -1.16699 34.5 -1.5l37 -1c12.333 -0.333008 22.833 -0.5 31.5 -0.5c13.333 0 27.166 0.333008 41.499 1s25.833 1.33398 34.5 2.00098z" />
    <glyph glyph-name="x" unicode="x" horiz-adv-x="536" 
d="M246 517v-21.001c-13.333 0 -23.166 -3 -29.499 -9s-6.16602 -14.333 0.500977 -25l263 -391c8 -12 16.5 -22.833 25.5 -32.5s19.167 -15.5 30.5 -17.5v-21c-10 0.666992 -25.167 1.5 -45.5 2.5s-40.833 1.5 -61.5 1.5c-24 0 -48.667 -0.5 -74 -1.5
s-44 -1.83301 -56 -2.5v21c13.333 0 23.166 3 29.499 9s6.16602 14.333 -0.500977 25l-263 391c-11.333 16.667 -20.833 28.834 -28.5 36.501s-16.834 12.167 -27.501 13.5v21c11.333 -0.666992 28.333 -1.5 51 -2.5s45.334 -1.5 68.001 -1.5c22 0 44.333 0.5 67 1.5
s39.667 1.83301 51 2.5zM223 240.999l1.50098 -6.00098l3 -12l1.5 -6l-40 -51c-20 -26 -31 -49.833 -33 -71.5s3.66699 -39 17 -52s31.666 -20.5 54.999 -22.5v-20c-12.667 0.666992 -28.167 1.16699 -46.5 1.5l-53.5 1c-17.333 0.333008 -32 0.5 -44 0.5
c-14.667 0 -27.5 -0.166992 -38.5 -0.5s-21.5 -1.16602 -31.5 -2.49902v20c15.333 6 30 14.833 44 26.5s29.667 28.5 47 50.5zM507.001 516.998l0.00195312 -20c-14 -4 -28.667 -12.667 -44 -26s-31.333 -30.333 -48 -51l-110 -138l-1.5 5.5l-3 11.5l-1.5 6l50 67
c18 23.333 29 44 33 62s1.16699 32.667 -8.5 44s-26.5 17.666 -50.5 18.999v20l59 -2c20 -0.666992 38 -1 54 -1c15.333 0 28.666 0.333008 39.999 1s21.666 1.33398 30.999 2.00098z" />
    <glyph glyph-name="y" unicode="y" horiz-adv-x="519" 
d="M513 517l-0.000976562 -20c-12.667 -3.33301 -24.667 -11.166 -36 -23.499s-22.333 -33.166 -33 -62.499l-141 -396l-37 -70l-218 495c-11.333 26 -22.5 41.833 -33.5 47.5s-20.5 8.5 -28.5 8.5v21c22 -2 44.833 -3.5 68.5 -4.5s46.5 -1.5 68.5 -1.5
c27.333 0 52.333 0.666992 75 2s44 2.66602 64 3.99902v-21c-13.333 0 -25.833 -0.833008 -37.5 -2.5s-19.667 -6.33398 -24 -14.001s-2.5 -20.834 5.5 -39.501l126 -304l-9 -6l74 207c12.667 36 18 65.5 16 88.5s-9.33301 40.333 -22 52s-30 18.167 -52 19.5v20
c10.667 -0.666992 21.667 -1.16699 33 -1.5l34 -1c11.333 -0.333008 21.333 -0.5 30 -0.5c13.333 0 27.333 0.333008 42 1s26.334 1.33398 35.001 2.00098zM302.999 15l-38 -106.998c-6.66699 -16.667 -13.5 -30.834 -20.5 -42.501s-14.833 -21.167 -23.5 -28.5
c-9.33301 -8 -21.333 -14.167 -36 -18.5s-31.667 -6.5 -51 -6.5c-16 0 -32.5 2.66699 -49.5 8s-31.167 14 -42.5 26s-17 27.333 -17 46c0 20.667 7.33301 37.167 22 49.5s34 18.5 58 18.5c22 0 40 -5.33301 54 -16s21 -26.334 21 -47.001c0 -13.333 -4.16699 -26 -12.5 -38
s-20.833 -21 -37.5 -27c3.33301 -0.666992 7.33301 -1 12 -1h11c20 0 37.667 6.33301 53 19s28 32.667 38 60l35 103z" />
    <glyph glyph-name="z" unicode="z" horiz-adv-x="474" 
d="M444 522l-250.003 -507h52c26 0 50.5 5.5 73.5 16.5s42.333 29.5 58 55.5s25.167 61.667 28.5 107h21c0 -48.667 0.333008 -88.5 1 -119.5s1.66699 -57.167 3 -78.5c-30 1.33301 -61.333 2.33301 -94 3s-65.334 1 -98.001 1c-34 0 -69 -0.5 -105 -1.5
s-70.333 -2.16699 -103 -3.5l250 507h-56c-26.667 0 -51.167 -5.5 -73.5 -16.5s-40.666 -29.667 -54.999 -56s-23.5 -61.833 -27.5 -106.5h-21c0 49.333 -0.333008 89.333 -1 120s-1.66699 56.667 -3 78c30.667 -1.33301 62.334 -2.33301 95.001 -3s65 -1 97 -1
c34.667 0 69.834 0.5 105.501 1.5s69.834 2.16699 102.501 3.5z" />
    <glyph glyph-name="braceleft" unicode="{" horiz-adv-x="333" 
d="M316 782v-19.0029c-14.667 -0.666992 -26.834 -3.33398 -36.501 -8.00098s-17.167 -14 -22.5 -28s-9.16602 -35 -11.499 -63s-3.5 -65.667 -3.5 -113c0 -44.667 -5.33301 -82 -16 -112s-25.167 -54.333 -43.5 -73s-39.333 -33.167 -63 -43.5s-48.5 -18.166 -74.5 -23.499
c26 -5.33301 50.833 -13.166 74.5 -23.499s44.667 -24.833 63 -43.5s32.833 -43 43.5 -73s16 -67.333 16 -112c0 -49.333 1.16699 -88.333 3.5 -117s6.16602 -50.167 11.499 -64.5s12.833 -23.666 22.5 -27.999s21.834 -6.5 36.501 -6.5v-19
c-52.667 0 -95 6.83301 -127 20.5s-55.167 37.5 -69.5 71.5s-21.5 81.667 -21.5 143c0 62.667 -2.16699 111.167 -6.5 145.5s-11.833 58.833 -22.5 73.5s-26.334 22.667 -47.001 24h-5v18h5c20.667 1.33301 36.334 9.16602 47.001 23.499s18.167 38.833 22.5 73.5
s6.5 83.334 6.5 146.001c0 58.667 7.16699 104.834 21.5 138.501s37.5 57.5 69.5 71.5s74.333 21 127 21z" />
    <glyph glyph-name="bar" unicode="|" horiz-adv-x="253" 
d="M171 858v-1053h-88v1053h88z" />
    <glyph glyph-name="braceright" unicode="}" horiz-adv-x="333" 
d="M17 782c54 0 96.833 -6.99707 128.5 -20.9971s54.5 -37.833 68.5 -71.5s21 -79.834 21 -138.501c0 -62.667 2.16699 -111.334 6.5 -146.001s12 -59.167 23 -73.5s26.5 -22.166 46.5 -23.499h5v-18h-5c-20 -1.33301 -35.5 -9.33301 -46.5 -24s-18.667 -39.167 -23 -73.5
s-6.5 -82.833 -6.5 -145.5c0 -61.333 -7 -109 -21 -143s-36.833 -57.833 -68.5 -71.5s-74.5 -20.5 -128.5 -20.5v19c14.667 0 27 2.16699 37 6.5s17.667 13.666 23 27.999s9 35.833 11 64.5s3 67.667 3 117c0 44.667 5.5 82 16.5 112s25.5 54.333 43.5 73s39 33.167 63 43.5
s48.667 18.166 74 23.499c-25.333 5.33301 -50 13.166 -74 23.499s-45 24.833 -63 43.5s-32.5 43 -43.5 73s-16.5 67.333 -16.5 112c0 47.333 -1 85 -3 113s-5.66699 49 -11 63s-13 23.333 -23 28s-22.333 7.33398 -37 8.00098v19z" />
    <glyph glyph-name="asciitilde" unicode="~" horiz-adv-x="668" 
d="M213 389c27.333 0 52.3301 -4.5 74.9971 -13.5s44.834 -19.333 66.501 -31s43.667 -22 66 -31s45.833 -13.5 70.5 -13.5c22.667 0 42.834 5.16699 60.501 15.5s31.5 28.5 41.5 54.5l18 -4c-3.33301 -31.333 -12.166 -58.666 -26.499 -81.999s-32.666 -41.333 -54.999 -54
s-46.5 -19 -72.5 -19c-26.667 0 -51.5 4.5 -74.5 13.5s-45.167 19.333 -66.5 31s-43 22 -65 31s-46 13.5 -72 13.5c-22 0 -41.833 -5.16699 -59.5 -15.5s-31.834 -28.5 -42.501 -54.5l-17 4c2.66699 31.333 11.334 58.666 26.001 81.999s33.167 41.333 55.5 54
s46.166 19 71.499 19z" />
    <glyph glyph-name="uni00A0" unicode="&#xa0;" horiz-adv-x="233" 
 />
    <glyph glyph-name="exclamdown" unicode="&#xa1;" horiz-adv-x="277" 
d="M147 318c1.33301 -41.333 5.83398 -81.667 13.501 -121s16 -77 25 -113l24 -99.5c7 -30.333 10.5 -56.5 10.5 -78.5c0 -31.333 -7.83301 -54.833 -23.5 -70.5s-35.167 -23.5 -58.5 -23.5s-42.833 8 -58.5 24s-23.5 39.333 -23.5 70c0 22 3.33301 48 10 78
s14.667 63 24 99s17.666 73.833 24.999 113.5s12 80.167 14 121.5h18zM139.001 530.999c25.333 0 45.833 -6.83301 61.5 -20.5s23.5 -32.5 23.5 -56.5s-7.83301 -42.833 -23.5 -56.5s-36.167 -20.5 -61.5 -20.5c-26 0 -46.667 6.83301 -62 20.5s-23 32.5 -23 56.5
s7.66699 42.833 23 56.5s36 20.5 62 20.5z" />
    <glyph glyph-name="cent" unicode="&#xa2;" horiz-adv-x="499" 
d="M253 -181v225h22v-225h-22zM253 519v189h22v-189h-22zM280 531c26 0 49.8369 -2.83008 71.5039 -8.49707s39.5 -12.834 53.5 -21.501c17.333 -10.667 30.833 -23.834 40.5 -39.501s14.5 -33.834 14.5 -54.501c0 -23.333 -7.33301 -42.5 -22 -57.5
s-33.667 -22.5 -57 -22.5s-42 6.66699 -56 20s-21 31.333 -21 54c0 21.333 6.5 39.166 19.5 53.499s28.5 23.833 46.5 28.5c-5.33301 6.66699 -13.333 12.334 -24 17.001s-22.667 7 -36 7c-21.333 0 -39.833 -6 -55.5 -18s-28.667 -28.667 -39 -50s-18.333 -46.333 -24 -75
s-8.5 -60 -8.5 -94c0 -51.333 6.5 -91.666 19.5 -120.999s29.667 -50 50 -62s41.5 -18 63.5 -18c12.667 0 26.5 2 41.5 6s30.167 12 45.5 24s29.666 29 42.999 51l18 -6c-7.33301 -24.667 -19.333 -49.334 -36 -74.001s-38.334 -44.834 -65.001 -60.501
s-59.334 -23.5 -98.001 -23.5c-43.333 0 -82.5 9.5 -117.5 28.5s-63 48.333 -84 88s-31.5 90.834 -31.5 153.501c0 60 10.833 110.5 32.5 151.5s51.167 71.833 88.5 92.5s79.666 31 126.999 31z" />
    <glyph glyph-name="sterling" unicode="&#xa3;" horiz-adv-x="660" 
d="M387 736c24.667 0 46.168 -2.32812 64.501 -6.99512s33.166 -10.334 44.499 -17.001c15.333 -8.66699 27.5 -19.5 36.5 -32.5s13.5 -27.833 13.5 -44.5c0 -20.667 -6.66699 -37.834 -20 -51.501s-30.666 -20.5 -51.999 -20.5c-20.667 0 -37.834 6.16699 -51.501 18.5
s-20.5 28.166 -20.5 47.499c0 17.333 4.5 32.5 13.5 45.5s21.833 22.5 38.5 28.5c-4.66699 4.66699 -12.334 8.5 -23.001 11.5s-22.667 4.5 -36 4.5c-24.667 0 -44.5 -5.5 -59.5 -16.5s-26.333 -27.167 -34 -48.5s-12.834 -47.833 -15.501 -79.5s-4 -68.167 -4 -109.5v-128
c0 -28 -3.33301 -53.167 -10 -75.5s-15.834 -43.5 -27.501 -63.5s-25 -40 -40 -60l-47.5 -64c31.333 26 59 43.167 83 51.5s46.333 12.5 67 12.5c26.667 0 50 -2.66699 70 -8l59.5 -16.5c19.667 -5.66699 41.834 -8.5 66.501 -8.5c21.333 0 37.833 5.66699 49.5 17
s17.5 24.666 17.5 39.999c0 20.667 -6.83301 37.167 -20.5 49.5s-31.167 20.5 -52.5 24.5l4 16c21.333 -3.33301 41.833 -10.5 61.5 -21.5s35.667 -25.5 48 -43.5s18.5 -40 18.5 -66s-5.5 -49.333 -16.5 -70s-27.667 -36.667 -50 -48s-50.5 -17 -84.5 -17
c-29.333 0 -56.666 4.33301 -81.999 13s-49.833 18.5 -73.5 29.5s-47.167 19.5 -70.5 25.5c-6.66699 2 -14.167 3.83301 -22.5 5.5s-17.166 2.5 -26.499 2.5c-18.667 0 -37 -3.33301 -55 -10c-14 -22 -29.167 -38.5 -45.5 -49.5s-32.166 -16.5 -47.499 -16.5
c-6 0 -11.167 1 -15.5 3s-6.5 6.33301 -6.5 13c0 7.33301 3.5 14.833 10.5 22.5s17 15.167 30 22.5s28.5 13 46.5 17c5.33301 16 9 32.5 11 49.5s3.16699 37 3.5 60s0.5 51.167 0.5 84.5v181c0 41.333 4 79.833 12 115.5s21.667 67.167 41 94.5s45.166 48.666 77.499 63.999
s72.833 23 121.5 23zM403.001 317.005v-20h-345v20h345zM403.001 417.005v-20h-345v20h345z" />
    <glyph glyph-name="currency" unicode="&#xa4;" horiz-adv-x="615" 
d="M472 548l85.001 -85.002l-60 -59c9.33301 -15.333 16.333 -31.666 21 -48.999s7 -35.666 7 -54.999s-2.33301 -37.666 -7 -54.999s-11.667 -33.666 -21 -48.999l59 -59l-85 -85l-59 59c-16 -8.66699 -32.667 -15.5 -50 -20.5s-35.333 -7.5 -54 -7.5
c-38 0 -72.667 9.33301 -104 28l-58 -59l-86 85l58 58c-8.66699 15.333 -15.5 31.833 -20.5 49.5s-7.5 36.167 -7.5 55.5s2.5 37.666 7.5 54.999s12.167 33.666 21.5 48.999l-59 59l85 85l59 -59c14.667 9.33301 30.834 16.5 48.501 21.5s36.167 7.5 55.5 7.5
s37.666 -2.66699 54.999 -8s33.666 -12.333 48.999 -21zM309.001 424.998c-21.333 0 -40.833 -5.66699 -58.5 -17s-31.667 -26.5 -42 -45.5s-15.5 -39.833 -15.5 -62.5s5.16699 -43.5 15.5 -62.5s24.333 -34 42 -45s37.167 -16.5 58.5 -16.5s40.666 5.5 57.999 16.5
s31.166 26 41.499 45s15.5 39.833 15.5 62.5s-5.16699 43.5 -15.5 62.5s-24.166 34.167 -41.499 45.5s-36.666 17 -57.999 17z" />
    <glyph glyph-name="yen" unicode="&#xa5;" horiz-adv-x="678" 
d="M559 303v-20h-409v20h409zM559 203v-20h-409v20h409zM649 709l-0.00195312 -20.001c-14.667 -6 -29.667 -17.833 -45 -35.5s-32.333 -44.5 -51 -80.5l-189 -374h-47l-234 433c-12 22.667 -22.833 37.667 -32.5 45s-18.167 11 -25.5 11v21c18 -2 36.5 -3.33301 55.5 -4
s39.833 -1 62.5 -1c29.333 0 60.833 0.5 94.5 1.5s64.834 2.16699 93.501 3.5v-21c-16.667 0 -31.667 -1.33301 -45 -4s-22.666 -7.5 -27.999 -14.5s-4 -18.167 4 -33.5l158 -304l-32 -40l104 207c24 48 36.833 85.667 38.5 113s-4.83301 46.833 -19.5 58.5
s-35.667 17.834 -63 18.501v20c22.667 -0.666992 44 -1.33398 64 -2.00098s40 -1 60 -1c15.333 0 29.5 0.333008 42.5 1s24.5 1.33398 34.5 2.00098zM433.998 356.999l-0.00195312 -251c0 -24 2 -42 6 -54s11.333 -20 22 -24s26.334 -6.66699 47.001 -8v-20
c-17.333 1.33301 -40.166 2.16602 -68.499 2.49902s-56.833 0.5 -85.5 0.5c-30.667 0 -60 -0.166992 -88 -0.5s-50.333 -1.16602 -67 -2.49902v20c22 1.33301 38.333 4 49 8s17.667 12 21 24s5 30 5 54v205l87 -62z" />
    <glyph glyph-name="brokenbar" unicode="&#xa6;" horiz-adv-x="256" 
d="M172 326v-521h-88v521h88zM172 858v-474h-88v474h88z" />
    <glyph glyph-name="section" unicode="&#xa7;" horiz-adv-x="581" 
d="M313 782c28.667 0 52.666 -2.5 71.999 -7.5s34.666 -9.83301 45.999 -14.5c20.667 -10 36.834 -22.5 48.501 -37.5s17.5 -33.5 17.5 -55.5c0 -18.667 -6.5 -35 -19.5 -49s-31.167 -21 -54.5 -21c-22 0 -40.167 6.5 -54.5 19.5s-21.5 29.5 -21.5 49.5c0 16 4.5 31 13.5 45
s21.5 23.667 37.5 29c-3.33301 5.33301 -9.16602 9.66602 -17.499 12.999s-17.833 5.83301 -28.5 7.5s-21.334 2.5 -32.001 2.5c-25.333 0 -45.666 -4.5 -60.999 -13.5s-26.333 -20.333 -33 -34s-10 -28.167 -10 -43.5c0 -26.667 6.66699 -49.167 20 -67.5
s32 -35.833 56 -52.5l84 -57c36 -24.667 66.833 -47.167 92.5 -67.5s45.167 -41.5 58.5 -63.5s20 -47.667 20 -77c0 -35.333 -11.833 -68 -35.5 -98s-64.834 -58 -123.501 -84l-9 10c20 14 35 28.667 45 44s15 34 15 56c0 20.667 -5.66699 39.167 -17 55.5
s-28.833 33.833 -52.5 52.5s-54.5 40.334 -92.5 65.001c-42 27.333 -77.167 52.5 -105.5 75.5s-49.666 46.5 -63.999 70.5s-21.5 51 -21.5 81c0 34 9.5 63.5 28.5 88.5s45.667 44.333 80 58s73.833 20.5 118.5 20.5zM193.999 490l9.99902 -10.9971
c-20.667 -13.333 -35.834 -27.666 -45.501 -42.999s-14.5 -34.333 -14.5 -57c0 -20 5.5 -38.333 16.5 -55s28.5 -34.334 52.5 -53.001s55 -40.334 93 -65.001c41.333 -27.333 76.166 -52.5 104.499 -75.5s49.833 -46.5 64.5 -70.5s22 -51 22 -81
c0 -33.333 -9.66699 -62.666 -29 -87.999s-46 -44.833 -80 -58.5s-73.667 -20.5 -119 -20.5c-28.667 0 -52.667 2.5 -72 7.5s-34.666 9.83301 -45.999 14.5c-20 10 -36 22.5 -48 37.5s-18 33.5 -18 55.5c0 18.667 6.66699 35 20 49s31.333 21 54 21s41 -6.5 55 -19.5
s21 -29.5 21 -49.5c0 -16 -4.5 -30.833 -13.5 -44.5s-21.5 -23.5 -37.5 -29.5c2.66699 -4.66699 8.33398 -8.83398 17.001 -12.501s18.5 -6.33398 29.5 -8.00098s21.5 -2.5 31.5 -2.5c26 0 46.5 4.5 61.5 13.5s26 20.5 33 34.5s10.5 28.333 10.5 43
c0 26.667 -6.66699 49.167 -20 67.5s-32 35.833 -56 52.5l-84 57c-36.667 24.667 -67.667 47.167 -93 67.5s-44.666 41.666 -57.999 63.999s-20 47.833 -20 76.5c0 36 11.5 69 34.5 99s64.167 58 123.5 84z" />
    <glyph glyph-name="dieresis" unicode="&#xa8;" horiz-adv-x="478" 
d="M353 760c20 0 37.5 -7.5 52.5 -22.5s22.5 -32.5 22.5 -52.5c0 -20.667 -7.5 -38.334 -22.5 -53.001s-32.5 -22 -52.5 -22c-20.667 0 -38.5 7.33301 -53.5 22s-22.5 32.334 -22.5 53.001c0 20 7.5 37.5 22.5 52.5s32.833 22.5 53.5 22.5zM125 760
c20 0 37.667 -7.5 53 -22.5s23 -32.5 23 -52.5c0 -20.667 -7.66699 -38.334 -23 -53.001s-33 -22 -53 -22c-20.667 0 -38.334 7.33301 -53.001 22s-22 32.334 -22 53.001c0 20 7.33301 37.5 22 52.5s32.334 22.5 53.001 22.5z" />
    <glyph glyph-name="copyright" unicode="&#xa9;" horiz-adv-x="881" 
d="M440 782c55.333 0 107 -10.333 155 -31s90.167 -49.167 126.5 -85.5s64.833 -78.5 85.5 -126.5s31 -99.667 31 -155c0 -54.667 -10.333 -106.167 -31 -154.5s-49.167 -90.666 -85.5 -126.999s-78.5 -64.833 -126.5 -85.5s-99.667 -31 -155 -31
c-54.667 0 -106.167 10.333 -154.5 31s-90.666 49.167 -126.999 85.5s-64.833 78.666 -85.5 126.999s-31 99.833 -31 154.5c0 55.333 10.333 107 31 155s49.167 90.167 85.5 126.5s78.666 64.833 126.999 85.5s99.833 31 154.5 31zM463 657
c26.667 0 51.0059 -2.99902 73.0059 -8.99902s40 -13.667 54 -23c16 -10 28.833 -22.833 38.5 -38.5s14.5 -33.5 14.5 -53.5c0 -23.333 -7.5 -42.5 -22.5 -57.5s-33.833 -22.5 -56.5 -22.5c-23.333 0 -42 6.83301 -56 20.5s-21 31.834 -21 54.501
c0 20.667 6.33301 38.167 19 52.5s28.334 23.833 47.001 28.5c-6.66699 6.66699 -16.334 12.5 -29.001 17.5s-26.334 7.5 -41.001 7.5c-9.33301 0 -18.333 -1.33301 -27 -4s-17.334 -7.33398 -26.001 -14.001c-12.667 -6.66699 -23.834 -18.334 -33.501 -35.001
s-17.167 -40 -22.5 -70s-8 -68.667 -8 -116c0 -56 6.5 -100 19.5 -132s29.667 -54.5 50 -67.5s41.166 -19.5 62.499 -19.5c12.667 0 26.5 2.66699 41.5 8s30.333 15 46 29s30.167 35 43.5 63l18 -7c-7.33301 -24 -19.333 -48.333 -36 -73s-38.334 -44.834 -65.001 -60.501
s-59.334 -23.5 -98.001 -23.5c-43.333 0 -82.5 9.5 -117.5 28.5s-63 48.333 -84 88s-31.5 90.834 -31.5 153.501c0 60 10.667 110.5 32 151.5s50.833 71.833 88.5 92.5s80.167 31 127.5 31zM440.006 750.001c-49.333 0 -95.666 -9.5 -138.999 -28.5
s-81.333 -45.333 -114 -79s-58.334 -72.5 -77.001 -116.5s-28 -91.333 -28 -142s9.33301 -98 28 -142s44.334 -82.833 77.001 -116.5s70.667 -60 114 -79s89.666 -28.5 138.999 -28.5s95.666 9.5 138.999 28.5s81.333 45.333 114 79s58.334 72.5 77.001 116.5
s28 91.333 28 142s-9.33301 98 -28 142s-44.334 82.833 -77.001 116.5s-70.667 60 -114 79s-89.666 28.5 -138.999 28.5z" />
    <glyph glyph-name="ordfeminine" unicode="&#xaa;" horiz-adv-x="482" 
d="M241 722c53.333 0 92.0039 -10.0029 116.004 -30.0029s36 -52.333 36 -97v-168c0 -10 1.5 -16.833 4.5 -20.5s7.83301 -5.5 14.5 -5.5c11.333 0 21 3.66699 29 11l11 -15c-13.333 -10.667 -29.5 -19.5 -48.5 -26.5s-40.833 -10.5 -65.5 -10.5
c-27.333 0 -46 4.16699 -56 12.5s-15.667 19.833 -17 34.5c-16.667 -16.667 -35.5 -28.667 -56.5 -36s-42.167 -11 -63.5 -11c-27.333 0 -50.666 6.33301 -69.999 19s-29 32.667 -29 60s11.667 48.5 35 63.5s58 29.833 104 44.5c18.667 6 36.667 13.667 54 23
s26 20.333 26 33v18c0 30 -5.5 51.167 -16.5 63.5s-26.167 18.5 -45.5 18.5c-8.66699 0 -17.834 -1.16699 -27.501 -3.5s-18.834 -6.16602 -27.501 -11.499c14.667 -4 25.667 -11.5 33 -22.5s11 -22.5 11 -34.5c0 -18.667 -6.83301 -33 -20.5 -43s-29.167 -15 -46.5 -15
c-20 0 -36 5.33301 -48 16s-18 24.334 -18 41.001c0 16 5.16699 29.833 15.5 41.5s23.166 20.834 38.499 27.501c17.333 8 36.166 13.833 56.499 17.5s44.166 5.5 71.499 5.5zM265.004 572.997c-2.66699 -5.33301 -7 -10.835 -13 -16.502s-15.333 -13.167 -28 -22.5
c-16 -10.667 -27.5 -22.167 -34.5 -34.5s-10.5 -26.166 -10.5 -41.499s3.66699 -27.666 11 -36.999s16.333 -14 27 -14c17.333 0 33.333 6.33301 48 19v147z" />
    <glyph glyph-name="guillemotleft" unicode="&#xab;" horiz-adv-x="569" 
d="M302 533l15 -5.99902c-8 -25.333 -17.167 -50.833 -27.5 -76.5s-21.833 -50.334 -34.5 -74.001s-25.667 -45.5 -39 -65.5s-27 -37 -41 -51c14 -14 27.667 -31 41 -51s26.333 -42.167 39 -66.5s24.167 -49.333 34.5 -75s19.5 -51.5 27.5 -77.5l-15 -5
c-39.333 53.333 -81 102.5 -125 147.5s-94.333 84.833 -151 119.5v13c56.667 35.333 107 75.5 151 120.5s85.667 94.167 125 147.5zM501 509.001l15 -6c-8.66699 -31.333 -19.834 -62.5 -33.501 -93.5s-28 -59.333 -43 -85s-30.5 -47.167 -46.5 -64.5
c16 -16.667 31.5 -38.167 46.5 -64.5s29.333 -55.166 43 -86.499s24.834 -63 33.501 -95l-15 -5c-35.333 48.667 -73.166 93.5 -113.499 134.5s-86.166 77.167 -137.499 108.5v13c51.333 31.333 97.166 67.666 137.499 108.999s78.166 86.333 113.499 135z" />
    <glyph glyph-name="logicalnot" unicode="&#xac;" horiz-adv-x="642" 
d="M575 370v-205h-36v175h-465v30h501z" />
    <glyph glyph-name="uni00AD" unicode="&#xad;" horiz-adv-x="481" 
 />
    <glyph glyph-name="registered" unicode="&#xae;" horiz-adv-x="665" 
d="M332 782c38.667 0 74.834 -7.16699 108.501 -21.5s63.334 -34.333 89.001 -60s45.667 -55.334 60 -89.001s21.5 -69.834 21.5 -108.501s-7.16699 -74.834 -21.5 -108.501s-34.333 -63.334 -60 -89.001s-55.334 -45.667 -89.001 -60s-69.834 -21.5 -108.501 -21.5
s-74.834 7.16699 -108.501 21.5s-63.334 34.333 -89.001 60s-45.667 55.334 -60 89.001s-21.5 69.834 -21.5 108.501s7.16699 74.834 21.5 108.501s34.333 63.334 60 89.001s55.334 45.667 89.001 60s69.834 21.5 108.501 21.5zM266 523
c22.667 0 38.832 -0.333984 48.499 -1.00098s17 -1.5 22 -2.5s11.167 -2.16699 18.5 -3.5c35.333 -2.66699 59.5 -8.66699 72.5 -18s21.167 -23 24.5 -41l15 -65c1.33301 -8 3 -14 5 -18s5.33301 -6 10 -6s8.33398 2 11.001 6l8 -10c-5.33301 -6 -12.333 -10.5 -21 -13.5
s-19 -4.5 -31 -4.5c-21.333 0 -37.5 3.66699 -48.5 11s-17.833 18 -20.5 32l-15 73c-2 12.667 -5.5 22.334 -10.5 29.001s-13.667 11.167 -26 13.5s-32.5 3.5 -60.5 3.5zM331.998 749.999c-44 0 -83.833 -11.167 -119.5 -33.5s-64.167 -52.166 -85.5 -89.499
s-32 -78.666 -32 -123.999c0 -44.667 10.667 -85.834 32 -123.501s49.833 -67.667 85.5 -90s75.5 -33.5 119.5 -33.5s84 11.167 120 33.5s64.5 52.333 85.5 90s31.5 78.834 31.5 123.501c0 45.333 -10.5 86.666 -31.5 123.999s-49.5 67.166 -85.5 89.499s-76 33.5 -120 33.5
zM343.998 675.999c43.333 0 74.5 -6.83301 93.5 -20.5s28.5 -33.167 28.5 -58.5c0 -11.333 -3.83301 -23.333 -11.5 -36s-21.834 -23.667 -42.501 -33s-50.667 -15 -90 -17l-61 -3v8v8h53c25.333 0 43 6 53 18s15 28.333 15 49c0 23.333 -4.16699 40.833 -12.5 52.5
s-22.166 17.5 -41.499 17.5c-10 0 -16.833 -2 -20.5 -6s-5.5 -11.333 -5.5 -22v-229c0 -15.333 1.5 -25 4.5 -29s9.16699 -6.66699 18.5 -8v-15c-8 0 -17.5 0.166992 -28.5 0.5s-22.167 0.5 -33.5 0.5c-13.333 0 -26 -0.166992 -38 -0.5s-21.667 -0.5 -29 -0.5v15
c9.33301 1.33301 15.5 4 18.5 8s4.5 13.667 4.5 29v219c0 16 -1.5 26.167 -4.5 30.5s-9.16699 6.83301 -18.5 7.5v15c7.33301 -0.666992 16.833 -1 28.5 -1h33.5c18.667 0 36 0.166992 52 0.5s27.333 0.5 34 0.5z" />
    <glyph glyph-name="macron" unicode="&#xaf;" horiz-adv-x="436" 
d="M386 712v-25h-336v25h336z" />
    <glyph glyph-name="degree" unicode="&#xb0;" horiz-adv-x="311" 
d="M155 820c32.667 0 61.167 -10.667 85.5 -32s36.5 -50.666 36.5 -87.999s-12.167 -66.833 -36.5 -88.5s-52.833 -32.5 -85.5 -32.5c-32 0 -60.167 10.833 -84.5 32.5s-36.5 51.167 -36.5 88.5s12.167 66.666 36.5 87.999s52.5 32 84.5 32zM155 803
c-14.667 0 -29.5 -4 -44.5 -12s-27.333 -19.667 -37 -35s-14.5 -34.333 -14.5 -57c0 -23.333 4.83301 -42.666 14.5 -57.999s22 -26.666 37 -33.999s29.833 -11 44.5 -11c15.333 0 30.333 3.66699 45 11s27 18.666 37 33.999s15 34.666 15 57.999c0 22.667 -5 41.667 -15 57
s-22.333 27 -37 35s-29.667 12 -45 12z" />
    <glyph glyph-name="plusminus" unicode="&#xb1;" horiz-adv-x="579" 
d="M541 30v-30h-501v30h501zM306 606v-236h232v-30h-232v-235h-36v235h-233v30h233v236h36z" />
    <glyph glyph-name="uni00B2" unicode="&#xb2;" horiz-adv-x="351" 
d="M179 755c32 0 58.4971 -6.00098 79.4971 -18.001s31.5 -30.667 31.5 -56c0 -18.667 -5.33301 -35.167 -16 -49.5s-24.167 -27.666 -40.5 -39.999s-34.166 -24.666 -53.499 -36.999s-37.666 -25.5 -54.999 -39.5h135c16 0 26.667 2.83301 32 8.5s10.333 14.167 15 25.5
l17 -3c-4.66699 -22 -8.16699 -42 -10.5 -60s-3.83301 -35 -4.5 -51c-6 1.33301 -12.167 2.16602 -18.5 2.49902s-12.833 0.5 -19.5 0.5h-244v20c14 12 30.667 25.167 50 39.5s38 29.833 56 46.5s33.167 34.834 45.5 54.501s18.5 41.167 18.5 64.5
c0 17.333 -5.16699 30.333 -15.5 39s-25.5 13 -45.5 13c-18 0 -34.167 -3.83301 -48.5 -11.5s-27.166 -19.834 -38.499 -36.501l-15 8c12 20.667 29.5 39.167 52.5 55.5s53.833 24.5 92.5 24.5z" />
    <glyph glyph-name="uni00B3" unicode="&#xb3;" horiz-adv-x="330" 
d="M171 756c32.667 0 59.833 -6.16797 81.5 -18.501s32.5 -30.166 32.5 -53.499s-10.5 -43.166 -31.5 -59.499s-49.5 -28.166 -85.5 -35.499c24.667 1.33301 47 -1.66699 67 -9s36.167 -18 48.5 -32s18.5 -30.667 18.5 -50c0 -24 -8.16699 -45.167 -24.5 -63.5
s-38.166 -33.666 -65.499 -45.999s-57.333 -21.833 -90 -28.5s-65.334 -10.667 -98.001 -12v17c36 4 68 12 96 24s50.167 27.667 66.5 47s24.5 41.666 24.5 66.999c0 20.667 -5.33301 38 -16 52s-25.667 21.667 -45 23c-7.33301 -3.33301 -13.833 -6.5 -19.5 -9.5
s-11.167 -4.5 -16.5 -4.5c-10.667 0 -16 4 -16 12c0 7.33301 4.33301 11.666 13 12.999s19 1.66602 31 0.999023c20.667 9.33301 34.167 21.333 40.5 36s9.5 27 9.5 37c0 16.667 -5.5 30 -16.5 40s-26.5 15 -46.5 15c-18 0 -34.667 -4.33301 -50 -13s-28 -21 -38 -37l-15 8
c11.333 21.333 28.5 40 51.5 56s54.167 24 93.5 24z" />
    <glyph glyph-name="acute" unicode="&#xb4;" horiz-adv-x="296" 
d="M227 817c11.333 -8.66699 17.333 -20.667 18 -36s-4.33301 -29.666 -15 -42.999s-23.667 -25.333 -39 -36l-54.5 -39c-21 -15.333 -46.167 -36.666 -75.5 -63.999l-11 9c20 36 34.667 66.167 44 90.5l24 62.5c6.66699 17.333 15.667 32.333 27 45
c10 13.333 23.167 21.166 39.5 23.499s30.5 -1.83398 42.5 -12.501z" />
    <glyph glyph-name="paragraph" unicode="&#xb6;" horiz-adv-x="732" 
d="M421 709c51.333 0 98.834 -0.833984 142.501 -2.50098s86.5 -1.16699 128.5 1.5v-19c-30.667 -1.33301 -50.167 -7.5 -58.5 -18.5s-12.5 -27.5 -12.5 -49.5v-696c0 -24 1.83301 -42 5.5 -54s10.834 -20 21.501 -24s26.667 -6.66699 48 -8v-20
c-20.667 1.33301 -46.834 2.16602 -78.501 2.49902s-63.834 0.5 -96.501 0.5s-63.167 -0.166992 -91.5 -0.5s-51.166 -1.16602 -68.499 -2.49902v20c28 1.33301 49.333 5 64 11s24.5 15.833 29.5 29.5s7.5 32.167 7.5 55.5v52c-79.333 0 -146.333 9.33301 -201 28
s-98.834 44.834 -132.501 78.501s-58 73.167 -73 118.5s-22.5 94.666 -22.5 147.999c0 68 15.333 128.333 46 181s75 93.834 133 123.501s127.667 44.5 209 44.5zM463.001 655.999c-3.33301 0 -8.16504 -13.001 -14.498 -39.001s-12.5 -60.5 -18.5 -103.5
s-9.66699 -90.167 -11 -141.5c-54.667 0 -104.5 -1.33301 -149.5 -4s-80.833 -5.66699 -107.5 -9s-40 -6 -40 -8s13.333 -4.66699 40 -8s62.5 -6.16602 107.5 -8.49902s94.833 -3.5 149.5 -3.5c0.666992 -52.667 4.16699 -100.5 10.5 -143.5s12.666 -77 18.999 -102
s11.166 -37.5 14.499 -37.5v32.5v86.5v118.5v129.5v119v87.5v34.5z" />
    <glyph glyph-name="periodcentered" unicode="&#xb7;" horiz-adv-x="278" 
d="M139 358c26 0 46.667 -6.83301 62 -20.5s23 -32.5 23 -56.5s-7.66699 -42.833 -23 -56.5s-36 -20.5 -62 -20.5s-46.667 6.83301 -62 20.5s-23 32.5 -23 56.5s7.66699 42.833 23 56.5s36 20.5 62 20.5z" />
    <glyph glyph-name="cedilla" unicode="&#xb8;" horiz-adv-x="327" 
d="M158 2l-21 -66.998c10.667 4 22 7 34 9s24.333 3 37 3c22.667 0 39.834 -4.83301 51.501 -14.5s17.5 -22.834 17.5 -39.501c0 -18.667 -6.5 -34 -19.5 -46s-30.167 -20.833 -51.5 -26.5s-44.333 -8.5 -69 -8.5c-18 0 -34.333 1.16699 -49 3.5
s-27.334 5.16602 -38.001 8.49902l5 18c4 -0.666992 10 -1.5 18 -2.5s16.667 -1.5 26 -1.5c11.333 0 22.5 1.33301 33.5 4s20.333 7 28 13s11.5 14 11.5 24c0 17.333 -11 26 -33 26c-5.33301 0 -11.833 -0.5 -19.5 -1.5s-14.5 -2.83301 -20.5 -5.5l32 104h27z" />
    <glyph glyph-name="uni00B9" unicode="&#xb9;" horiz-adv-x="283" 
d="M203 753l-0.000976562 -246.002c0 -19.333 5.16699 -32.333 15.5 -39s27.5 -10 51.5 -10v-21c-11.333 0.666992 -27.666 1.16699 -48.999 1.5s-43.333 0.5 -66 0.5c-23.333 0 -46 -0.166992 -68 -0.5s-39 -0.833008 -51 -1.5v21c23.333 0 41.5 3.33301 54.5 10
s19.5 19.667 19.5 39v129c0 29.333 -5.66699 47.5 -17 54.5s-32.666 10.5 -63.999 10.5v21c41.333 0.666992 75.166 3.33398 101.499 8.00098s50.5 12.334 72.5 23.001z" />
    <glyph glyph-name="ordmasculine" unicode="&#xba;" horiz-adv-x="468" 
d="M234 722c36.667 0 69.667 -6.83301 99 -20.5s52.666 -33.834 69.999 -60.501s26 -60 26 -100c0 -39.333 -8.66699 -72.5 -26 -99.5s-40.666 -47.333 -69.999 -61s-62.333 -20.5 -99 -20.5c-36 0 -68.833 6.83301 -98.5 20.5s-53.167 34 -70.5 61s-26 60.167 -26 99.5
c0 40 8.66699 73.333 26 100s40.833 46.834 70.5 60.501s62.5 20.5 98.5 20.5zM234 704c-17.333 0 -31.833 -12.667 -43.5 -38s-17.5 -67 -17.5 -125s5.83301 -99.667 17.5 -125s26.167 -38 43.5 -38s32 12.667 44 38s18 67 18 125s-6 99.667 -18 125s-26.667 38 -44 38z
" />
    <glyph glyph-name="guillemotright" unicode="&#xbb;" horiz-adv-x="569" 
d="M268 532c38.667 -53.333 80.167 -102.5 124.5 -147.5s94.5 -85.167 150.5 -120.5v-12c-56 -35.333 -106.167 -75.5 -150.5 -120.5s-85.833 -94.167 -124.5 -147.5l-16 6c8 25.333 17.333 50.833 28 76.5s22.167 50.334 34.5 74.001s25.333 45.5 39 65.5
s27.167 37 40.5 51c-13.333 14 -26.833 31 -40.5 51s-26.667 42 -39 66s-23.833 49.167 -34.5 75.5s-20 52.166 -28 77.499zM68 508c35.333 -48.667 73.166 -93.501 113.499 -134.501s86.5 -77.5 138.5 -109.5v-12c-52 -31.333 -98.167 -67.666 -138.5 -108.999
s-78.166 -86.333 -113.499 -135l-15 6c9.33301 32 20.666 63.333 33.999 94s27.666 58.834 42.999 84.501s30.666 47.167 45.999 64.5c-15.333 16.667 -30.666 38.167 -45.999 64.5s-29.666 55.166 -42.999 86.499s-24.666 63 -33.999 95z" />
    <glyph glyph-name="onequarter" unicode="&#xbc;" horiz-adv-x="709" 
d="M663 824l19 -13l-585 -866l-19 13zM218 753l-0.000976562 -246.002c0 -19.333 5.16699 -32.333 15.5 -39s27.5 -10 51.5 -10v-21c-11.333 0.666992 -27.666 1.16699 -48.999 1.5s-43.333 0.5 -66 0.5c-23.333 0 -46 -0.166992 -68 -0.5s-39 -0.833008 -51 -1.5v21
c23.333 0 41.5 3.33301 54.5 10s19.5 19.667 19.5 39v129c0 29.333 -5.66699 47.5 -17 54.5s-32.666 10.5 -63.999 10.5v21c41.333 0.666992 75.166 3.33398 101.499 8.00098s50.5 12.334 72.5 23.001zM539.999 311.998l8 -14.999l-226 -250l17 29h235
c16.667 0 27.667 2.83301 33 8.5s10.333 14.167 15 25.5l17 -3c-2.66699 -9.33301 -5 -20 -7 -32s-3.5 -23.333 -4.5 -34l-2.5 -26c-6 1.33301 -12.167 2.16602 -18.5 2.49902s-12.833 0.5 -19.5 0.5h-294v21zM560.999 311.999v-411h-73v342l52 69h21z" />
    <glyph glyph-name="onehalf" unicode="&#xbd;" horiz-adv-x="720" 
d="M647 824l19 -13l-585 -866l-19 13zM220 753l-0.000976562 -246.002c0 -19.333 5.16699 -32.333 15.5 -39s27.5 -10 51.5 -10v-21c-11.333 0.666992 -27.666 1.16699 -48.999 1.5s-43.333 0.5 -66 0.5c-23.333 0 -46 -0.166992 -68 -0.5s-39 -0.833008 -51 -1.5v21
c23.333 0 41.5 3.33301 54.5 10s19.5 19.667 19.5 39v129c0 29.333 -5.66699 47.5 -17 54.5s-32.666 10.5 -63.999 10.5v21c41.333 0.666992 75.166 3.33398 101.499 8.00098s50.5 12.334 72.5 23.001zM540.999 317.998c32 0 58.4971 -6.00098 79.4971 -18.001
s31.5 -30.667 31.5 -56c0 -18.667 -5.33301 -35.167 -16 -49.5s-24.167 -27.666 -40.5 -39.999s-34.166 -24.666 -53.499 -36.999s-37.666 -25.5 -54.999 -39.5h135c16 0 26.667 2.83301 32 8.5s10.333 14.167 15 25.5l17 -3c-4.66699 -22 -8.16699 -42 -10.5 -60
s-3.83301 -35 -4.5 -51c-6 1.33301 -12.167 2.16602 -18.5 2.49902s-12.833 0.5 -19.5 0.5h-244v20c14 12 30.667 25.167 50 39.5s38 29.833 56 46.5s33.167 34.834 45.5 54.501s18.5 41.167 18.5 64.5c0 17.333 -5.16699 30.333 -15.5 39s-25.5 13 -45.5 13
c-18 0 -34.167 -3.83301 -48.5 -11.5s-27.166 -19.834 -38.499 -36.501l-15 8c12 20.667 29.5 39.167 52.5 55.5s53.833 24.5 92.5 24.5z" />
    <glyph glyph-name="threequarters" unicode="&#xbe;" horiz-adv-x="752" 
d="M705 824l19 -13l-585 -866l-19 13zM192 756c32.667 0 59.833 -6.16797 81.5 -18.501s32.5 -30.166 32.5 -53.499s-10.5 -43.166 -31.5 -59.499s-49.5 -28.166 -85.5 -35.499c24.667 1.33301 47 -1.66699 67 -9s36.167 -18 48.5 -32s18.5 -30.667 18.5 -50
c0 -24 -8.16699 -45.167 -24.5 -63.5s-38.166 -33.666 -65.499 -45.999s-57.333 -21.833 -90 -28.5s-65.334 -10.667 -98.001 -12v17c36 4 68 12 96 24s50.167 27.667 66.5 47s24.5 41.666 24.5 66.999c0 20.667 -5.33301 38 -16 52s-25.667 21.667 -45 23
c-7.33301 -3.33301 -13.833 -6.5 -19.5 -9.5s-11.167 -4.5 -16.5 -4.5c-10.667 0 -16 4 -16 12c0 7.33301 4.33301 11.666 13 12.999s19 1.66602 31 0.999023c20.667 9.33301 34.167 21.333 40.5 36s9.5 27 9.5 37c0 16.667 -5.5 30 -16.5 40s-26.5 15 -46.5 15
c-18 0 -34.667 -4.33301 -50 -13s-28 -21 -38 -37l-15 8c11.333 21.333 28.5 40 51.5 56s54.167 24 93.5 24zM585.999 311.999l8 -14.999l-226 -250l17 29h235c16.667 0 27.667 2.83301 33 8.5s10.333 14.167 15 25.5l17 -3c-2.66699 -9.33301 -5 -20 -7 -32
s-3.5 -23.333 -4.5 -34l-2.5 -26c-6 1.33301 -12.167 2.16602 -18.5 2.49902s-12.833 0.5 -19.5 0.5h-294v21zM606.999 312v-411h-73v342l52 69h21z" />
    <glyph glyph-name="questiondown" unicode="&#xbf;" horiz-adv-x="503" 
d="M304 323l0.000976562 -138.002c-37.333 -16 -65.5 -33.833 -84.5 -53.5s-31.667 -41 -38 -64s-9.5 -47.167 -9.5 -72.5c0 -57.333 11.333 -98.833 34 -124.5s52 -38.5 88 -38.5c18 0 35 1.83301 51 5.5s28 9.16699 36 16.5c-18 6 -31.833 14.833 -41.5 26.5
s-14.5 27.167 -14.5 46.5c0 20.667 7.5 37.834 22.5 51.501s34.167 20.5 57.5 20.5c21.333 0 38.333 -6.83301 51 -20.5s19 -29.834 19 -48.501c0 -20.667 -5.33301 -37.667 -16 -51s-24.334 -24.666 -41.001 -33.999c-15.333 -9.33301 -35.5 -17.166 -60.5 -23.499
s-54.5 -9.5 -88.5 -9.5c-47.333 0 -89.166 7 -125.499 21s-64.5 34.167 -84.5 60.5s-30 57.833 -30 94.5c0 34.667 10.667 65.667 32 93s51.166 50.5 89.499 69.5s82.833 33.5 133.5 43.5v129h20zM293.001 531.998c26 0 46.667 -6.83301 62 -20.5s23 -32.5 23 -56.5
s-7.66699 -42.833 -23 -56.5s-36 -20.5 -62 -20.5s-46.667 6.83301 -62 20.5s-23 32.5 -23 56.5s7.66699 42.833 23 56.5s36 20.5 62 20.5z" />
    <glyph glyph-name="Agrave" unicode="&#xc0;" horiz-adv-x="667" 
d="M368 710l243.001 -625.999c9.33301 -24 19.833 -40.5 31.5 -49.5s22.167 -13.833 31.5 -14.5v-20c-20 1.33301 -43.5 2.16602 -70.5 2.49902s-54.167 0.5 -81.5 0.5c-30.667 0 -59.667 -0.166992 -87 -0.5s-49 -1.16602 -65 -2.49902v20
c34 1.33301 55.5 7.16602 64.5 17.499s6.83301 32.5 -6.5 66.5l-170 465l18 26l-152 -396c-14.667 -36.667 -23.5 -66.667 -26.5 -90s-1.33301 -41.333 5 -54s16.666 -21.5 30.999 -26.5s31.5 -7.83301 51.5 -8.5v-20c-22 1.33301 -43 2.16602 -63 2.49902
s-40.333 0.5 -61 0.5c-14.667 0 -28.5 -0.166992 -41.5 -0.5s-24.5 -1.16602 -34.5 -2.49902v20c14 2.66699 28.333 11.667 43 27s29 41.333 43 78l228 585c10.667 -0.666992 22.167 -1 34.5 -1s23.833 0.333008 34.5 1zM438.001 288.001v-20h-298l10 20h288z
M238.001 934.001c15.333 -8 29.334 -18.833 42.001 -32.5l46 -49.5c18 -19.333 42.667 -42 74 -68l-7 -12c-36.667 14 -67.834 24.333 -93.501 31l-65.5 16.5c-18 4.33301 -34.333 10.5 -49 18.5c-15.333 8.66699 -25.5 20 -30.5 34s-4.16699 27.333 2.5 40
c8 15.333 20 24.833 36 28.5s31 1.5 45 -6.5z" />
    <glyph glyph-name="Aacute" unicode="&#xc1;" horiz-adv-x="667" 
d="M368 710l243.001 -625.999c9.33301 -24 19.833 -40.5 31.5 -49.5s22.167 -13.833 31.5 -14.5v-20c-20 1.33301 -43.5 2.16602 -70.5 2.49902s-54.167 0.5 -81.5 0.5c-30.667 0 -59.667 -0.166992 -87 -0.5s-49 -1.16602 -65 -2.49902v20
c34 1.33301 55.5 7.16602 64.5 17.499s6.83301 32.5 -6.5 66.5l-170 465l18 26l-152 -396c-14.667 -36.667 -23.5 -66.667 -26.5 -90s-1.33301 -41.333 5 -54s16.666 -21.5 30.999 -26.5s31.5 -7.83301 51.5 -8.5v-20c-22 1.33301 -43 2.16602 -63 2.49902
s-40.333 0.5 -61 0.5c-14.667 0 -28.5 -0.166992 -41.5 -0.5s-24.5 -1.16602 -34.5 -2.49902v20c14 2.66699 28.333 11.667 43 27s29 41.333 43 78l228 585c10.667 -0.666992 22.167 -1 34.5 -1s23.833 0.333008 34.5 1zM438.001 288.001v-20h-298l10 20h288z
M422.001 934.001c14 8 29.167 10.167 45.5 6.5s28.166 -13.167 35.499 -28.5c6.66699 -12.667 7.5 -26 2.5 -40s-15.167 -25.333 -30.5 -34c-14.667 -8 -31 -14.167 -49 -18.5s-39.667 -9.83301 -65 -16.5s-56.666 -17 -93.999 -31l-7 12c32 26 56.833 48.667 74.5 68
l45.5 49.5c12.667 13.667 26.667 24.5 42 32.5z" />
    <glyph glyph-name="Acircumflex" unicode="&#xc2;" horiz-adv-x="667" 
d="M368 710l243.001 -625.999c9.33301 -24 19.833 -40.5 31.5 -49.5s22.167 -13.833 31.5 -14.5v-20c-20 1.33301 -43.5 2.16602 -70.5 2.49902s-54.167 0.5 -81.5 0.5c-30.667 0 -59.667 -0.166992 -87 -0.5s-49 -1.16602 -65 -2.49902v20
c34 1.33301 55.5 7.16602 64.5 17.499s6.83301 32.5 -6.5 66.5l-170 465l18 26l-152 -396c-14.667 -36.667 -23.5 -66.667 -26.5 -90s-1.33301 -41.333 5 -54s16.666 -21.5 30.999 -26.5s31.5 -7.83301 51.5 -8.5v-20c-22 1.33301 -43 2.16602 -63 2.49902
s-40.333 0.5 -61 0.5c-14.667 0 -28.5 -0.166992 -41.5 -0.5s-24.5 -1.16602 -34.5 -2.49902v20c14 2.66699 28.333 11.667 43 27s29 41.333 43 78l228 585c10.667 -0.666992 22.167 -1 34.5 -1s23.833 0.333008 34.5 1zM438.001 288.001v-20h-298l10 20h288z
M342.001 940.001c20 -28.667 48.167 -57.167 84.5 -85.5s76.5 -51.833 120.5 -70.5l-5 -15c-43.333 8 -86.166 18 -128.499 30s-75.833 23.667 -100.5 35c-20.667 -11.333 -48.5 -23 -83.5 -35s-70.167 -22 -105.5 -30l-5 15c43.333 18.667 83.166 42 119.499 70
s64.833 56.667 85.5 86h18z" />
    <glyph glyph-name="Atilde" unicode="&#xc3;" horiz-adv-x="667" 
d="M368 710l243.001 -625.999c9.33301 -24 19.833 -40.5 31.5 -49.5s22.167 -13.833 31.5 -14.5v-20c-20 1.33301 -43.5 2.16602 -70.5 2.49902s-54.167 0.5 -81.5 0.5c-30.667 0 -59.667 -0.166992 -87 -0.5s-49 -1.16602 -65 -2.49902v20
c34 1.33301 55.5 7.16602 64.5 17.499s6.83301 32.5 -6.5 66.5l-170 465l18 26l-152 -396c-14.667 -36.667 -23.5 -66.667 -26.5 -90s-1.33301 -41.333 5 -54s16.666 -21.5 30.999 -26.5s31.5 -7.83301 51.5 -8.5v-20c-22 1.33301 -43 2.16602 -63 2.49902
s-40.333 0.5 -61 0.5c-14.667 0 -28.5 -0.166992 -41.5 -0.5s-24.5 -1.16602 -34.5 -2.49902v20c14 2.66699 28.333 11.667 43 27s29 41.333 43 78l228 585c10.667 -0.666992 22.167 -1 34.5 -1s23.833 0.333008 34.5 1zM438.001 288.001v-20h-298l10 20h288z
M245.001 924.001c23.333 0 43.833 -3.66797 61.5 -11.001s34 -15.666 49 -24.999s30.333 -17.5 46 -24.5s33.5 -10.5 53.5 -10.5c16 0 31 4.16699 45 12.5s26.667 22.166 38 41.499l14 -5c-8.66699 -46 -25.5 -79.833 -50.5 -101.5s-52.5 -32.5 -82.5 -32.5
c-23.333 0 -43.833 3.5 -61.5 10.5s-34.167 15.333 -49.5 25s-30.833 18 -46.5 25s-33.5 10.5 -53.5 10.5c-16 0 -31 -4.16699 -45 -12.5s-26.667 -22.5 -38 -42.5l-14 5c9.33301 46.667 26.5 80.834 51.5 102.501s52.5 32.5 82.5 32.5z" />
    <glyph glyph-name="Adieresis" unicode="&#xc4;" horiz-adv-x="667" 
d="M368 710l243.001 -625.999c9.33301 -24 19.833 -40.5 31.5 -49.5s22.167 -13.833 31.5 -14.5v-20c-20 1.33301 -43.5 2.16602 -70.5 2.49902s-54.167 0.5 -81.5 0.5c-30.667 0 -59.667 -0.166992 -87 -0.5s-49 -1.16602 -65 -2.49902v20
c34 1.33301 55.5 7.16602 64.5 17.499s6.83301 32.5 -6.5 66.5l-170 465l18 26l-152 -396c-14.667 -36.667 -23.5 -66.667 -26.5 -90s-1.33301 -41.333 5 -54s16.666 -21.5 30.999 -26.5s31.5 -7.83301 51.5 -8.5v-20c-22 1.33301 -43 2.16602 -63 2.49902
s-40.333 0.5 -61 0.5c-14.667 0 -28.5 -0.166992 -41.5 -0.5s-24.5 -1.16602 -34.5 -2.49902v20c14 2.66699 28.333 11.667 43 27s29 41.333 43 78l228 585c10.667 -0.666992 22.167 -1 34.5 -1s23.833 0.333008 34.5 1zM438.001 288.001v-20h-298l10 20h288z
M453.001 917.001c20 0 37.5 -7.66602 52.5 -22.999s22.5 -33 22.5 -53c0 -20.667 -7.5 -38.334 -22.5 -53.001s-32.5 -22 -52.5 -22c-20.667 0 -38.5 7.33301 -53.5 22s-22.5 32.667 -22.5 54c0 20 7.5 37.5 22.5 52.5s32.833 22.5 53.5 22.5zM213.001 917.002
c20 0 37.667 -7.66602 53 -22.999s23 -33 23 -53c0 -20.667 -7.66699 -38.334 -23 -53.001s-33 -22 -53 -22c-20.667 0 -38.334 7.33301 -53.001 22s-22 32.667 -22 54c0 20 7.33301 37.5 22 52.5s32.334 22.5 53.001 22.5z" />
    <glyph glyph-name="Aring" unicode="&#xc5;" horiz-adv-x="667" 
d="M368 710l243.001 -625.999c9.33301 -24 19.833 -40.5 31.5 -49.5s22.167 -13.833 31.5 -14.5v-20c-20 1.33301 -43.5 2.16602 -70.5 2.49902s-54.167 0.5 -81.5 0.5c-30.667 0 -59.667 -0.166992 -87 -0.5s-49 -1.16602 -65 -2.49902v20
c34 1.33301 55.5 7.16602 64.5 17.499s6.83301 32.5 -6.5 66.5l-170 465l18 26l-152 -396c-14.667 -36.667 -23.5 -66.667 -26.5 -90s-1.33301 -41.333 5 -54s16.666 -21.5 30.999 -26.5s31.5 -7.83301 51.5 -8.5v-20c-22 1.33301 -43 2.16602 -63 2.49902
s-40.333 0.5 -61 0.5c-14.667 0 -28.5 -0.166992 -41.5 -0.5s-24.5 -1.16602 -34.5 -2.49902v20c14 2.66699 28.333 11.667 43 27s29 41.333 43 78l228 585c10.667 -0.666992 22.167 -1 34.5 -1s23.833 0.333008 34.5 1zM438.001 288.001v-20h-298l10 20h288z
M333.001 937.001c29.333 0 54.833 -8.66699 76.5 -26s32.5 -41 32.5 -71s-10.833 -53.833 -32.5 -71.5s-47.167 -26.5 -76.5 -26.5c-28.667 0 -53.834 8.83301 -75.501 26.5s-32.5 41.5 -32.5 71.5s10.833 53.667 32.5 71s46.834 26 75.501 26zM333.001 916.001
c-18.667 0 -36.667 -6.66699 -54 -20s-26 -32.333 -26 -57c0 -25.333 8.66699 -44.333 26 -57s35.333 -19 54 -19c19.333 0 37.666 6.33301 54.999 19s26 31.667 26 57c0 24.667 -8.66699 43.667 -26 57s-35.666 20 -54.999 20z" />
    <glyph glyph-name="AE" unicode="&#xc6;" horiz-adv-x="889" 
d="M484 772l-391 -668c-18.667 -31.333 -23.334 -52.833 -14.001 -64.5s31 -18.167 65 -19.5v-20c-10 1.33301 -23.167 2.16602 -39.5 2.49902s-33.5 0.5 -51.5 0.5c-12 0 -24.167 -0.166992 -36.5 -0.5s-22.5 -1.16602 -30.5 -2.49902v20
c10.667 0.666992 21.334 5.5 32.001 14.5s23 25.5 37 49.5l405 688h24zM824 708c-2.66699 -26.667 -4.49902 -52.665 -5.49902 -77.998s-1.5 -44.666 -1.5 -57.999s0.333008 -26 1 -38s1.33398 -22 2.00098 -30h-23c-5.33301 46 -13.666 82.167 -24.999 108.5
s-25.5 45 -42.5 56s-37.167 16.5 -60.5 16.5h-33c-20.667 0 -36.5 -1.83301 -47.5 -5.5s-18.333 -11.334 -22 -23.001s-5.5 -29.834 -5.5 -54.501v-496c0 -24 1.83301 -42 5.5 -54s11 -19.833 22 -23.5s26.833 -5.5 47.5 -5.5h49c22.667 0 43 6.33301 61 19s33 33.5 45 62.5
s20.667 68.833 26 119.5h23c-2 -21.333 -3 -49.333 -3 -84c0 -14 0.333008 -33.833 1 -59.5s2.66699 -52.5 6 -80.5c-32.667 1.33301 -69.667 2.16602 -111 2.49902s-78 0.5 -110 0.5h-79c-32.667 0 -67.5 -0.166992 -104.5 -0.5s-71.833 -1.16602 -104.5 -2.49902v20
c19.333 1.33301 33.666 4 42.999 8s15.666 12 18.999 24s5 30 5 54v496c0 24.667 -1.83301 42.834 -5.5 54.501s-11 19.667 -22 24s-26.833 6.83301 -47.5 7.5v20c33.333 -0.666992 69 -1.33398 107 -2.00098s73.833 -1 107.5 -1h81.5c29.333 0 62.666 0.166992 99.999 0.5
s71 1.16602 101 2.49902zM435.001 366.002v-20h-212l10 20h202zM695.001 366.002v-10v-10h-164v10v10h164zM724.001 484.002c-2.66699 -34 -3.83496 -59.999 -3.50195 -77.999s0.5 -34.667 0.5 -50s0.333008 -31.833 1 -49.5s2.33398 -43.834 5.00098 -78.501h-23
c-2.66699 19.333 -6.66699 38 -12 56s-13.833 32.833 -25.5 44.5s-29.167 17.5 -52.5 17.5v20c17.333 0 31.333 4 42 12s18.834 18.333 24.501 31s10 25.667 13 39s5.5 25.333 7.5 36h23z" />
    <glyph glyph-name="Ccedilla" unicode="&#xc7;" horiz-adv-x="705" 
d="M397 722c44 0 80.165 -6.50293 108.498 -19.5029s53.5 -28.167 75.5 -45.5c13.333 -10 23.5 -11.167 30.5 -3.5s11.833 25.834 14.5 54.501h23c-1.33301 -26 -2.33301 -57.5 -3 -94.5s-1 -86.167 -1 -147.5h-23c-3.33301 30.667 -7.66602 56.834 -12.999 78.501
s-12.666 40.834 -21.999 57.501s-22.666 31.667 -39.999 45c-16.667 16.667 -36 29 -58 37s-45 12 -69 12c-36 0 -66.667 -9.5 -92 -28.5s-45.833 -44.833 -61.5 -77.5s-27.167 -69.5 -34.5 -110.5s-11 -83.5 -11 -127.5c0 -44.667 3.83301 -87.5 11.5 -128.5
s19.667 -77.5 36 -109.5s37.5 -57.333 63.5 -76s56.667 -28 92 -28c22 0 44.167 4.16699 66.5 12.5s41.5 20.5 57.5 36.5c26 20 43.667 44.833 53 74.5s16.333 69.167 21 118.5h23c0 -63.333 0.333008 -114.5 1 -153.5s1.66699 -71.833 3 -98.5h-23
c-2.66699 28.667 -7.16699 46.667 -13.5 54s-16.833 6.33301 -31.5 -3c-24.667 -17.333 -50.834 -32.5 -78.501 -45.5s-63.167 -19.5 -106.5 -19.5c-70.667 0 -132.5 14.333 -185.5 43s-94.167 70 -123.5 124s-44 119 -44 195c0 74.667 15.167 140 45.5 196
s72 99.667 125 131s114.167 47 183.5 47zM412.998 4.99707l-22.002 -69.998c11.333 4 23.5 7 36.5 9s26.5 3 40.5 3c24.667 0 43.334 -4.83301 56.001 -14.5s19 -22.834 19 -39.501c0 -18.667 -7.33301 -34 -22 -46s-34 -20.833 -58 -26.5s-50 -8.5 -78 -8.5
c-19.333 0 -37 1.16699 -53 3.5s-29.333 5.16602 -40 8.49902l5 18c4.66699 -0.666992 11.5 -1.5 20.5 -2.5s18.833 -1.5 29.5 -1.5c14 0 28 1.33301 42 4s25.667 7 35 13s14 14 14 24c0 9.33301 -4 16 -12 20s-19.333 6 -34 6c-5.33301 0 -11.666 -0.5 -18.999 -1.5
s-14 -2.83301 -20 -5.5l33 107h27z" />
    <glyph glyph-name="Egrave" unicode="&#xc8;" horiz-adv-x="634" 
d="M569 708c-2.66699 -29.333 -4.50195 -57.665 -5.50195 -84.998s-1.5 -48.333 -1.5 -63c0 -13.333 0.333008 -26 1 -38s1.33398 -22 2.00098 -30h-23c-6.66699 48.667 -17 87.167 -31 115.5s-32.167 48.333 -54.5 60s-48.5 17.5 -78.5 17.5h-41
c-19.333 0 -34 -1.66699 -44 -5s-16.667 -10 -20 -20s-5 -25.333 -5 -46v-520c0 -20.667 1.66699 -36 5 -46s10 -16.667 20 -20s24.667 -5 44 -5h49c30 0 56.5 6.5 79.5 19.5s42.667 35.167 59 66.5s28.833 73.666 37.5 126.999h23c-2 -21.333 -3 -49.333 -3 -84
c0 -15.333 0.333008 -37 1 -65s2.66699 -57 6 -87c-34 1.33301 -72.333 2.16602 -115 2.49902s-80.667 0.5 -114 0.5h-64c-26 0 -54 -0.166992 -84 -0.5l-91 -1c-30.667 -0.333008 -59.667 -0.833008 -87 -1.5v20c21.333 1.33301 37.333 4 48 8s17.834 12 21.501 24
s5.5 30 5.5 54v496c0 24.667 -1.83301 42.834 -5.5 54.501s-11 19.667 -22 24s-26.833 6.83301 -47.5 7.5v20c27.333 -0.666992 56.333 -1.16699 87 -1.5l91 -1c30 -0.333008 58 -0.5 84 -0.5h64c30.667 0 65.5 0.166992 104.5 0.5s73.833 1.16602 104.5 2.49902z
M412.998 366.001v-10v-10h-175v10v10h175zM441.998 498.001c-2.66699 -38 -3.83301 -66.999 -3.5 -86.999s0.5 -38.333 0.5 -55s0.333008 -35 1 -55s2.33398 -49 5.00098 -87h-23c-3.33301 23.333 -9.5 45 -18.5 65s-21.833 36.167 -38.5 48.5s-38.334 18.5 -65.001 18.5v20
c20 0 37 4.16699 51 12.5s25.5 19.333 34.5 33s16.167 28.167 21.5 43.5s9.33301 29.666 12 42.999h23zM218.999 934.002c15.333 -8 29.334 -18.833 42.001 -32.5l46 -49.5c18 -19.333 42.667 -42 74 -68l-7 -12c-36.667 14 -67.834 24.333 -93.501 31l-65.5 16.5
c-18 4.33301 -34.333 10.5 -49 18.5c-15.333 8.66699 -25.5 20 -30.5 34s-4.16699 27.333 2.5 40c8 15.333 20 24.833 36 28.5s31 1.5 45 -6.5z" />
    <glyph glyph-name="Eacute" unicode="&#xc9;" horiz-adv-x="634" 
d="M569 708c-2.66699 -29.333 -4.50195 -57.665 -5.50195 -84.998s-1.5 -48.333 -1.5 -63c0 -13.333 0.333008 -26 1 -38s1.33398 -22 2.00098 -30h-23c-6.66699 48.667 -17 87.167 -31 115.5s-32.167 48.333 -54.5 60s-48.5 17.5 -78.5 17.5h-41
c-19.333 0 -34 -1.66699 -44 -5s-16.667 -10 -20 -20s-5 -25.333 -5 -46v-520c0 -20.667 1.66699 -36 5 -46s10 -16.667 20 -20s24.667 -5 44 -5h49c30 0 56.5 6.5 79.5 19.5s42.667 35.167 59 66.5s28.833 73.666 37.5 126.999h23c-2 -21.333 -3 -49.333 -3 -84
c0 -15.333 0.333008 -37 1 -65s2.66699 -57 6 -87c-34 1.33301 -72.333 2.16602 -115 2.49902s-80.667 0.5 -114 0.5h-64c-26 0 -54 -0.166992 -84 -0.5l-91 -1c-30.667 -0.333008 -59.667 -0.833008 -87 -1.5v20c21.333 1.33301 37.333 4 48 8s17.834 12 21.501 24
s5.5 30 5.5 54v496c0 24.667 -1.83301 42.834 -5.5 54.501s-11 19.667 -22 24s-26.833 6.83301 -47.5 7.5v20c27.333 -0.666992 56.333 -1.16699 87 -1.5l91 -1c30 -0.333008 58 -0.5 84 -0.5h64c30.667 0 65.5 0.166992 104.5 0.5s73.833 1.16602 104.5 2.49902z
M412.998 366.001v-10v-10h-175v10v10h175zM441.998 498.001c-2.66699 -38 -3.83301 -66.999 -3.5 -86.999s0.5 -38.333 0.5 -55s0.333008 -35 1 -55s2.33398 -49 5.00098 -87h-23c-3.33301 23.333 -9.5 45 -18.5 65s-21.833 36.167 -38.5 48.5s-38.334 18.5 -65.001 18.5v20
c20 0 37 4.16699 51 12.5s25.5 19.333 34.5 33s16.167 28.167 21.5 43.5s9.33301 29.666 12 42.999h23zM402.999 934.002c14 8 29.167 10.167 45.5 6.5s28.166 -13.167 35.499 -28.5c6.66699 -12.667 7.5 -26 2.5 -40s-15.167 -25.333 -30.5 -34
c-14.667 -8 -31 -14.167 -49 -18.5s-39.667 -9.83301 -65 -16.5s-56.666 -17 -93.999 -31l-7 12c32 26 56.833 48.667 74.5 68l45.5 49.5c12.667 13.667 26.667 24.5 42 32.5z" />
    <glyph glyph-name="Ecircumflex" unicode="&#xca;" horiz-adv-x="634" 
d="M569 708c-2.66699 -29.333 -4.50195 -57.665 -5.50195 -84.998s-1.5 -48.333 -1.5 -63c0 -13.333 0.333008 -26 1 -38s1.33398 -22 2.00098 -30h-23c-6.66699 48.667 -17 87.167 -31 115.5s-32.167 48.333 -54.5 60s-48.5 17.5 -78.5 17.5h-41
c-19.333 0 -34 -1.66699 -44 -5s-16.667 -10 -20 -20s-5 -25.333 -5 -46v-520c0 -20.667 1.66699 -36 5 -46s10 -16.667 20 -20s24.667 -5 44 -5h49c30 0 56.5 6.5 79.5 19.5s42.667 35.167 59 66.5s28.833 73.666 37.5 126.999h23c-2 -21.333 -3 -49.333 -3 -84
c0 -15.333 0.333008 -37 1 -65s2.66699 -57 6 -87c-34 1.33301 -72.333 2.16602 -115 2.49902s-80.667 0.5 -114 0.5h-64c-26 0 -54 -0.166992 -84 -0.5l-91 -1c-30.667 -0.333008 -59.667 -0.833008 -87 -1.5v20c21.333 1.33301 37.333 4 48 8s17.834 12 21.501 24
s5.5 30 5.5 54v496c0 24.667 -1.83301 42.834 -5.5 54.501s-11 19.667 -22 24s-26.833 6.83301 -47.5 7.5v20c27.333 -0.666992 56.333 -1.16699 87 -1.5l91 -1c30 -0.333008 58 -0.5 84 -0.5h64c30.667 0 65.5 0.166992 104.5 0.5s73.833 1.16602 104.5 2.49902z
M412.998 366.001v-10v-10h-175v10v10h175zM441.998 498.001c-2.66699 -38 -3.83301 -66.999 -3.5 -86.999s0.5 -38.333 0.5 -55s0.333008 -35 1 -55s2.33398 -49 5.00098 -87h-23c-3.33301 23.333 -9.5 45 -18.5 65s-21.833 36.167 -38.5 48.5s-38.334 18.5 -65.001 18.5v20
c20 0 37 4.16699 51 12.5s25.5 19.333 34.5 33s16.167 28.167 21.5 43.5s9.33301 29.666 12 42.999h23zM322.999 940.002c20 -28.667 48.167 -57.167 84.5 -85.5s76.5 -51.833 120.5 -70.5l-5 -15c-43.333 8 -86.166 18 -128.499 30s-75.833 23.667 -100.5 35
c-20.667 -11.333 -48.5 -23 -83.5 -35s-70.167 -22 -105.5 -30l-5 15c43.333 18.667 83.166 42 119.499 70s64.833 56.667 85.5 86h18z" />
    <glyph glyph-name="Edieresis" unicode="&#xcb;" horiz-adv-x="634" 
d="M569 708c-2.66699 -29.333 -4.50195 -57.665 -5.50195 -84.998s-1.5 -48.333 -1.5 -63c0 -13.333 0.333008 -26 1 -38s1.33398 -22 2.00098 -30h-23c-6.66699 48.667 -17 87.167 -31 115.5s-32.167 48.333 -54.5 60s-48.5 17.5 -78.5 17.5h-41
c-19.333 0 -34 -1.66699 -44 -5s-16.667 -10 -20 -20s-5 -25.333 -5 -46v-520c0 -20.667 1.66699 -36 5 -46s10 -16.667 20 -20s24.667 -5 44 -5h49c30 0 56.5 6.5 79.5 19.5s42.667 35.167 59 66.5s28.833 73.666 37.5 126.999h23c-2 -21.333 -3 -49.333 -3 -84
c0 -15.333 0.333008 -37 1 -65s2.66699 -57 6 -87c-34 1.33301 -72.333 2.16602 -115 2.49902s-80.667 0.5 -114 0.5h-64c-26 0 -54 -0.166992 -84 -0.5l-91 -1c-30.667 -0.333008 -59.667 -0.833008 -87 -1.5v20c21.333 1.33301 37.333 4 48 8s17.834 12 21.501 24
s5.5 30 5.5 54v496c0 24.667 -1.83301 42.834 -5.5 54.501s-11 19.667 -22 24s-26.833 6.83301 -47.5 7.5v20c27.333 -0.666992 56.333 -1.16699 87 -1.5l91 -1c30 -0.333008 58 -0.5 84 -0.5h64c30.667 0 65.5 0.166992 104.5 0.5s73.833 1.16602 104.5 2.49902z
M412.998 366.001v-10v-10h-175v10v10h175zM441.998 498.001c-2.66699 -38 -3.83301 -66.999 -3.5 -86.999s0.5 -38.333 0.5 -55s0.333008 -35 1 -55s2.33398 -49 5.00098 -87h-23c-3.33301 23.333 -9.5 45 -18.5 65s-21.833 36.167 -38.5 48.5s-38.334 18.5 -65.001 18.5v20
c20 0 37 4.16699 51 12.5s25.5 19.333 34.5 33s16.167 28.167 21.5 43.5s9.33301 29.666 12 42.999h23zM433.999 917.002c20 0 37.5 -7.66602 52.5 -22.999s22.5 -33 22.5 -53c0 -20.667 -7.5 -38.334 -22.5 -53.001s-32.5 -22 -52.5 -22c-20.667 0 -38.5 7.33301 -53.5 22
s-22.5 32.667 -22.5 54c0 20 7.5 37.5 22.5 52.5s32.833 22.5 53.5 22.5zM193.999 917.003c20 0 37.667 -7.66602 53 -22.999s23 -33 23 -53c0 -20.667 -7.66699 -38.334 -23 -53.001s-33 -22 -53 -22c-20.667 0 -38.334 7.33301 -53.001 22s-22 32.667 -22 54
c0 20 7.33301 37.5 22 52.5s32.334 22.5 53.001 22.5z" />
    <glyph glyph-name="Igrave" unicode="&#xcc;" horiz-adv-x="376" 
d="M343 708l-0.00195312 -20c-21.333 -0.666992 -37.5 -3.16699 -48.5 -7.5s-18.167 -12.333 -21.5 -24s-5 -29.834 -5 -54.501v-496c0 -24 1.83301 -42 5.5 -54s10.834 -20 21.501 -24s26.667 -6.66699 48 -8v-20c-18 1.33301 -40.667 2.16602 -68 2.49902s-55 0.5 -83 0.5
c-32.667 0 -62.834 -0.166992 -90.501 -0.5s-50.167 -1.16602 -67.5 -2.49902v20c21.333 1.33301 37.333 4 48 8s17.834 12 21.501 24s5.5 30 5.5 54v496c0 24.667 -1.83301 42.834 -5.5 54.501s-11 19.667 -22 24s-26.833 6.83301 -47.5 7.5v20
c17.333 -0.666992 39.833 -1.33398 67.5 -2.00098s57.834 -1 90.501 -1c28 0 55.667 0.333008 83 1s50 1.33398 68 2.00098zM96.998 934c15.333 -8 29.334 -18.833 42.001 -32.5l46 -49.5c18 -19.333 42.667 -42 74 -68l-7 -12c-36.667 14 -67.834 24.333 -93.501 31
l-65.5 16.5c-18 4.33301 -34.333 10.5 -49 18.5c-15.333 8.66699 -25.5 20 -30.5 34s-4.16699 27.333 2.5 40c8 15.333 20 24.833 36 28.5s31 1.5 45 -6.5z" />
    <glyph glyph-name="Iacute" unicode="&#xcd;" horiz-adv-x="376" 
d="M343 708l-0.00195312 -20c-21.333 -0.666992 -37.5 -3.16699 -48.5 -7.5s-18.167 -12.333 -21.5 -24s-5 -29.834 -5 -54.501v-496c0 -24 1.83301 -42 5.5 -54s10.834 -20 21.501 -24s26.667 -6.66699 48 -8v-20c-18 1.33301 -40.667 2.16602 -68 2.49902s-55 0.5 -83 0.5
c-32.667 0 -62.834 -0.166992 -90.501 -0.5s-50.167 -1.16602 -67.5 -2.49902v20c21.333 1.33301 37.333 4 48 8s17.834 12 21.501 24s5.5 30 5.5 54v496c0 24.667 -1.83301 42.834 -5.5 54.501s-11 19.667 -22 24s-26.833 6.83301 -47.5 7.5v20
c17.333 -0.666992 39.833 -1.33398 67.5 -2.00098s57.834 -1 90.501 -1c28 0 55.667 0.333008 83 1s50 1.33398 68 2.00098zM280.998 934c14 8 29.167 10.167 45.5 6.5s28.166 -13.167 35.499 -28.5c6.66699 -12.667 7.5 -26 2.5 -40s-15.167 -25.333 -30.5 -34
c-14.667 -8 -31 -14.167 -49 -18.5s-39.667 -9.83301 -65 -16.5s-56.666 -17 -93.999 -31l-7 12c32 26 56.833 48.667 74.5 68l45.5 49.5c12.667 13.667 26.667 24.5 42 32.5z" />
    <glyph glyph-name="Icircumflex" unicode="&#xce;" horiz-adv-x="376" 
d="M343 708l-0.00195312 -20c-21.333 -0.666992 -37.5 -3.16699 -48.5 -7.5s-18.167 -12.333 -21.5 -24s-5 -29.834 -5 -54.501v-496c0 -24 1.83301 -42 5.5 -54s10.834 -20 21.501 -24s26.667 -6.66699 48 -8v-20c-18 1.33301 -40.667 2.16602 -68 2.49902s-55 0.5 -83 0.5
c-32.667 0 -62.834 -0.166992 -90.501 -0.5s-50.167 -1.16602 -67.5 -2.49902v20c21.333 1.33301 37.333 4 48 8s17.834 12 21.501 24s5.5 30 5.5 54v496c0 24.667 -1.83301 42.834 -5.5 54.501s-11 19.667 -22 24s-26.833 6.83301 -47.5 7.5v20
c17.333 -0.666992 39.833 -1.33398 67.5 -2.00098s57.834 -1 90.501 -1c28 0 55.667 0.333008 83 1s50 1.33398 68 2.00098zM200.998 940c20 -28.667 48.167 -57.167 84.5 -85.5s76.5 -51.833 120.5 -70.5l-5 -15c-43.333 8 -86.166 18 -128.499 30
s-75.833 23.667 -100.5 35c-20.667 -11.333 -48.5 -23 -83.5 -35s-70.167 -22 -105.5 -30l-5 15c43.333 18.667 83.166 42 119.499 70s64.833 56.667 85.5 86h18z" />
    <glyph glyph-name="Idieresis" unicode="&#xcf;" horiz-adv-x="376" 
d="M343 708l-0.00195312 -20c-21.333 -0.666992 -37.5 -3.16699 -48.5 -7.5s-18.167 -12.333 -21.5 -24s-5 -29.834 -5 -54.501v-496c0 -24 1.83301 -42 5.5 -54s10.834 -20 21.501 -24s26.667 -6.66699 48 -8v-20c-18 1.33301 -40.667 2.16602 -68 2.49902s-55 0.5 -83 0.5
c-32.667 0 -62.834 -0.166992 -90.501 -0.5s-50.167 -1.16602 -67.5 -2.49902v20c21.333 1.33301 37.333 4 48 8s17.834 12 21.501 24s5.5 30 5.5 54v496c0 24.667 -1.83301 42.834 -5.5 54.501s-11 19.667 -22 24s-26.833 6.83301 -47.5 7.5v20
c17.333 -0.666992 39.833 -1.33398 67.5 -2.00098s57.834 -1 90.501 -1c28 0 55.667 0.333008 83 1s50 1.33398 68 2.00098zM311.998 917c20 0 37.5 -7.66602 52.5 -22.999s22.5 -33 22.5 -53c0 -20.667 -7.5 -38.334 -22.5 -53.001s-32.5 -22 -52.5 -22
c-20.667 0 -38.5 7.33301 -53.5 22s-22.5 32.667 -22.5 54c0 20 7.5 37.5 22.5 52.5s32.833 22.5 53.5 22.5zM71.998 917.001c20 0 37.667 -7.66602 53 -22.999s23 -33 23 -53c0 -20.667 -7.66699 -38.334 -23 -53.001s-33 -22 -53 -22
c-20.667 0 -38.334 7.33301 -53.001 22s-22 32.667 -22 54c0 20 7.33301 37.5 22 52.5s32.334 22.5 53.001 22.5z" />
    <glyph glyph-name="Eth" unicode="&#xd0;" horiz-adv-x="776" 
d="M343 708c131.333 0 228.999 -29.8359 292.999 -89.5029s96 -145.167 96 -256.5c0 -72.667 -15.667 -136.167 -47 -190.5s-76.833 -96.5 -136.5 -126.5s-131.167 -45 -214.5 -45c-10.667 0 -24.667 0.333008 -42 1s-35.333 1.16699 -54 1.5s-35.334 0.5 -50.001 0.5
c-29.333 0 -58.166 -0.166992 -86.499 -0.5s-50.833 -1.16602 -67.5 -2.49902v20c21.333 1.33301 37.333 4 48 8s17.834 12 21.501 24s5.5 30 5.5 54v496c0 24.667 -1.83301 42.834 -5.5 54.501s-11 19.667 -22 24s-26.833 6.83301 -47.5 7.5v20
c16.667 -0.666992 39.167 -1.5 67.5 -2.5s56.5 -1.16699 84.5 -0.5c24 0.666992 51.167 1.33398 81.5 2.00098s55.5 1 75.5 1zM341.999 689.997c-30.667 0 -50.668 -5.66797 -60.001 -17.001s-14 -34.333 -14 -69v-500c0 -34.667 4.83301 -57.667 14.5 -69
s29.834 -17 60.501 -17c56 0 100.167 13.167 132.5 39.5s55.5 64.833 69.5 115.5s21 112.334 21 185.001c0 74.667 -7.5 136.5 -22.5 185.5s-38.833 85.667 -71.5 110s-76 36.5 -130 36.5zM391.998 365.996v-20h-384v20h384z" />
    <glyph glyph-name="Ntilde" unicode="&#xd1;" horiz-adv-x="722" 
d="M693 708l-0.00195312 -20.0039c-21.333 -2.66699 -37.333 -8.16699 -48 -16.5s-17.834 -21.5 -21.501 -39.5s-5.5 -43.333 -5.5 -76v-558c-8 0.666992 -16.167 1 -24.5 1s-17.166 -0.333008 -26.499 -1l-434 550v-384c0 -36.667 2 -64.834 6 -84.501
s12.833 -33.667 26.5 -42s35.167 -14.166 64.5 -17.499v-20c-12.667 1.33301 -29.334 2.16602 -50.001 2.49902s-40 0.5 -58 0.5c-15.333 0 -31 -0.166992 -47 -0.5s-29.333 -1.16602 -40 -2.49902v20c21.333 3.33301 37.333 9 48 17s17.834 21.167 21.501 39.5
s5.5 43.5 5.5 75.5v450c0 24.667 -1.83301 42.834 -5.5 54.501s-11 19.667 -22 24s-26.833 6.83301 -47.5 7.5v20c10.667 -0.666992 24 -1.33398 40 -2.00098s31.667 -1 47 -1c16 0 31.333 0.333008 46 1s28 1.33398 40 2.00098l387 -477v313c0 36.667 -2 64.834 -6 84.501
s-12.833 33.834 -26.5 42.501s-35.167 14.334 -64.5 17.001v20c12.667 -0.666992 29.334 -1.33398 50.001 -2.00098s40 -1 58 -1c16 0 31.833 0.333008 47.5 1s28.834 1.33398 39.501 2.00098zM290.998 923.996c23.333 0 43.833 -3.66797 61.5 -11.001
s34 -15.666 49 -24.999s30.333 -17.5 46 -24.5s33.5 -10.5 53.5 -10.5c16 0 31 4.16699 45 12.5s26.667 22.166 38 41.499l14 -5c-8.66699 -46 -25.5 -79.833 -50.5 -101.5s-52.5 -32.5 -82.5 -32.5c-23.333 0 -43.833 3.5 -61.5 10.5s-34.167 15.333 -49.5 25
s-30.833 18 -46.5 25s-33.5 10.5 -53.5 10.5c-16 0 -31 -4.16699 -45 -12.5s-26.667 -22.5 -38 -42.5l-14 5c9.33301 46.667 26.5 80.834 51.5 102.501s52.5 32.5 82.5 32.5z" />
    <glyph glyph-name="Ograve" unicode="&#xd2;" horiz-adv-x="793" 
d="M397 722c70.667 0 132.501 -14.3311 185.501 -42.998s94.167 -69.834 123.5 -123.501s44 -118.834 44 -195.501c0 -74.667 -15 -140 -45 -196s-71.833 -99.667 -125.5 -131s-114.834 -47 -183.501 -47c-70.667 0 -132.5 14.333 -185.5 43s-94.167 70 -123.5 124
s-44 119 -44 195c0 74.667 15.167 140 45.5 196s72 99.667 125 131s114.167 47 183.5 47zM393.001 704.002c-37.333 0 -69.833 -15.001 -97.5 -45.001s-49 -71.333 -64 -124s-22.5 -113.667 -22.5 -183c0 -70.667 8.5 -132.167 25.5 -184.5s40 -92.666 69 -120.999
s61.167 -42.5 96.5 -42.5c37.333 0 69.833 15 97.5 45s49 71.5 64 124.5s22.5 113.833 22.5 182.5c0 71.333 -8.5 133 -25.5 185s-40 92.167 -69 120.5s-61.167 42.5 -96.5 42.5zM300.001 934.001c15.333 -8 29.334 -18.833 42.001 -32.5l46 -49.5
c18 -19.333 42.667 -42 74 -68l-7 -12c-36.667 14 -67.834 24.333 -93.501 31l-65.5 16.5c-18 4.33301 -34.333 10.5 -49 18.5c-15.333 8.66699 -25.5 20 -30.5 34s-4.16699 27.333 2.5 40c8 15.333 20 24.833 36 28.5s31 1.5 45 -6.5z" />
    <glyph glyph-name="Oacute" unicode="&#xd3;" horiz-adv-x="793" 
d="M397 722c70.667 0 132.501 -14.3311 185.501 -42.998s94.167 -69.834 123.5 -123.501s44 -118.834 44 -195.501c0 -74.667 -15 -140 -45 -196s-71.833 -99.667 -125.5 -131s-114.834 -47 -183.501 -47c-70.667 0 -132.5 14.333 -185.5 43s-94.167 70 -123.5 124
s-44 119 -44 195c0 74.667 15.167 140 45.5 196s72 99.667 125 131s114.167 47 183.5 47zM393.001 704.002c-37.333 0 -69.833 -15.001 -97.5 -45.001s-49 -71.333 -64 -124s-22.5 -113.667 -22.5 -183c0 -70.667 8.5 -132.167 25.5 -184.5s40 -92.666 69 -120.999
s61.167 -42.5 96.5 -42.5c37.333 0 69.833 15 97.5 45s49 71.5 64 124.5s22.5 113.833 22.5 182.5c0 71.333 -8.5 133 -25.5 185s-40 92.167 -69 120.5s-61.167 42.5 -96.5 42.5zM484.001 934.001c14 8 29.167 10.167 45.5 6.5s28.166 -13.167 35.499 -28.5
c6.66699 -12.667 7.5 -26 2.5 -40s-15.167 -25.333 -30.5 -34c-14.667 -8 -31 -14.167 -49 -18.5s-39.667 -9.83301 -65 -16.5s-56.666 -17 -93.999 -31l-7 12c32 26 56.833 48.667 74.5 68l45.5 49.5c12.667 13.667 26.667 24.5 42 32.5z" />
    <glyph glyph-name="Ocircumflex" unicode="&#xd4;" horiz-adv-x="793" 
d="M397 722c70.667 0 132.501 -14.3311 185.501 -42.998s94.167 -69.834 123.5 -123.501s44 -118.834 44 -195.501c0 -74.667 -15 -140 -45 -196s-71.833 -99.667 -125.5 -131s-114.834 -47 -183.501 -47c-70.667 0 -132.5 14.333 -185.5 43s-94.167 70 -123.5 124
s-44 119 -44 195c0 74.667 15.167 140 45.5 196s72 99.667 125 131s114.167 47 183.5 47zM393.001 704.002c-37.333 0 -69.833 -15.001 -97.5 -45.001s-49 -71.333 -64 -124s-22.5 -113.667 -22.5 -183c0 -70.667 8.5 -132.167 25.5 -184.5s40 -92.666 69 -120.999
s61.167 -42.5 96.5 -42.5c37.333 0 69.833 15 97.5 45s49 71.5 64 124.5s22.5 113.833 22.5 182.5c0 71.333 -8.5 133 -25.5 185s-40 92.167 -69 120.5s-61.167 42.5 -96.5 42.5zM404.001 940.001c20 -28.667 48.167 -57.167 84.5 -85.5s76.5 -51.833 120.5 -70.5l-5 -15
c-43.333 8 -86.166 18 -128.499 30s-75.833 23.667 -100.5 35c-20.667 -11.333 -48.5 -23 -83.5 -35s-70.167 -22 -105.5 -30l-5 15c43.333 18.667 83.166 42 119.499 70s64.833 56.667 85.5 86h18z" />
    <glyph glyph-name="Otilde" unicode="&#xd5;" horiz-adv-x="793" 
d="M397 722c70.667 0 132.501 -14.3311 185.501 -42.998s94.167 -69.834 123.5 -123.501s44 -118.834 44 -195.501c0 -74.667 -15 -140 -45 -196s-71.833 -99.667 -125.5 -131s-114.834 -47 -183.501 -47c-70.667 0 -132.5 14.333 -185.5 43s-94.167 70 -123.5 124
s-44 119 -44 195c0 74.667 15.167 140 45.5 196s72 99.667 125 131s114.167 47 183.5 47zM393.001 704.002c-37.333 0 -69.833 -15.001 -97.5 -45.001s-49 -71.333 -64 -124s-22.5 -113.667 -22.5 -183c0 -70.667 8.5 -132.167 25.5 -184.5s40 -92.666 69 -120.999
s61.167 -42.5 96.5 -42.5c37.333 0 69.833 15 97.5 45s49 71.5 64 124.5s22.5 113.833 22.5 182.5c0 71.333 -8.5 133 -25.5 185s-40 92.167 -69 120.5s-61.167 42.5 -96.5 42.5zM307.001 924.001c23.333 0 43.833 -3.66797 61.5 -11.001s34 -15.666 49 -24.999
s30.333 -17.5 46 -24.5s33.5 -10.5 53.5 -10.5c16 0 31 4.16699 45 12.5s26.667 22.166 38 41.499l14 -5c-8.66699 -46 -25.5 -79.833 -50.5 -101.5s-52.5 -32.5 -82.5 -32.5c-23.333 0 -43.833 3.5 -61.5 10.5s-34.167 15.333 -49.5 25s-30.833 18 -46.5 25
s-33.5 10.5 -53.5 10.5c-16 0 -31 -4.16699 -45 -12.5s-26.667 -22.5 -38 -42.5l-14 5c9.33301 46.667 26.5 80.834 51.5 102.501s52.5 32.5 82.5 32.5z" />
    <glyph glyph-name="Odieresis" unicode="&#xd6;" horiz-adv-x="793" 
d="M397 722c70.667 0 132.501 -14.3311 185.501 -42.998s94.167 -69.834 123.5 -123.501s44 -118.834 44 -195.501c0 -74.667 -15 -140 -45 -196s-71.833 -99.667 -125.5 -131s-114.834 -47 -183.501 -47c-70.667 0 -132.5 14.333 -185.5 43s-94.167 70 -123.5 124
s-44 119 -44 195c0 74.667 15.167 140 45.5 196s72 99.667 125 131s114.167 47 183.5 47zM393.001 704.002c-37.333 0 -69.833 -15.001 -97.5 -45.001s-49 -71.333 -64 -124s-22.5 -113.667 -22.5 -183c0 -70.667 8.5 -132.167 25.5 -184.5s40 -92.666 69 -120.999
s61.167 -42.5 96.5 -42.5c37.333 0 69.833 15 97.5 45s49 71.5 64 124.5s22.5 113.833 22.5 182.5c0 71.333 -8.5 133 -25.5 185s-40 92.167 -69 120.5s-61.167 42.5 -96.5 42.5zM515.001 917.001c20 0 37.5 -7.66602 52.5 -22.999s22.5 -33 22.5 -53
c0 -20.667 -7.5 -38.334 -22.5 -53.001s-32.5 -22 -52.5 -22c-20.667 0 -38.5 7.33301 -53.5 22s-22.5 32.667 -22.5 54c0 20 7.5 37.5 22.5 52.5s32.833 22.5 53.5 22.5zM275.001 917.002c20 0 37.667 -7.66602 53 -22.999s23 -33 23 -53
c0 -20.667 -7.66699 -38.334 -23 -53.001s-33 -22 -53 -22c-20.667 0 -38.334 7.33301 -53.001 22s-22 32.667 -22 54c0 20 7.33301 37.5 22 52.5s32.334 22.5 53.001 22.5z" />
    <glyph glyph-name="multiply" unicode="&#xd7;" horiz-adv-x="493" 
d="M73 552l175 -175l173 173l22 -22l-173 -172l173 -173l-22 -22l-173 173l-174 -174l-22 22l174 173l-175 175z" />
    <glyph glyph-name="Oslash" unicode="&#xd8;" horiz-adv-x="793" 
d="M397 722c70.667 0 132.501 -14.3311 185.501 -42.998s94.167 -69.834 123.5 -123.501s44 -118.834 44 -195.501c0 -74.667 -15 -140 -45 -196s-71.833 -99.667 -125.5 -131s-114.834 -47 -183.501 -47c-70.667 0 -132.5 14.333 -185.5 43s-94.167 70 -123.5 124
s-44 119 -44 195c0 74.667 15.167 140 45.5 196s72 99.667 125 131s114.167 47 183.5 47zM393.001 704.002c-37.333 0 -69.833 -15.001 -97.5 -45.001s-49 -71.333 -64 -124s-22.5 -113.667 -22.5 -183c0 -70.667 8.5 -132.167 25.5 -184.5s40 -92.666 69 -120.999
s61.167 -42.5 96.5 -42.5c37.333 0 69.833 15 97.5 45s49 71.5 64 124.5s22.5 113.833 22.5 182.5c0 71.333 -8.5 133 -25.5 185s-40 92.167 -69 120.5s-61.167 42.5 -96.5 42.5zM559.001 637.001l15 -20l-343 -541l-18 18zM201.001 94.001l18 -18l-109 -155l-21 14z
M663.001 779.001l19 -13l-101 -149l-15 20z" />
    <glyph glyph-name="Ugrave" unicode="&#xd9;" horiz-adv-x="689" 
d="M671 708l-0.000976562 -20.002c-21.333 -2.66699 -37.5 -8.16699 -48.5 -16.5s-18.167 -21.5 -21.5 -39.5s-5 -43.333 -5 -76v-265c0 -43.333 -3 -83 -9 -119s-16.667 -67 -32 -93c-17.333 -28.667 -42.666 -51.334 -75.999 -68.001s-75.666 -25 -126.999 -25
c-30.667 0 -62 3.5 -94 10.5s-60.667 20.167 -86 39.5c-21.333 18 -37.666 38.333 -48.999 61s-19 49.5 -23 80.5s-6 67.833 -6 110.5v314c0 24.667 -1.83301 42.834 -5.5 54.501s-10.834 19.667 -21.501 24s-26.667 6.83301 -48 7.5v20
c16.667 -0.666992 39.167 -1.33398 67.5 -2.00098s57.833 -1 88.5 -1s60.167 0.333008 88.5 1s51.833 1.33398 70.5 2.00098v-20c-22.667 -0.666992 -39.834 -3.16699 -51.501 -7.5s-19.5 -12.333 -23.5 -24s-6 -29.834 -6 -54.501v-377
c0 -33.333 2.16699 -62.833 6.5 -88.5s11.666 -47 21.999 -64s24.5 -29.833 42.5 -38.5s40.333 -13 67 -13c46.667 0 83.167 11 109.5 33s45 52.5 56 91.5s16.5 83.833 16.5 134.5v264c0 36.667 -2.33301 64.834 -7 84.501s-13.834 33.834 -27.501 42.501
s-34.5 14.334 -62.5 17.001v20c12.667 -0.666992 29.334 -1.33398 50.001 -2.00098s40 -1 58 -1c16 0 31.833 0.333008 47.5 1s28.834 1.33398 39.501 2.00098zM261.999 933.998c15.333 -8 29.334 -18.833 42.001 -32.5l46 -49.5c18 -19.333 42.667 -42 74 -68l-7 -12
c-36.667 14 -67.834 24.333 -93.501 31l-65.5 16.5c-18 4.33301 -34.333 10.5 -49 18.5c-15.333 8.66699 -25.5 20 -30.5 34s-4.16699 27.333 2.5 40c8 15.333 20 24.833 36 28.5s31 1.5 45 -6.5z" />
    <glyph glyph-name="Uacute" unicode="&#xda;" horiz-adv-x="689" 
d="M671 708l-0.000976562 -20.002c-21.333 -2.66699 -37.5 -8.16699 -48.5 -16.5s-18.167 -21.5 -21.5 -39.5s-5 -43.333 -5 -76v-265c0 -43.333 -3 -83 -9 -119s-16.667 -67 -32 -93c-17.333 -28.667 -42.666 -51.334 -75.999 -68.001s-75.666 -25 -126.999 -25
c-30.667 0 -62 3.5 -94 10.5s-60.667 20.167 -86 39.5c-21.333 18 -37.666 38.333 -48.999 61s-19 49.5 -23 80.5s-6 67.833 -6 110.5v314c0 24.667 -1.83301 42.834 -5.5 54.501s-10.834 19.667 -21.501 24s-26.667 6.83301 -48 7.5v20
c16.667 -0.666992 39.167 -1.33398 67.5 -2.00098s57.833 -1 88.5 -1s60.167 0.333008 88.5 1s51.833 1.33398 70.5 2.00098v-20c-22.667 -0.666992 -39.834 -3.16699 -51.501 -7.5s-19.5 -12.333 -23.5 -24s-6 -29.834 -6 -54.501v-377
c0 -33.333 2.16699 -62.833 6.5 -88.5s11.666 -47 21.999 -64s24.5 -29.833 42.5 -38.5s40.333 -13 67 -13c46.667 0 83.167 11 109.5 33s45 52.5 56 91.5s16.5 83.833 16.5 134.5v264c0 36.667 -2.33301 64.834 -7 84.501s-13.834 33.834 -27.501 42.501
s-34.5 14.334 -62.5 17.001v20c12.667 -0.666992 29.334 -1.33398 50.001 -2.00098s40 -1 58 -1c16 0 31.833 0.333008 47.5 1s28.834 1.33398 39.501 2.00098zM445.999 933.998c14 8 29.167 10.167 45.5 6.5s28.166 -13.167 35.499 -28.5c6.66699 -12.667 7.5 -26 2.5 -40
s-15.167 -25.333 -30.5 -34c-14.667 -8 -31 -14.167 -49 -18.5s-39.667 -9.83301 -65 -16.5s-56.666 -17 -93.999 -31l-7 12c32 26 56.833 48.667 74.5 68l45.5 49.5c12.667 13.667 26.667 24.5 42 32.5z" />
    <glyph glyph-name="Ucircumflex" unicode="&#xdb;" horiz-adv-x="689" 
d="M671 708l-0.000976562 -20.002c-21.333 -2.66699 -37.5 -8.16699 -48.5 -16.5s-18.167 -21.5 -21.5 -39.5s-5 -43.333 -5 -76v-265c0 -43.333 -3 -83 -9 -119s-16.667 -67 -32 -93c-17.333 -28.667 -42.666 -51.334 -75.999 -68.001s-75.666 -25 -126.999 -25
c-30.667 0 -62 3.5 -94 10.5s-60.667 20.167 -86 39.5c-21.333 18 -37.666 38.333 -48.999 61s-19 49.5 -23 80.5s-6 67.833 -6 110.5v314c0 24.667 -1.83301 42.834 -5.5 54.501s-10.834 19.667 -21.501 24s-26.667 6.83301 -48 7.5v20
c16.667 -0.666992 39.167 -1.33398 67.5 -2.00098s57.833 -1 88.5 -1s60.167 0.333008 88.5 1s51.833 1.33398 70.5 2.00098v-20c-22.667 -0.666992 -39.834 -3.16699 -51.501 -7.5s-19.5 -12.333 -23.5 -24s-6 -29.834 -6 -54.501v-377
c0 -33.333 2.16699 -62.833 6.5 -88.5s11.666 -47 21.999 -64s24.5 -29.833 42.5 -38.5s40.333 -13 67 -13c46.667 0 83.167 11 109.5 33s45 52.5 56 91.5s16.5 83.833 16.5 134.5v264c0 36.667 -2.33301 64.834 -7 84.501s-13.834 33.834 -27.501 42.501
s-34.5 14.334 -62.5 17.001v20c12.667 -0.666992 29.334 -1.33398 50.001 -2.00098s40 -1 58 -1c16 0 31.833 0.333008 47.5 1s28.834 1.33398 39.501 2.00098zM365.999 939.998c20 -28.667 48.167 -57.167 84.5 -85.5s76.5 -51.833 120.5 -70.5l-5 -15
c-43.333 8 -86.166 18 -128.499 30s-75.833 23.667 -100.5 35c-20.667 -11.333 -48.5 -23 -83.5 -35s-70.167 -22 -105.5 -30l-5 15c43.333 18.667 83.166 42 119.499 70s64.833 56.667 85.5 86h18z" />
    <glyph glyph-name="Udieresis" unicode="&#xdc;" horiz-adv-x="689" 
d="M671 708l-0.000976562 -20.002c-21.333 -2.66699 -37.5 -8.16699 -48.5 -16.5s-18.167 -21.5 -21.5 -39.5s-5 -43.333 -5 -76v-265c0 -43.333 -3 -83 -9 -119s-16.667 -67 -32 -93c-17.333 -28.667 -42.666 -51.334 -75.999 -68.001s-75.666 -25 -126.999 -25
c-30.667 0 -62 3.5 -94 10.5s-60.667 20.167 -86 39.5c-21.333 18 -37.666 38.333 -48.999 61s-19 49.5 -23 80.5s-6 67.833 -6 110.5v314c0 24.667 -1.83301 42.834 -5.5 54.501s-10.834 19.667 -21.501 24s-26.667 6.83301 -48 7.5v20
c16.667 -0.666992 39.167 -1.33398 67.5 -2.00098s57.833 -1 88.5 -1s60.167 0.333008 88.5 1s51.833 1.33398 70.5 2.00098v-20c-22.667 -0.666992 -39.834 -3.16699 -51.501 -7.5s-19.5 -12.333 -23.5 -24s-6 -29.834 -6 -54.501v-377
c0 -33.333 2.16699 -62.833 6.5 -88.5s11.666 -47 21.999 -64s24.5 -29.833 42.5 -38.5s40.333 -13 67 -13c46.667 0 83.167 11 109.5 33s45 52.5 56 91.5s16.5 83.833 16.5 134.5v264c0 36.667 -2.33301 64.834 -7 84.501s-13.834 33.834 -27.501 42.501
s-34.5 14.334 -62.5 17.001v20c12.667 -0.666992 29.334 -1.33398 50.001 -2.00098s40 -1 58 -1c16 0 31.833 0.333008 47.5 1s28.834 1.33398 39.501 2.00098zM476.999 916.998c20 0 37.5 -7.66602 52.5 -22.999s22.5 -33 22.5 -53c0 -20.667 -7.5 -38.334 -22.5 -53.001
s-32.5 -22 -52.5 -22c-20.667 0 -38.5 7.33301 -53.5 22s-22.5 32.667 -22.5 54c0 20 7.5 37.5 22.5 52.5s32.833 22.5 53.5 22.5zM236.999 916.999c20 0 37.667 -7.66602 53 -22.999s23 -33 23 -53c0 -20.667 -7.66699 -38.334 -23 -53.001s-33 -22 -53 -22
c-20.667 0 -38.334 7.33301 -53.001 22s-22 32.667 -22 54c0 20 7.33301 37.5 22 52.5s32.334 22.5 53.001 22.5z" />
    <glyph glyph-name="Yacute" unicode="&#xdd;" horiz-adv-x="623" 
d="M617 709l-0.00195312 -20.001c-14.667 -6 -29.667 -17.833 -45 -35.5s-32.333 -44.5 -51 -80.5l-189 -374h-47l-234 433c-12 22.667 -22.833 37.667 -32.5 45s-18.167 11 -25.5 11v21c18 -2 36.5 -3.33301 55.5 -4s39.833 -1 62.5 -1c29.333 0 61 0.5 95 1.5
s65 2.16699 93 3.5v-21c-16.667 0 -31.667 -1.33301 -45 -4s-22.666 -7.5 -27.999 -14.5s-4 -18.167 4 -33.5l158 -304l-31 -40l103 207c24.667 48 37.834 85.667 39.501 113s-5 46.833 -20 58.5s-36.167 17.834 -63.5 18.501v20c22.667 -0.666992 44 -1.33398 64 -2.00098
s40.333 -1 61 -1c14.667 0 28.5 0.333008 41.5 1s24.5 1.33398 34.5 2.00098zM402.998 356.999l-0.00195312 -251c0 -24 1.83301 -42 5.5 -54s10.834 -20 21.501 -24s26.667 -6.66699 48 -8v-20c-18 1.33301 -41.167 2.16602 -69.5 2.49902s-56.5 0.5 -84.5 0.5
c-31.333 0 -61 -0.166992 -89 -0.5s-50 -1.16602 -66 -2.49902v20c21.333 1.33301 37.333 4 48 8s17.834 12 21.501 24s5.5 30 5.5 54v205l87 -62zM418.996 933.999c14 8 29.167 10.167 45.5 6.5s28.166 -13.167 35.499 -28.5c6.66699 -12.667 7.5 -26 2.5 -40
s-15.167 -25.333 -30.5 -34c-14.667 -8 -31 -14.167 -49 -18.5s-39.667 -9.83301 -65 -16.5s-56.666 -17 -93.999 -31l-7 12c32 26 56.833 48.667 74.5 68l45.5 49.5c12.667 13.667 26.667 24.5 42 32.5z" />
    <glyph glyph-name="Thorn" unicode="&#xde;" horiz-adv-x="621" 
d="M324 567c62 0 113.499 -7.5 154.499 -22.5s71.667 -36.833 92 -65.5s30.5 -63.334 30.5 -104.001c0 -28 -4.66699 -55.5 -14 -82.5s-25.166 -51.5 -47.499 -73.5s-52.833 -39.667 -91.5 -53s-87.334 -20 -146.001 -20h-96v10v10h86c39.333 0 69.166 9.16699 89.499 27.5
s34.333 42.833 42 73.5s11.5 63.667 11.5 99c0 59.333 -10.167 104.5 -30.5 135.5s-55.5 46.5 -105.5 46.5c-14 0 -29.167 -0.166992 -45.5 -0.5s-31.666 -0.666016 -45.999 -0.999023s-25.166 -0.5 -32.499 -0.5l-2 19c31.333 0 61.333 0.333008 90 1s49 1 61 1z
M342.999 708l-0.00195312 -20c-21.333 -0.666992 -37.5 -3.16699 -48.5 -7.5s-18.167 -12.333 -21.5 -24s-5 -29.834 -5 -54.501v-496c0 -24 1.83301 -42 5.5 -54s10.834 -20 21.501 -24s26.667 -6.66699 48 -8v-20c-18 1.33301 -40.667 2.16602 -68 2.49902
s-55 0.5 -83 0.5c-32.667 0 -62.834 -0.166992 -90.501 -0.5s-50.167 -1.16602 -67.5 -2.49902v20c21.333 1.33301 37.333 4 48 8s17.834 12 21.501 24s5.5 30 5.5 54v496c0 24.667 -1.83301 42.834 -5.5 54.501s-11 19.667 -22 24s-26.833 6.83301 -47.5 7.5v20
c17.333 -0.666992 39.833 -1.33398 67.5 -2.00098s57.834 -1 90.501 -1c28 0 55.667 0.333008 83 1s50 1.33398 68 2.00098z" />
    <glyph glyph-name="germandbls" unicode="&#xdf;" horiz-adv-x="657" 
d="M331 782c68 0 119.999 -13.998 155.999 -41.998s54 -63.333 54 -106c0 -25.333 -6 -48.833 -18 -70.5s-28.333 -41.167 -49 -58.5s-43.5 -32.166 -68.5 -44.499s-50.5 -21.5 -76.5 -27.5c63.333 -8.66699 117.5 -25 162.5 -49s79.333 -53.5 103 -88.5
s35.5 -73.5 35.5 -115.5s-10.5 -77.5 -31.5 -106.5s-48.167 -50.833 -81.5 -65.5s-69.666 -22 -108.999 -22c-24 0 -46.833 3.33301 -68.5 10s-39.167 17.5 -52.5 32.5s-20 35.167 -20 60.5c0 23.333 6.16699 42.5 18.5 57.5s29.833 22.5 52.5 22.5
c21.333 0 38.333 -6.33301 51 -19s19 -29.334 19 -50.001s-6.33301 -38.167 -19 -52.5s-27.334 -24.833 -44.001 -31.5c3.33301 -3.33301 8.5 -6.33301 15.5 -9s14.833 -4 23.5 -4c20 0 37.167 6.5 51.5 19.5s25.5 31.5 33.5 55.5s12 53 12 87
c0 38.667 -4.83301 72.667 -14.5 102s-22.5 54.166 -38.5 74.499s-34 37 -54 50s-40.333 23.167 -61 30.5c-5.33301 -3.33301 -11.166 -6.33301 -17.499 -9s-12.166 -4 -17.499 -4c-4.66699 0 -9.16699 1.33301 -13.5 4s-6.5 6.66699 -6.5 12c0 12.667 7.66699 19 23 19
c4.66699 0 10.167 -0.833008 16.5 -2.5s11.833 -3.5 16.5 -5.5c34 24 57.333 50.667 70 80s19 65.333 19 108c0 47.333 -7.5 83 -22.5 107s-37.167 36 -66.5 36c-20 0 -36.5 -6 -49.5 -18s-22.5 -32.333 -28.5 -61s-9 -68.334 -9 -119.001v-580
c-18 4.66699 -37.333 8 -58 10s-43 3.33301 -67 4c-13.333 0.666992 -25.833 0.666992 -37.5 0s-26.834 -1.66699 -45.501 -3v21c24 0 40.667 5.83301 50 17.5s14 31.834 14 60.501v423c0 59.333 9.66699 108.166 29 146.499s47.5 66.833 84.5 85.5s81.833 28 134.5 28z" />
    <glyph glyph-name="agrave" unicode="&#xe0;" horiz-adv-x="518" 
d="M162 -7c-30 0 -55 5.66797 -75 17.001s-34.667 26.5 -44 45.5s-14 39.833 -14 62.5c0 28.667 6.5 52 19.5 70s29.833 32.667 50.5 44s42.5 20.666 65.5 27.999l66 21.5c21 7 38 15.333 51 25s19.5 22.167 19.5 37.5v78c0 17.333 -2.83301 32.833 -8.5 46.5
s-14.334 24.167 -26.001 31.5s-26.834 11 -45.501 11c-13.333 0 -26.666 -1.83301 -39.999 -5.5s-24.333 -9.83398 -33 -18.501c18.667 -6.66699 33.167 -16.834 43.5 -30.501s15.5 -29.167 15.5 -46.5c0 -22.667 -7.83301 -40.667 -23.5 -54s-34.167 -20 -55.5 -20
c-24 0 -42.167 7.5 -54.5 22.5s-18.5 33.167 -18.5 54.5c0 19.333 4.83301 35.333 14.5 48s23.167 24.667 40.5 36c18.667 10.667 41.167 19 67.5 25s54.833 9 85.5 9s58.334 -3.16699 83.001 -9.5s45.334 -17.833 62.001 -34.5c15.333 -15.333 25.333 -34.166 30 -56.499
s7 -50.5 7 -84.5v-272c0 -16.667 1.66699 -28.167 5 -34.5s9 -9.5 17 -9.5c6 0 11.833 1.66699 17.5 5s11.834 7.33301 18.501 12l10 -17c-14 -12 -30.167 -21.167 -48.5 -27.5s-38.833 -9.5 -61.5 -9.5c-24.667 0 -44.334 3.5 -59.001 10.5s-25.167 16.5 -31.5 28.5
s-9.5 26 -9.5 42c-16 -25.333 -35.333 -45.166 -58 -59.499s-50.334 -21.5 -83.001 -21.5zM233 57.001c13.333 0 25.5 3.16797 36.5 9.50098s21.5 16.833 31.5 31.5v205c-6 -10 -14.333 -19 -25 -27l-34 -24.5c-12 -8.33301 -23.5 -17.5 -34.5 -27.5
s-19.833 -22.333 -26.5 -37s-10 -32.334 -10 -53.001c0 -26 5.66699 -45.333 17 -58s26.333 -19 45 -19zM135 817.002c12 10.667 26.167 14.6689 42.5 12.002s29.5 -10.334 39.5 -23.001c11.333 -12.667 20.333 -27.667 27 -45l24.5 -62.5
c9.66699 -24.333 24.167 -54.5 43.5 -90.5l-11 -9c-29.333 27.333 -54.5 48.666 -75.5 63.999l-54 39c-15 10.667 -28.167 22.667 -39.5 36c-10.667 13.333 -15.667 27.5 -15 42.5s6.66699 27.167 18 36.5z" />
    <glyph glyph-name="aacute" unicode="&#xe1;" horiz-adv-x="518" 
d="M162 -7c-30 0 -55 5.66797 -75 17.001s-34.667 26.5 -44 45.5s-14 39.833 -14 62.5c0 28.667 6.5 52 19.5 70s29.833 32.667 50.5 44s42.5 20.666 65.5 27.999l66 21.5c21 7 38 15.333 51 25s19.5 22.167 19.5 37.5v78c0 17.333 -2.83301 32.833 -8.5 46.5
s-14.334 24.167 -26.001 31.5s-26.834 11 -45.501 11c-13.333 0 -26.666 -1.83301 -39.999 -5.5s-24.333 -9.83398 -33 -18.501c18.667 -6.66699 33.167 -16.834 43.5 -30.501s15.5 -29.167 15.5 -46.5c0 -22.667 -7.83301 -40.667 -23.5 -54s-34.167 -20 -55.5 -20
c-24 0 -42.167 7.5 -54.5 22.5s-18.5 33.167 -18.5 54.5c0 19.333 4.83301 35.333 14.5 48s23.167 24.667 40.5 36c18.667 10.667 41.167 19 67.5 25s54.833 9 85.5 9s58.334 -3.16699 83.001 -9.5s45.334 -17.833 62.001 -34.5c15.333 -15.333 25.333 -34.166 30 -56.499
s7 -50.5 7 -84.5v-272c0 -16.667 1.66699 -28.167 5 -34.5s9 -9.5 17 -9.5c6 0 11.833 1.66699 17.5 5s11.834 7.33301 18.501 12l10 -17c-14 -12 -30.167 -21.167 -48.5 -27.5s-38.833 -9.5 -61.5 -9.5c-24.667 0 -44.334 3.5 -59.001 10.5s-25.167 16.5 -31.5 28.5
s-9.5 26 -9.5 42c-16 -25.333 -35.333 -45.166 -58 -59.499s-50.334 -21.5 -83.001 -21.5zM233 57.001c13.333 0 25.5 3.16797 36.5 9.50098s21.5 16.833 31.5 31.5v205c-6 -10 -14.333 -19 -25 -27l-34 -24.5c-12 -8.33301 -23.5 -17.5 -34.5 -27.5
s-19.833 -22.333 -26.5 -37s-10 -32.334 -10 -53.001c0 -26 5.66699 -45.333 17 -58s26.333 -19 45 -19zM369 817.002c11.333 -8.66699 17.333 -20.667 18 -36s-4.33301 -29.666 -15 -42.999s-23.667 -25.333 -39 -36l-54.5 -39c-21 -15.333 -46.167 -36.666 -75.5 -63.999
l-11 9c20 36 34.667 66.167 44 90.5l24 62.5c6.66699 17.333 15.667 32.333 27 45c10 13.333 23.167 21.166 39.5 23.499s30.5 -1.83398 42.5 -12.501z" />
    <glyph glyph-name="acircumflex" unicode="&#xe2;" horiz-adv-x="518" 
d="M162 -7c-30 0 -55 5.66797 -75 17.001s-34.667 26.5 -44 45.5s-14 39.833 -14 62.5c0 28.667 6.5 52 19.5 70s29.833 32.667 50.5 44s42.5 20.666 65.5 27.999l66 21.5c21 7 38 15.333 51 25s19.5 22.167 19.5 37.5v78c0 17.333 -2.83301 32.833 -8.5 46.5
s-14.334 24.167 -26.001 31.5s-26.834 11 -45.501 11c-13.333 0 -26.666 -1.83301 -39.999 -5.5s-24.333 -9.83398 -33 -18.501c18.667 -6.66699 33.167 -16.834 43.5 -30.501s15.5 -29.167 15.5 -46.5c0 -22.667 -7.83301 -40.667 -23.5 -54s-34.167 -20 -55.5 -20
c-24 0 -42.167 7.5 -54.5 22.5s-18.5 33.167 -18.5 54.5c0 19.333 4.83301 35.333 14.5 48s23.167 24.667 40.5 36c18.667 10.667 41.167 19 67.5 25s54.833 9 85.5 9s58.334 -3.16699 83.001 -9.5s45.334 -17.833 62.001 -34.5c15.333 -15.333 25.333 -34.166 30 -56.499
s7 -50.5 7 -84.5v-272c0 -16.667 1.66699 -28.167 5 -34.5s9 -9.5 17 -9.5c6 0 11.833 1.66699 17.5 5s11.834 7.33301 18.501 12l10 -17c-14 -12 -30.167 -21.167 -48.5 -27.5s-38.833 -9.5 -61.5 -9.5c-24.667 0 -44.334 3.5 -59.001 10.5s-25.167 16.5 -31.5 28.5
s-9.5 26 -9.5 42c-16 -25.333 -35.333 -45.166 -58 -59.499s-50.334 -21.5 -83.001 -21.5zM233 57.001c13.333 0 25.5 3.16797 36.5 9.50098s21.5 16.833 31.5 31.5v205c-6 -10 -14.333 -19 -25 -27l-34 -24.5c-12 -8.33301 -23.5 -17.5 -34.5 -27.5
s-19.833 -22.333 -26.5 -37s-10 -32.334 -10 -53.001c0 -26 5.66699 -45.333 17 -58s26.333 -19 45 -19zM269 820.002c18 -36.667 42.833 -72.8311 74.5 -108.498s66.5 -64.834 104.5 -87.501l-8 -14c-38.667 9.33301 -76 21 -112 35s-65.333 27.667 -88 41
c-18 -13.333 -41.5 -27 -70.5 -41s-58.833 -25.667 -89.5 -35l-8 14c38 22.667 72.833 51.667 104.5 87s56.5 71.666 74.5 108.999h18z" />
    <glyph glyph-name="atilde" unicode="&#xe3;" horiz-adv-x="518" 
d="M162 -7c-30 0 -55 5.66797 -75 17.001s-34.667 26.5 -44 45.5s-14 39.833 -14 62.5c0 28.667 6.5 52 19.5 70s29.833 32.667 50.5 44s42.5 20.666 65.5 27.999l66 21.5c21 7 38 15.333 51 25s19.5 22.167 19.5 37.5v78c0 17.333 -2.83301 32.833 -8.5 46.5
s-14.334 24.167 -26.001 31.5s-26.834 11 -45.501 11c-13.333 0 -26.666 -1.83301 -39.999 -5.5s-24.333 -9.83398 -33 -18.501c18.667 -6.66699 33.167 -16.834 43.5 -30.501s15.5 -29.167 15.5 -46.5c0 -22.667 -7.83301 -40.667 -23.5 -54s-34.167 -20 -55.5 -20
c-24 0 -42.167 7.5 -54.5 22.5s-18.5 33.167 -18.5 54.5c0 19.333 4.83301 35.333 14.5 48s23.167 24.667 40.5 36c18.667 10.667 41.167 19 67.5 25s54.833 9 85.5 9s58.334 -3.16699 83.001 -9.5s45.334 -17.833 62.001 -34.5c15.333 -15.333 25.333 -34.166 30 -56.499
s7 -50.5 7 -84.5v-272c0 -16.667 1.66699 -28.167 5 -34.5s9 -9.5 17 -9.5c6 0 11.833 1.66699 17.5 5s11.834 7.33301 18.501 12l10 -17c-14 -12 -30.167 -21.167 -48.5 -27.5s-38.833 -9.5 -61.5 -9.5c-24.667 0 -44.334 3.5 -59.001 10.5s-25.167 16.5 -31.5 28.5
s-9.5 26 -9.5 42c-16 -25.333 -35.333 -45.166 -58 -59.499s-50.334 -21.5 -83.001 -21.5zM233 57.001c13.333 0 25.5 3.16797 36.5 9.50098s21.5 16.833 31.5 31.5v205c-6 -10 -14.333 -19 -25 -27l-34 -24.5c-12 -8.33301 -23.5 -17.5 -34.5 -27.5
s-19.833 -22.333 -26.5 -37s-10 -32.334 -10 -53.001c0 -26 5.66699 -45.333 17 -58s26.333 -19 45 -19zM185 786.002c20.667 0 37.998 -3.33203 51.998 -9.99902s26.833 -14.334 38.5 -23.001s23.667 -16.334 36 -23.001s26.5 -10 42.5 -10c14 0 27.5 4.16699 40.5 12.5
s25.167 21.833 36.5 40.5l14 -7c-11.333 -49.333 -28.166 -84.833 -50.499 -106.5s-46.833 -32.5 -73.5 -32.5c-20.667 0 -38.167 3.33301 -52.5 10s-27.333 14.5 -39 23.5s-23.5 16.833 -35.5 23.5s-26.333 10 -43 10c-14 0 -27.5 -4.16699 -40.5 -12.5
s-25.167 -22.166 -36.5 -41.499l-14 7c11.333 50 28.333 85.667 51 107s47.334 32 74.001 32z" />
    <glyph glyph-name="adieresis" unicode="&#xe4;" horiz-adv-x="518" 
d="M162 -7c-30 0 -55 5.66797 -75 17.001s-34.667 26.5 -44 45.5s-14 39.833 -14 62.5c0 28.667 6.5 52 19.5 70s29.833 32.667 50.5 44s42.5 20.666 65.5 27.999l66 21.5c21 7 38 15.333 51 25s19.5 22.167 19.5 37.5v78c0 17.333 -2.83301 32.833 -8.5 46.5
s-14.334 24.167 -26.001 31.5s-26.834 11 -45.501 11c-13.333 0 -26.666 -1.83301 -39.999 -5.5s-24.333 -9.83398 -33 -18.501c18.667 -6.66699 33.167 -16.834 43.5 -30.501s15.5 -29.167 15.5 -46.5c0 -22.667 -7.83301 -40.667 -23.5 -54s-34.167 -20 -55.5 -20
c-24 0 -42.167 7.5 -54.5 22.5s-18.5 33.167 -18.5 54.5c0 19.333 4.83301 35.333 14.5 48s23.167 24.667 40.5 36c18.667 10.667 41.167 19 67.5 25s54.833 9 85.5 9s58.334 -3.16699 83.001 -9.5s45.334 -17.833 62.001 -34.5c15.333 -15.333 25.333 -34.166 30 -56.499
s7 -50.5 7 -84.5v-272c0 -16.667 1.66699 -28.167 5 -34.5s9 -9.5 17 -9.5c6 0 11.833 1.66699 17.5 5s11.834 7.33301 18.501 12l10 -17c-14 -12 -30.167 -21.167 -48.5 -27.5s-38.833 -9.5 -61.5 -9.5c-24.667 0 -44.334 3.5 -59.001 10.5s-25.167 16.5 -31.5 28.5
s-9.5 26 -9.5 42c-16 -25.333 -35.333 -45.166 -58 -59.499s-50.334 -21.5 -83.001 -21.5zM233 57.001c13.333 0 25.5 3.16797 36.5 9.50098s21.5 16.833 31.5 31.5v205c-6 -10 -14.333 -19 -25 -27l-34 -24.5c-12 -8.33301 -23.5 -17.5 -34.5 -27.5
s-19.833 -22.333 -26.5 -37s-10 -32.334 -10 -53.001c0 -26 5.66699 -45.333 17 -58s26.333 -19 45 -19zM375 760.002c20 0 37.5 -7.5 52.5 -22.5s22.5 -32.5 22.5 -52.5c0 -20.667 -7.5 -38.334 -22.5 -53.001s-32.5 -22 -52.5 -22c-20.667 0 -38.5 7.33301 -53.5 22
s-22.5 32.334 -22.5 53.001c0 20 7.5 37.5 22.5 52.5s32.833 22.5 53.5 22.5zM147 760.002c20 0 37.667 -7.5 53 -22.5s23 -32.5 23 -52.5c0 -20.667 -7.66699 -38.334 -23 -53.001s-33 -22 -53 -22c-20.667 0 -38.334 7.33301 -53.001 22s-22 32.334 -22 53.001
c0 20 7.33301 37.5 22 52.5s32.334 22.5 53.001 22.5z" />
    <glyph glyph-name="aring" unicode="&#xe5;" horiz-adv-x="518" 
d="M162 -7c-30 0 -55 5.66797 -75 17.001s-34.667 26.5 -44 45.5s-14 39.833 -14 62.5c0 28.667 6.5 52 19.5 70s29.833 32.667 50.5 44s42.5 20.666 65.5 27.999l66 21.5c21 7 38 15.333 51 25s19.5 22.167 19.5 37.5v78c0 17.333 -2.83301 32.833 -8.5 46.5
s-14.334 24.167 -26.001 31.5s-26.834 11 -45.501 11c-13.333 0 -26.666 -1.83301 -39.999 -5.5s-24.333 -9.83398 -33 -18.501c18.667 -6.66699 33.167 -16.834 43.5 -30.501s15.5 -29.167 15.5 -46.5c0 -22.667 -7.83301 -40.667 -23.5 -54s-34.167 -20 -55.5 -20
c-24 0 -42.167 7.5 -54.5 22.5s-18.5 33.167 -18.5 54.5c0 19.333 4.83301 35.333 14.5 48s23.167 24.667 40.5 36c18.667 10.667 41.167 19 67.5 25s54.833 9 85.5 9s58.334 -3.16699 83.001 -9.5s45.334 -17.833 62.001 -34.5c15.333 -15.333 25.333 -34.166 30 -56.499
s7 -50.5 7 -84.5v-272c0 -16.667 1.66699 -28.167 5 -34.5s9 -9.5 17 -9.5c6 0 11.833 1.66699 17.5 5s11.834 7.33301 18.501 12l10 -17c-14 -12 -30.167 -21.167 -48.5 -27.5s-38.833 -9.5 -61.5 -9.5c-24.667 0 -44.334 3.5 -59.001 10.5s-25.167 16.5 -31.5 28.5
s-9.5 26 -9.5 42c-16 -25.333 -35.333 -45.166 -58 -59.499s-50.334 -21.5 -83.001 -21.5zM233 57.001c13.333 0 25.5 3.16797 36.5 9.50098s21.5 16.833 31.5 31.5v205c-6 -10 -14.333 -19 -25 -27l-34 -24.5c-12 -8.33301 -23.5 -17.5 -34.5 -27.5
s-19.833 -22.333 -26.5 -37s-10 -32.334 -10 -53.001c0 -26 5.66699 -45.333 17 -58s26.333 -19 45 -19zM260 797.002c29.333 0 54.833 -8.66699 76.5 -26s32.5 -41 32.5 -71s-10.833 -53.833 -32.5 -71.5s-47.167 -26.5 -76.5 -26.5
c-28.667 0 -53.834 8.83301 -75.501 26.5s-32.5 41.5 -32.5 71.5s10.833 53.667 32.5 71s46.834 26 75.501 26zM260 776.002c-18.667 0 -36.667 -6.66699 -54 -20s-26 -32.333 -26 -57c0 -25.333 8.66699 -44.333 26 -57s35.333 -19 54 -19
c19.333 0 37.666 6.33301 54.999 19s26 31.667 26 57c0 24.667 -8.66699 43.667 -26 57s-35.666 20 -54.999 20z" />
    <glyph glyph-name="ae" unicode="&#xe6;" horiz-adv-x="741" 
d="M156 -7c-44.667 0 -77 11.6689 -97 35.002s-30 51.666 -30 84.999c0 28.667 6.5 52 19.5 70s29.833 32.833 50.5 44.5s42.5 21.334 65.5 29.001l66 23c21 7.66699 38 16.5 51 26.5s19.5 22.667 19.5 38v78c0 17.333 -2.83301 32.833 -8.5 46.5
s-14.334 24.167 -26.001 31.5s-26.834 11 -45.501 11c-13.333 0 -26.666 -1.83301 -39.999 -5.5s-24.333 -9.83398 -33 -18.501c18.667 -6.66699 33.167 -16.834 43.5 -30.501s15.5 -29.167 15.5 -46.5c0 -22.667 -7.83301 -40.667 -23.5 -54s-34.167 -20 -55.5 -20
c-24 0 -42.167 7.5 -54.5 22.5s-18.5 33.167 -18.5 54.5c0 19.333 4.83301 35.333 14.5 48s23.167 24.667 40.5 36c18.667 10.667 41.167 19 67.5 25s54.833 9 85.5 9s58.334 -3.16699 83.001 -9.5s45.334 -17.833 62.001 -34.5c15.333 -15.333 25.166 -34.333 29.499 -57
s6.5 -50.667 6.5 -84l-111 -228c-17.333 -33.333 -35.5 -59 -54.5 -77s-38.833 -30.5 -59.5 -37.5s-41.667 -10.5 -63 -10.5zM232 57.002c16 0 31 5.16699 45 15.5s27.667 28.166 41 53.499l-13 181c-7.33301 -10.667 -16.5 -20.167 -27.5 -28.5s-22.667 -16.5 -35 -24.5
s-24 -17 -35 -27s-19.833 -22.167 -26.5 -36.5s-10 -32.166 -10 -53.499c0 -28.667 6 -49.167 18 -61.5s26.333 -18.5 43 -18.5zM516 -13.998c-42 0 -79.168 9.33203 -111.501 27.999s-57.666 47.667 -75.999 87s-27.5 90 -27.5 152c0 56 8.83301 104.833 26.5 146.5
s43.5 74 77.5 97s75.667 34.5 125 34.5c55.333 0 98.833 -17.333 130.5 -52s47.5 -91.334 47.5 -170.001h-305l-2 19h181c0.666992 32.667 -1 62.834 -5 90.501s-10.333 49.834 -19 66.501s-20 25 -34 25c-20.667 0 -38.167 -14.667 -52.5 -44s-22.833 -78 -25.5 -146l3 -6
c-0.666992 -8 -1.16699 -16.333 -1.5 -25s-0.5 -17.667 -0.5 -27c0 -46 6 -83.333 18 -112s27.167 -49.5 45.5 -62.5s36.833 -19.5 55.5 -19.5c12.667 0 25.667 2.16699 39 6.5s26.833 12.333 40.5 24s26.5 28.167 38.5 49.5l18 -6c-7.33301 -25.333 -19 -50 -35 -74
s-36.5 -43.667 -61.5 -59s-54.833 -23 -89.5 -23z" />
    <glyph glyph-name="ccedilla" unicode="&#xe7;" horiz-adv-x="496" 
d="M284 531c26 0 49.8398 -2.83008 71.5068 -8.49707s39.5 -12.834 53.5 -21.501c17.333 -10.667 30.833 -23.834 40.5 -39.501s14.5 -33.834 14.5 -54.501c0 -23.333 -7.33301 -42.5 -22 -57.5s-33.667 -22.5 -57 -22.5s-42 6.66699 -56 20s-21 31.333 -21 54
c0 21.333 6.66699 39.166 20 53.499s28.666 23.833 45.999 28.5c-5.33301 6.66699 -13.333 12.334 -24 17.001s-22.667 7 -36 7c-20.667 0 -38.834 -6 -54.501 -18s-28.834 -28.667 -39.501 -50s-18.834 -46.333 -24.501 -75s-8.5 -60 -8.5 -94
c0 -51.333 6.5 -91.666 19.5 -120.999s29.667 -50 50 -62s41.5 -18 63.5 -18c12.667 0 26.5 2 41.5 6s30.333 12 46 24s30.167 29 43.5 51l17 -6c-7.33301 -24.667 -19.333 -49.334 -36 -74.001s-38.334 -44.834 -65.001 -60.501s-59.334 -23.5 -98.001 -23.5
c-43.333 0 -82.5 9.5 -117.5 28.5s-63 48.333 -84 88s-31.5 90.834 -31.5 153.501c0 60 10.833 110.5 32.5 151.5s51.167 71.833 88.5 92.5s79.666 31 126.999 31zM262.007 2.00293l-21 -66.998c10.667 4 22 7 34 9s24.333 3 37 3c22.667 0 39.834 -4.83301 51.501 -14.5
s17.5 -22.834 17.5 -39.501c0 -18.667 -6.5 -34 -19.5 -46s-30.167 -20.833 -51.5 -26.5s-44.333 -8.5 -69 -8.5c-18 0 -34.333 1.16699 -49 3.5s-27.334 5.16602 -38.001 8.49902l5 18c4 -0.666992 10 -1.5 18 -2.5s16.667 -1.5 26 -1.5c11.333 0 22.5 1.33301 33.5 4
s20.333 7 28 13s11.5 14 11.5 24c0 17.333 -11 26 -33 26c-5.33301 0 -11.833 -0.5 -19.5 -1.5s-14.5 -2.83301 -20.5 -5.5l32 104h27z" />
    <glyph glyph-name="egrave" unicode="&#xe8;" horiz-adv-x="504" 
d="M282 531c58.667 0 104.667 -17.332 138 -51.999s50 -91.334 50 -170.001h-329l-2 19h205c0.666992 32.667 -1.33301 62.834 -6 90.501s-12 49.834 -22 66.501s-23.333 25 -40 25c-23.333 0 -43.166 -14.667 -59.499 -44s-26.166 -78 -29.499 -146l3 -6
c-0.666992 -8 -1.16699 -16.333 -1.5 -25s-0.5 -17.667 -0.5 -27c0 -46 6.5 -83.333 19.5 -112s29.5 -49.5 49.5 -62.5s40.333 -19.5 61 -19.5c14 0 28.5 2.16699 43.5 6.5s30.167 12.333 45.5 24s29.666 28.167 42.999 49.5l18 -6c-8 -25.333 -20.667 -50 -38 -74
s-39.333 -43.667 -66 -59s-58.667 -23 -96 -23c-45.333 0 -85.333 9.66699 -120 29s-61.834 48.666 -81.501 87.999s-29.5 89.333 -29.5 150c0 62 10.5 113.667 31.5 155s50 72.166 87 92.499s79.167 30.5 126.5 30.5zM151 817.001c12 10.667 26.167 14.6689 42.5 12.002
s29.5 -10.334 39.5 -23.001c11.333 -12.667 20.333 -27.667 27 -45l24.5 -62.5c9.66699 -24.333 24.167 -54.5 43.5 -90.5l-11 -9c-29.333 27.333 -54.5 48.666 -75.5 63.999l-54 39c-15 10.667 -28.167 22.667 -39.5 36c-10.667 13.333 -15.667 27.5 -15 42.5
s6.66699 27.167 18 36.5z" />
    <glyph glyph-name="eacute" unicode="&#xe9;" horiz-adv-x="504" 
d="M282 531c58.667 0 104.667 -17.332 138 -51.999s50 -91.334 50 -170.001h-329l-2 19h205c0.666992 32.667 -1.33301 62.834 -6 90.501s-12 49.834 -22 66.501s-23.333 25 -40 25c-23.333 0 -43.166 -14.667 -59.499 -44s-26.166 -78 -29.499 -146l3 -6
c-0.666992 -8 -1.16699 -16.333 -1.5 -25s-0.5 -17.667 -0.5 -27c0 -46 6.5 -83.333 19.5 -112s29.5 -49.5 49.5 -62.5s40.333 -19.5 61 -19.5c14 0 28.5 2.16699 43.5 6.5s30.167 12.333 45.5 24s29.666 28.167 42.999 49.5l18 -6c-8 -25.333 -20.667 -50 -38 -74
s-39.333 -43.667 -66 -59s-58.667 -23 -96 -23c-45.333 0 -85.333 9.66699 -120 29s-61.834 48.666 -81.501 87.999s-29.5 89.333 -29.5 150c0 62 10.5 113.667 31.5 155s50 72.166 87 92.499s79.167 30.5 126.5 30.5zM385 817.001c11.333 -8.66699 17.333 -20.667 18 -36
s-4.33301 -29.666 -15 -42.999s-23.667 -25.333 -39 -36l-54.5 -39c-21 -15.333 -46.167 -36.666 -75.5 -63.999l-11 9c20 36 34.667 66.167 44 90.5l24 62.5c6.66699 17.333 15.667 32.333 27 45c10 13.333 23.167 21.166 39.5 23.499s30.5 -1.83398 42.5 -12.501z" />
    </font>
</defs>
</svg>
